{
.appVersion = "3227";
.formatVersion = 3;
axes = (
{
name = Weight;
tag = wght;
}
);
classes = (
{
automatic = 1;

glyphs = (
{
color = 6;
glyphname = A;
lastChange = "2023-11-23 10:09:39 +0000";
layers = (
{
anchors = (
{
name = bottom;
pos = (576,0);
},
{
name = ogonek;
pos = (1120,0);
},
{
name = top;
pos = (576,1474);
}
);
guides = (
{
angle = 67.5;
pos = (-96,-200);
}
);
layerId = "AB099EFE-E788-4EFC-8633-CF147CB782A6";
shapes = (
{
closed = 1;
nodes = (
(98,0,l),
(268,496,l),
(280,518,l),
(572,1386,l),
(580,1386,l),
(872,518,l),
(884,496,l),
(1054,0,l),
(1120,0,l),
(612,1474,l),
(540,1474,l),
(32,0,l)
);
},
{
closed = 1;
nodes = (
(912,476,l),
(912,536,l),
(240,536,l),
(240,476,l)
);
}
);
width = 1152;
},
{
anchors = (
{
name = bottom;
pos = (576,0);
},
{
name = ogonek;
pos = (1160,0);
},
{
name = top;
pos = (576,1474);
}
);
guides = (
{
angle = 67.5;
pos = (-90,-200);
}
);
layerId = "2D8F7115-C311-411E-929D-56333CF7FFB2";
shapes = (
{
closed = 1;
nodes = (
(362,0,l),
(440,360,l),
(466,504,l),
(572,1052,l),
(580,1052,l),
(686,504,l),
(712,360,l),
(790,0,l),
(1160,0,l),
(756,1474,l),
(396,1474,l),
(-8,0,l)
);
},
{
closed = 1;
nodes = (
(868,270,l),
(868,570,l),
(284,570,l),
(284,270,l)
);
}
);
width = 1152;
},
{
anchors = (
{
name = bottom;
pos = (576,0);
},
{
name = ogonek;
pos = (1140,0);
},
{
name = top;
pos = (576,1474);
}
);
layerId = "FD1CEFBD-BAB1-4C2A-A598-30E93F9A29F6";
shapes = (
{
closed = 1;
nodes = (
(202,0,l),
(336,440,l),
(354,504,l),
(572,1228,l),
(580,1228,l),
(798,504,l),
(816,440,l),
(950,0,l),
(1140,0,l),
(666,1474,l),
(486,1474,l),
(12,0,l)
);
},
{
closed = 1;
nodes = (
(898,386,l),
(898,550,l),
(254,550,l),
(254,386,l)
);
}
);
width = 1152;
}
);
unicode = 65;
},
{
color = 6;
glyphname = AE;
lastChange = "2023-11-23 10:09:39 +0000";
layers = (
{
anchors = (
{
name = bottom;
pos = (734,0);
},
{
name = top;
pos = (758,1474);
}
);
layerId = "AB099EFE-E788-4EFC-8633-CF147CB782A6";
shapes = (
{
closed = 1;
nodes = (
(76,0,l),
(258,496,l),
(266,516,l),
(576,1390,l),
(606,1390,l),
(606,1474,l),
(542,1474,l),
(10,0,l)
);
},
{
closed = 1;
nodes = (
(658,476,l),
(658,536,l),
(234,536,l),
(234,476,l)
);
},
{
closed = 1;
nodes = (
(1132,0,l),
(1132,60,l),
(716,60,l),
(642,1414,l),
(1132,1414,l),
(1132,1474,l),
(574,1474,l),
(627,520,l),
(628,500,l),
(654,0,l)
);
},
{
closed = 1;
nodes = (
(1068,726,l),
(1068,786,l),
(658,786,l),
(666,726,l)
);
}
);
width = 1152;
},
{
anchors = (
{
name = bottom;
pos = (722,0);
},
{
name = top;
pos = (716,1474);
}
);
background = {
shapes = (
{
pos = (-8,0);
ref = A;
slant = (2,0);
}
);
};
layerId = "2D8F7115-C311-411E-929D-56333CF7FFB2";
shapes = (
{
closed = 1;
nodes = (
(334,0,l),
(412,346,l),
(410,458,l),
(536,1176,l),
(650,1176,l),
(650,1474,l),
(340,1474,l),
(12,0,l)
);
},
{
closed = 1;
nodes = (
(734,286,l),
(734,568,l),
(268,568,l),
(268,286,l)
);
},
{
closed = 1;
nodes = (
(1108,0,l),
(1108,306,l),
(854,306,l),
(838,1168,l),
(1108,1168,l),
(1108,1474,l),
(560,1474,l),
(576,492,l),
(576,454,l),
(580,0,l)
);
},
{
closed = 1;
nodes = (
(1074,596,l),
(1074,892,l),
(822,892,l),
(822,596,l)
);
}
);
width = 1152;
},
{
anchors = (
{
name = bottom;
pos = (732,0);
},
{
name = top;
pos = (740,1474);
}
);
layerId = "FD1CEFBD-BAB1-4C2A-A598-30E93F9A29F6";
shapes = (
{
closed = 1;
nodes = (
(186,0,l),
(310,452,l),
(324,514,l),
(542,1302,l),
(612,1302,l),
(612,1474,l),
(430,1474,l),
(8,0,l)
);
},
{
closed = 1;
nodes = (
(686,386,l),
(686,550,l),
(244,550,l),
(244,386,l)
);
},
{
closed = 1;
nodes = (
(1120,0,l),
(1120,164,l),
(762,164,l),
(722,1310,l),
(1120,1310,l),
(1120,1474,l),
(554,1474,l),
(586,522,l),
(586,484,l),
(604,0,l)
);
},
{
closed = 1;
nodes = (
(1078,668,l),
(1078,832,l),
(716,832,l),
(726,668,l)
);
}
);
width = 1152;
}
);
unicode = 198;
},
{
color = 6;
glyphname = B;
lastChange = "2023-11-23 10:09:39 +0000";
layers = (
{
anchors = (
{
name = bottom;
pos = (564,0);
},
{
name = center;
pos = (200,422);
},
{
name = top;
pos = (558,1474);
}
);
layerId = "AB099EFE-E788-4EFC-8633-CF147CB782A6";
shapes = (
{
closed = 1;
nodes = (
(584,0,ls),
(842,0,o),
(1012,156,o),
(1012,394,cs),
(1012,590,o),
(896,738,o),
(704,774,c),
(704,762,l),
(832,824,o),
(906,954,o),
(906,1098,cs),
(906,1324,o),
(754,1474,o),
(546,1474,cs),
(186,1474,l),
(186,1414,l),
(546,1414,ls),
(714,1414,o),
(842,1290,o),
(842,1098,cs),
(842,914,o),
(710,786,o),
(544,786,cs),
(186,786,l),
(186,726,l),
(584,726,ls),
(804,726,o),
(948,598,o),
(948,394,cs),
(948,188,o),
(806,60,o),
(584,60,cs),
(220,60,l),
(220,0,l)
);
},
{
closed = 1;
nodes = (
(236,0,l),
(236,1474,l),
(172,1474,l),
(172,0,l)
);
}
);
width = 1152;
},
{
anchors = (
{
name = bottom;
pos = (610,0);
},
{
name = center;
pos = (246,462);
},
{
name = top;
pos = (538,1474);
}
);
layerId = "2D8F7115-C311-411E-929D-56333CF7FFB2";
shapes = (
{
closed = 1;
nodes = (
(686,0,ls),
(928,0,o),
(1112,176,o),
(1112,434,cs),
(1112,674,o),
(946,778,o),
(786,806,c),
(786,716,l),
(906,766,o),
(1018,922,o),
(1018,1098,cs),
(1018,1312,o),
(858,1474,o),
(566,1474,cs),
(398,1474,l),
(398,1154,l),
(578,1154,ls),
(637,1154,o),
(678,1099,o),
(678,1020,cs),
(678,937,o),
(637,880,o),
(578,880,cs),
(398,880,l),
(398,610,l),
(644,610,ls),
(714,610,o),
(762,554,o),
(762,472,cs),
(762,382,o),
(714,320,o),
(644,320,cs),
(394,320,l),
(394,0,l)
);
},
{
closed = 1;
nodes = (
(424,0,l),
(424,1474,l),
(68,1474,l),
(68,0,l)
);
}
);
width = 1152;
},
{
anchors = (
{
name = bottom;
pos = (580,0);
},
{
name = center;
pos = (216,426);
},
{
name = top;
pos = (566,1474);
}
);
hints = (
{
horizontal = 1;
origin = (0,22);
settings = {
deltaV = {
"{100, 370, 0, 0, 0, 0}" = {
"12" = -1;
};
};
};
type = TTDelta;
},
{
horizontal = 1;
origin = (0,23);
settings = {
deltaV = {
"{100, 370, 0, 0, 0, 0}" = {
"12" = -1;
};
};
};
type = TTDelta;
},
{
horizontal = 1;
origin = (0,24);
settings = {
deltaV = {
"{100, 370, 0, 0, 0, 0}" = {
"12" = -1;
};
};
};
type = TTDelta;
},
{
horizontal = 1;
origin = (0,25);
settings = {
deltaV = {
"{100, 370, 0, 0, 0, 0}" = {
"12" = -1;
};
};
};
type = TTDelta;
},
{
horizontal = 1;
origin = (0,23,1,1);
settings = {
deltaV = {
"{100, 370, 0, 0, 0, 0}" = {
"12" = -1;
};
};
};
type = TTDelta;
},
{
horizontal = 1;
origin = (0,25,1,1);
settings = {
deltaV = {
"{100, 370, 0, 0, 0, 0}" = {
"12" = -1;
};
};
};
type = TTDelta;
}
);
layerId = "FD1CEFBD-BAB1-4C2A-A598-30E93F9A29F6";
shapes = (
{
closed = 1;
nodes = (
(614,0,ls),
(874,0,o),
(1048,168,o),
(1048,406,cs),
(1048,608,o),
(928,746,o),
(740,794,c),
(738,750,l),
(854,794,o),
(950,938,o),
(950,1102,cs),
(950,1320,o),
(786,1474,o),
(530,1474,cs),
(268,1474,l),
(268,1310,l),
(536,1310,ls),
(678,1310,o),
(776,1230,o),
(776,1078,cs),
(776,934,o),
(680,830,o),
(546,830,cs),
(268,830,l),
(268,670,l),
(600,670,ls),
(762,670,o),
(870,578,o),
(870,418,cs),
(870,258,o),
(768,164,o),
(616,164,cs),
(288,164,l),
(288,0,l)
);
},
{
closed = 1;
nodes = (
(304,0,l),
(304,1474,l),
(128,1474,l),
(128,0,l)
);
}
);
width = 1152;
}
);
unicode = 66;
},
{
color = 6;
glyphname = C;
lastChange = "2023-11-23 10:09:39 +0000";
layers = (
{
anchors = (
{
name = base;
pos = (718,0);
},
{
name = bottom;
pos = (686,0);
},
{
name = cedilla;
pos = (688,0);
},
{
name = top;
pos = (686,1474);
}
);
guides = (
{
angle = 67.5;
pos = (492,360);
},
{
angle = 112.5;
pos = (496,360);
}
);
layerId = "AB099EFE-E788-4EFC-8633-CF147CB782A6";
shapes = (
{
closed = 1;
nodes = (
(822,-16,o),
(975,54,o),
(1064,156,c),
(1036,220,l),
(966,116,o),
(824,44,o),
(688,44,cs),
(382,44,o),
(172,326,o),
(172,736,cs),
(172,1147,o),
(385,1430,o),
(696,1430,cs),
(822,1430,o),
(959,1366,o),
(1032,1272,c),
(1060,1336,l),
(971,1427,o),
(822,1490,o),
(694,1490,cs),
(347,1490,o),
(108,1184,o),
(108,738,cs),
(108,291,o),
(343,-16,o),
(686,-16,cs)
);
}
);
width = 1152;
},
{
anchors = (
{
name = base;
pos = (712,0);
},
{
name = bottom;
pos = (706,0);
},
{
name = cedilla;
pos = (730,0);
},
{
name = top;
pos = (696,1474);
}
);
layerId = "2D8F7115-C311-411E-929D-56333CF7FFB2";
shapes = (
{
closed = 1;
nodes = (
(857,-16,o),
(1001,29,o),
(1096,94,c),
(960,422,l),
(916,362,o),
(826,320,o),
(740,320,cs),
(542,320,o),
(412,491,o),
(412,740,cs),
(412,985,o),
(536,1154,o),
(726,1154,cs),
(815,1154,o),
(909,1109,o),
(956,1044,c),
(1092,1372,l),
(990,1442,o),
(840,1490,o),
(724,1490,cs),
(322,1490,o),
(52,1185,o),
(52,740,cs),
(52,292,o),
(329,-16,o),
(742,-16,cs)
);
}
);
width = 1152;
},
{
anchors = (
{
name = base;
pos = (718,0);
},
{
name = bottom;
pos = (696,0);
},
{
name = cedilla;
pos = (708,0);
},
{
name = top;
pos = (694,1474);
}
);
layerId = "FD1CEFBD-BAB1-4C2A-A598-30E93F9A29F6";
shapes = (
{
closed = 1;
nodes = (
(838,-16,o),
(988,46,o),
(1084,136,c),
(1018,294,l),
(954,208,o),
(830,148,o),
(714,148,cs),
(448,148,o),
(272,390,o),
(272,742,cs),
(272,1088,o),
(446,1326,o),
(712,1326,cs),
(832,1326,o),
(954,1266,o),
(1014,1192,c),
(1080,1352,l),
(986,1434,o),
(832,1490,o),
(710,1490,cs),
(340,1490,o),
(92,1184,o),
(92,738,cs),
(92,290,o),
(340,-16,o),
(710,-16,cs)
);
}
);
width = 1152;
}
);
unicode = 67;
},
{
color = 6;
glyphname = D;
lastChange = "2023-11-23 10:09:39 +0000";
layers = (
{
anchors = (
{
name = bottom;
pos = (570,0);
},
{
name = center;
pos = (192,758);
},
{
name = top;
pos = (566,1474);
}
);
layerId = "AB099EFE-E788-4EFC-8633-CF147CB782A6";
shapes = (
{
closed = 1;
nodes = (
(512,0,ls),
(831,0,o),
(1076,306,o),
(1076,752,cs),
(1076,1180,o),
(832,1474,o),
(514,1474,cs),
(160,1474,l),
(160,0,l)
);
},
{
closed = 1;
nodes = (
(224,1414,l),
(508,1414,ls),
(793,1414,o),
(1012,1144,o),
(1012,752,cs),
(1012,342,o),
(793,60,o),
(508,60,cs),
(224,60,l)
);
}
);
width = 1152;
},
{
anchors = (
{
name = bottom;
pos = (548,0);
},
{
name = center;
pos = (266,738);
},
{
name = top;
pos = (552,1474);
}
);
layerId = "2D8F7115-C311-411E-929D-56333CF7FFB2";
shapes = (
{
closed = 1;
nodes = (
(502,0,ls),
(874,0,o),
(1092,304,o),
(1092,746,cs),
(1092,1178,o),
(862,1474,o),
(474,1474,cs),
(64,1474,l),
(64,0,l)
);
},
{
closed = 1;
nodes = (
(412,1146,l),
(516,1146,ls),
(674,1146,o),
(744,983,o),
(744,746,cs),
(744,498,o),
(673,328,o),
(516,328,cs),
(412,328,l)
);
}
);
width = 1152;
},
{
anchors = (
{
name = bottom;
pos = (558,0);
},
{
name = center;
pos = (218,750);
},
{
name = top;
pos = (558,1474);
}
);
layerId = "FD1CEFBD-BAB1-4C2A-A598-30E93F9A29F6";
shapes = (
{
closed = 1;
nodes = (
(508,0,ls),
(842,0,o),
(1084,305,o),
(1084,750,cs),
(1084,1180,o),
(838,1474,o),
(496,1474,cs),
(124,1474,l),
(124,0,l)
);
},
{
closed = 1;
nodes = (
(304,1310,l),
(512,1310,ls),
(738,1310,o),
(904,1083,o),
(904,750,cs),
(904,403,o),
(737,164,o),
(512,164,cs),
(304,164,l)
);
}
);
width = 1152;
}
);
metricLeft = H;
unicode = 68;
},
{
color = 6;
glyphname = DZcaron;
kernLeft = LAT_H_UC;
kernRight = LAT_Z_UC;
lastChange = "2023-11-23 10:09:39 +0000";
layers = (
{
layerId = "AB099EFE-E788-4EFC-8633-CF147CB782A6";
shapes = (
{
closed = 1;
nodes = (
(262,0,ls),
(460,0,o),
(594,274,o),
(594,752,cs),
(594,1211,o),
(460,1474,o),
(260,1474,cs),
(96,1474,l),
(96,0,l)
);
},
{
closed = 1;
nodes = (
(160,1414,l),
(248,1414,ls),
(415,1414,o),
(530,1173,o),
(530,752,cs),
(530,312,o),
(415,60,o),
(248,60,cs),
(160,60,l)
);
},
{
closed = 1;
nodes = (
(1088,0,l),
(1088,60,l),
(706,60,l),
(706,64,l),
(1084,1438,l),
(1084,1474,l),
(654,1474,l),
(654,1414,l),
(1014,1414,l),
(1014,1410,l),
(634,36,l),
(634,0,l)
);
},
{
closed = 1;
nodes = (
(906,1540,l),
(1092,1750,l),
(1048,1788,l),
(894,1602,l),
(888,1602,l),
(732,1788,l),
(692,1750,l),
(876,1540,l)
);
}
);
width = 1152;
},
{
layerId = "2D8F7115-C311-411E-929D-56333CF7FFB2";
shapes = (
{
closed = 1;
nodes = (
(294,0,ls),
(506,0,o),
(628,272,o),
(628,746,cs),
(628,1209,o),
(495,1474,o),
(264,1474,cs),
(38,1474,l),
(38,0,l)
);
},
{
closed = 1;
nodes = (
(286,1146,l),
(310,1146,ls),
(353,1146,o),
(378,1000,o),
(378,746,cs),
(378,480,o),
(353,328,o),
(310,328,cs),
(286,328,l)
);
},
{
closed = 1;
nodes = (
(1128,0,l),
(1128,324,l),
(906,324,l),
(906,328,l),
(1136,1422,l),
(1136,1474,l),
(628,1474,l),
(628,1150,l),
(818,1150,l),
(818,1146,l),
(594,50,l),
(594,0,l)
);
},
{
closed = 1;
nodes = (
(876,1544,l),
(1122,1798,l),
(984,1958,l),
(848,1774,l),
(850,1774,l),
(728,1958,l),
(580,1798,l),
(824,1544,l)
);
}
);
width = 1152;
},
{
layerId = "FD1CEFBD-BAB1-4C2A-A598-30E93F9A29F6";
shapes = (
{
closed = 1;
nodes = (
(276,0,ls),
(478,0,o),
(600,276,o),
(600,750,cs),
(600,1208,o),
(474,1474,o),
(260,1474,cs),
(68,1474,l),
(68,0,l)
);
},
{
closed = 1;
nodes = (
(216,1324,l),
(266,1324,ls),
(378,1324,o),
(452,1106,o),
(452,748,cs),
(452,372,o),
(378,150,o),
(266,150,cs),
(216,150,l)
);
},
{
closed = 1;
nodes = (
(1090,0,l),
(1090,150,l),
(792,150,l),
(792,154,l),
(1100,1424,l),
(1100,1474,l),
(642,1474,l),
(642,1324,l),
(924,1324,l),
(924,1320,l),
(612,42,l),
(612,0,l)
);
},
{
closed = 1;
nodes = (
(888,1542,l),
(1098,1770,l),
(1012,1848,l),
(872,1680,l),
(866,1680,l),
(726,1848,l),
(640,1770,l),
(850,1542,l)
);
}
);
width = 1152;
}
);
unicode = 452;
},
{
color = 6;
glyphname = Dzcaron;
kernLeft = LAT_D_UC;
kernRight = LAT_Z_LC;
lastChange = "2023-11-23 10:09:39 +0000";
layers = (
{
layerId = "AB099EFE-E788-4EFC-8633-CF147CB782A6";
shapes = (
{
closed = 1;
nodes = (
(262,0,ls),
(460,0,o),
(594,274,o),
(594,752,cs),
(594,1211,o),
(460,1474,o),
(260,1474,cs),
(96,1474,l),
(96,0,l)
);
},
{
closed = 1;
nodes = (
(160,1414,l),
(248,1414,ls),
(415,1414,o),
(530,1173,o),
(530,752,cs),
(530,312,o),
(415,60,o),
(248,60,cs),
(160,60,l)
);
},
{
closed = 1;
nodes = (
(1088,0,l),
(1088,56,l),
(706,56,l),
(706,60,l),
(1078,1014,l),
(1078,1048,l),
(654,1048,l),
(654,992,l),
(1012,992,l),
(1012,988,l),
(638,30,l),
(638,0,l)
);
},
{
closed = 1;
nodes = (
(886,1264,l),
(1088,1474,l),
(1048,1512,l),
(874,1326,l),
(868,1326,l),
(692,1512,l),
(656,1474,l),
(856,1264,l)
);
}
);
width = 1152;
},
{
layerId = "2D8F7115-C311-411E-929D-56333CF7FFB2";
shapes = (
{
closed = 1;
nodes = (
(294,0,ls),
(506,0,o),
(628,272,o),
(628,746,cs),
(628,1209,o),
(495,1474,o),
(264,1474,cs),
(38,1474,l),
(38,0,l)
);
},
{
closed = 1;
nodes = (
(286,1146,l),
(310,1146,ls),
(353,1146,o),
(378,1000,o),
(378,746,cs),
(378,480,o),
(353,328,o),
(310,328,cs),
(286,328,l)
);
},
{
closed = 1;
nodes = (
(1114,0,l),
(1114,240,l),
(892,240,l),
(892,246,l),
(1122,1028,l),
(1122,1080,l),
(660,1080,l),
(660,840,l),
(840,840,l),
(840,834,l),
(608,52,l),
(608,0,l)
);
},
{
closed = 1;
nodes = (
(900,1142,l),
(1144,1406,l),
(1032,1556,l),
(876,1362,l),
(872,1362,l),
(716,1556,l),
(604,1406,l),
(848,1142,l)
);
}
);
width = 1152;
},
{
layerId = "FD1CEFBD-BAB1-4C2A-A598-30E93F9A29F6";
shapes = (
{
closed = 1;
nodes = (
(276,0,ls),
(478,0,o),
(600,276,o),
(600,750,cs),
(600,1208,o),
(474,1474,o),
(260,1474,cs),
(68,1474,l),
(68,0,l)
);
},
{
closed = 1;
nodes = (
(216,1324,l),
(266,1324,ls),
(378,1324,o),
(452,1100,o),
(452,742,cs),
(452,366,o),
(378,150,o),
(266,150,cs),
(216,150,l)
);
},
{
closed = 1;
nodes = (
(1090,0,l),
(1090,142,l),
(792,142,l),
(792,146,l),
(1102,1008,l),
(1102,1058,l),
(660,1058,l),
(660,916,l),
(926,916,l),
(926,912,l),
(614,42,l),
(614,0,l)
);
},
{
closed = 1;
nodes = (
(886,1244,l),
(1110,1472,l),
(1040,1550,l),
(868,1368,l),
(864,1368,l),
(692,1550,l),
(622,1472,l),
(846,1244,l)
);
}
);
width = 1152;
}
);
unicode = 453;
},
{
color = 6;
glyphname = E;
lastChange = "2023-11-23 10:09:39 +0000";
layers = (
{
anchors = (
{
name = bottom;
pos = (620,0);
},
{
name = cedilla;
pos = (610,0);
},
{
name = ogonek;
pos = (988,0);
},
{
name = top;
pos = (610,1474);
},
{
name = topleft;
pos = (68,1474);
}
);
hints = (
{
horizontal = 1;
options = 4;
origin = (0,11);
target = (0,2);
type = TTStem;
},
{
horizontal = 1;
options = 1;
origin = (0,3);
target = (0,6);
type = TTStem;
},
{
horizontal = 1;
options = 4;
origin = (0,10);
target = (0,7);
type = TTStem;
},
{
horizontal = 1;
options = 1;
origin = (0,4);
type = TTSnap;
},
{
horizontal = 1;
options = 1;
origin = (0,3);
type = TTSnap;
},
{
horizontal = 1;
options = 1;
origin = (0,4);
type = TTSnap;
},
{
horizontal = 1;
options = 1;
origin = (0,5);
type = TTSnap;
},
{
horizontal = 1;
options = 1;
origin = (0,6);
type = TTSnap;
}
);
layerId = "AB099EFE-E788-4EFC-8633-CF147CB782A6";
shapes = (
{
closed = 1;
nodes = (
(988,0,l),
(988,60,l),
(294,60,l),
(294,726,l),
(890,726,l),
(890,786,l),
(294,786,l),
(294,1414,l),
(988,1414,l),
(988,1474,l),
(230,1474,l),
(230,0,l)
);
}
);
width = 1152;
},
{
anchors = (
{
name = bottom;
pos = (616,0);
},
{
name = cedilla;
pos = (612,0);
},
{
name = ogonek;
pos = (1042,0);
},
{
name = top;
pos = (612,1474);
},
{
name = topleft;
pos = (48,1474);
}
);
hints = (
{
horizontal = 1;
options = 4;
origin = (0,11);
target = (0,2);
type = TTStem;
},
{
horizontal = 1;
options = 1;
origin = (0,3);
target = (0,6);
type = TTStem;
},
{
horizontal = 1;
options = 4;
origin = (0,10);
target = (0,7);
type = TTStem;
},
{
horizontal = 1;
options = 1;
origin = (0,4);
type = TTSnap;
},
{
horizontal = 1;
options = 1;
origin = (0,3);
type = TTSnap;
},
{
horizontal = 1;
options = 1;
origin = (0,4);
type = TTSnap;
},
{
horizontal = 1;
options = 1;
origin = (0,5);
type = TTSnap;
},
{
horizontal = 1;
options = 1;
origin = (0,6);
type = TTSnap;
}
);
layerId = "2D8F7115-C311-411E-929D-56333CF7FFB2";
shapes = (
{
closed = 1;
nodes = (
(1046,0,l),
(1046,328,l),
(522,328,l),
(522,586,l),
(956,586,l),
(956,902,l),
(522,902,l),
(522,1146,l),
(1046,1146,l),
(1046,1474,l),
(154,1474,l),
(154,0,l)
);
}
);
width = 1152;
},
{
anchors = (
{
name = bottom;
pos = (618,0);
},
{
name = cedilla;
pos = (608,0);
},
{
name = ogonek;
pos = (1006,0);
},
{
name = top;
pos = (608,1474);
},
{
name = topleft;
pos = (54,1474);
}
);
hints = (
{
horizontal = 1;
options = 4;
origin = (0,11);
target = (0,2);
type = TTStem;
},
{
horizontal = 1;
options = 1;
origin = (0,3);
target = (0,6);
type = TTStem;
},
{
horizontal = 1;
options = 4;
origin = (0,10);
target = (0,7);
type = TTStem;
},
{
horizontal = 1;
options = 1;
origin = (0,4);
type = TTSnap;
},
{
horizontal = 1;
options = 1;
origin = (0,3);
type = TTSnap;
},
{
horizontal = 1;
options = 1;
origin = (0,4);
type = TTSnap;
},
{
horizontal = 1;
options = 1;
origin = (0,5);
type = TTSnap;
},
{
horizontal = 1;
options = 1;
origin = (0,6);
type = TTSnap;
}
);
layerId = "FD1CEFBD-BAB1-4C2A-A598-30E93F9A29F6";
shapes = (
{
closed = 1;
nodes = (
(1008,0,l),
(1008,164,l),
(376,164,l),
(376,668,l),
(910,668,l),
(910,832,l),
(376,832,l),
(376,1310,l),
(1008,1310,l),
(1008,1474,l),
(196,1474,l),
(196,0,l)
);
}
);
width = 1152;
}
);
unicode = 69;
},
{
color = 6;
glyphname = Schwa;
lastChange = "2023-11-23 10:09:39 +0000";
layers = (
{
anchors = (
{
name = bottom;
pos = (560,0);
},
{
name = top;
pos = (564,1474);
}
);
layerId = "AB099EFE-E788-4EFC-8633-CF147CB782A6";
shapes = (
{
closed = 1;
nodes = (
(842,-16,o),
(1068,312,o),
(1068,742,cs),
(1068,1168,o),
(846,1490,o),
(542,1490,cs),
(408,1490,o),
(264,1428,o),
(174,1336,c),
(202,1272,l),
(270,1360,o),
(402,1430,o),
(532,1430,cs),
(806,1430,o),
(1006,1124,o),
(1006,736,cs),
(1006,332,o),
(798,44,o),
(542,44,cs),
(282,44,o),
(148,344,o),
(148,698,c),
(1038,698,l),
(1038,758,l),
(84,758,l),
(84,704,ls),
(84,278,o),
(258,-16,o),
(542,-16,cs)
);
}
);
width = 1152;
},
{
anchors = (
{
name = bottom;
pos = (536,0);
},
{
name = top;
pos = (540,1474);
}
);
layerId = "2D8F7115-C311-411E-929D-56333CF7FFB2";
shapes = (
{
closed = 1;
nodes = (
(906,-16,o),
(1100,312,o),
(1100,718,cs),
(1100,1188,o),
(840,1490,o),
(508,1490,cs),
(370,1490,o),
(230,1438,o),
(132,1372,c),
(268,1044,l),
(314,1108,o),
(428,1156,o),
(514,1156,cs),
(666,1156,o),
(746,1008,o),
(746,712,cs),
(746,530,o),
(714,312,o),
(560,312,cs),
(454,312,o),
(372,416,o),
(374,562,c),
(794,562,l),
(794,866,l),
(52,866,l),
(52,638,ls),
(52,248,o),
(252,-16,o),
(560,-16,cs)
);
}
);
width = 1152;
},
{
anchors = (
{
name = bottom;
pos = (570,0);
},
{
name = top;
pos = (580,1474);
}
);
layerId = "FD1CEFBD-BAB1-4C2A-A598-30E93F9A29F6";
shapes = (
{
closed = 1;
nodes = (
(878,-16,o),
(1084,298,o),
(1084,724,cs),
(1084,1142,o),
(888,1490,o),
(538,1490,cs),
(404,1490,o),
(266,1438,o),
(164,1352,c),
(230,1192,l),
(290,1266,o),
(412,1326,o),
(534,1326,cs),
(782,1326,o),
(904,1078,o),
(904,738,cs),
(904,394,o),
(778,148,o),
(570,148,cs),
(370,148,o),
(254,376,o),
(254,638,c),
(974,638,l),
(974,802,l),
(84,802,l),
(84,672,ls),
(84,286,o),
(268,-16,o),
(570,-16,cs)
);
}
);
width = 1152;
}
);
unicode = 399;
},
{
color = 6;
glyphname = F;
lastChange = "2023-11-23 10:09:39 +0000";
layers = (
{
anchors = (
{
name = bottom;
pos = (286,0);
},
{
name = center;
pos = (286,376);
},
{
name = top;
pos = (682,1474);
}
);
layerId = "AB099EFE-E788-4EFC-8633-CF147CB782A6";
shapes = (
{
closed = 1;
nodes = (
(318,0,l),
(318,726,l),
(952,726,l),
(952,786,l),
(318,786,l),
(318,1414,l),
(1036,1414,l),
(1036,1474,l),
(254,1474,l),
(254,0,l)
);
}
);
width = 1152;
},
{
anchors = (
{
name = bottom;
pos = (360,0);
},
{
name = center;
pos = (360,290);
},
{
name = top;
pos = (688,1474);
}
);
layerId = "2D8F7115-C311-411E-929D-56333CF7FFB2";
shapes = (
{
closed = 1;
nodes = (
(534,0,l),
(534,524,l),
(986,524,l),
(986,852,l),
(534,852,l),
(534,1146,l),
(1078,1146,l),
(1078,1474,l),
(166,1474,l),
(166,0,l)
);
}
);
width = 1152;
},
{
anchors = (
{
name = bottom;
pos = (312,0);
},
{
name = center;
pos = (312,344);
},
{
name = top;
pos = (684,1474);
}
);
layerId = "FD1CEFBD-BAB1-4C2A-A598-30E93F9A29F6";
shapes = (
{
closed = 1;
nodes = (
(400,0,l),
(400,646,l),
(968,646,l),
(968,810,l),
(400,810,l),
(400,1310,l),
(1058,1310,l),
(1058,1474,l),
(220,1474,l),
(220,0,l)
);
}
);
width = 1152;
}
);
unicode = 70;
},
{
color = 6;
glyphname = G;
lastChange = "2023-11-23 10:09:39 +0000";
layers = (
{
anchors = (
{
name = bottom;
pos = (642,0);
},
{
name = hook;
pos = (1038,1336);
},
{
name = top;
pos = (640,1474);
}
);
layerId = "AB099EFE-E788-4EFC-8633-CF147CB782A6";
shapes = (
{
closed = 1;
nodes = (
(820,-16,o),
(974,70,o),
(1044,196,c),
(1044,758,l),
(574,758,l),
(574,698,l),
(980,698,l),
(980,202,l),
(994,242,l),
(945,127,o),
(812,44,o),
(668,44,cs),
(362,44,o),
(152,326,o),
(152,736,cs),
(152,1147,o),
(365,1430,o),
(676,1430,cs),
(802,1430,o),
(939,1366,o),
(1012,1272,c),
(1040,1336,l),
(951,1427,o),
(802,1490,o),
(674,1490,cs),
(327,1490,o),
(88,1184,o),
(88,738,cs),
(88,291,o),
(323,-16,o),
(666,-16,cs)
);
}
);
width = 1152;
},
{
anchors = (
{
name = bottom;
pos = (644,0);
},
{
name = hook;
pos = (1088,1372);
},
{
name = top;
pos = (648,1474);
}
);
layerId = "2D8F7115-C311-411E-929D-56333CF7FFB2";
shapes = (
{
closed = 1;
nodes = (
(842,-16,o),
(990,46,o),
(1092,146,c),
(1092,872,l),
(600,872,l),
(600,572,l),
(772,572,l),
(772,272,l),
(828,364,l),
(796,338,o),
(744,320,o),
(680,320,cs),
(478,320,o),
(388,500,o),
(388,726,cs),
(388,992,o),
(514,1154,o),
(696,1154,cs),
(794,1154,o),
(906,1108,o),
(952,1044,c),
(1088,1372,l),
(976,1446,o),
(844,1490,o),
(702,1490,cs),
(328,1490,o),
(48,1190,o),
(48,730,cs),
(48,298,o),
(294,-16,o),
(674,-16,cs)
);
}
);
width = 1152;
},
{
anchors = (
{
name = bottom;
pos = (626,0);
},
{
name = hook;
pos = (1054,1352);
},
{
name = top;
pos = (620,1474);
}
);
background = {
shapes = (
{
ref = O;
}
);
};
layerId = "FD1CEFBD-BAB1-4C2A-A598-30E93F9A29F6";
shapes = (
{
closed = 1;
nodes = (
(814,-16,o),
(970,60,o),
(1056,176,c),
(1056,802,l),
(574,802,l),
(574,638,l),
(876,638,l),
(876,218,l),
(898,266,l),
(852,202,o),
(778,148,o),
(660,148,cs),
(412,148,o),
(244,388,o),
(244,734,cs),
(244,1090,o),
(420,1326,o),
(680,1326,cs),
(812,1326,o),
(926,1264,o),
(986,1192,c),
(1052,1352,l),
(950,1438,o),
(810,1490,o),
(666,1490,cs),
(320,1490,o),
(64,1188,o),
(64,730,cs),
(64,290,o),
(302,-16,o),
(644,-16,cs)
);
}
);
width = 1152;
}
);
unicode = 71;
},
{
color = 6;
glyphname = H;
lastChange = "2023-11-23 10:09:39 +0000";
layers = (
{
anchors = (
{
name = bottom;
pos = (572,0);
},
{
name = center;
pos = (572,1086);
},
{
name = top;
pos = (572,1474);
}
);
layerId = "AB099EFE-E788-4EFC-8633-CF147CB782A6";
shapes = (
{
closed = 1;
nodes = (
(224,0,l),
(224,726,l),
(928,726,l),
(928,0,l),
(992,0,l),
(992,1474,l),
(928,1474,l),
(928,786,l),
(224,786,l),
(224,1474,l),
(160,1474,l),
(160,0,l)
);
}
);
width = 1152;
},
{
anchors = (
{
name = bottom;
pos = (576,0);
},
{
name = center;
pos = (576,1184);
},
{
name = top;
pos = (576,1474);
}
);
layerId = "2D8F7115-C311-411E-929D-56333CF7FFB2";
shapes = (
{
closed = 1;
nodes = (
(424,0,l),
(424,578,l),
(728,578,l),
(728,0,l),
(1088,0,l),
(1088,1474,l),
(728,1474,l),
(728,906,l),
(424,906,l),
(424,1474,l),
(64,1474,l),
(64,0,l)
);
}
);
width = 1152;
},
{
anchors = (
{
name = bottom;
pos = (578,0);
},
{
name = center;
pos = (578,1122);
},
{
name = top;
pos = (578,1474);
}
);
layerId = "FD1CEFBD-BAB1-4C2A-A598-30E93F9A29F6";
shapes = (
{
closed = 1;
nodes = (
(304,0,l),
(304,672,l),
(848,672,l),
(848,0,l),
(1028,0,l),
(1028,1474,l),
(848,1474,l),
(848,836,l),
(304,836,l),
(304,1474,l),
(124,1474,l),
(124,0,l)
);
}
);
width = 1152;
}
);
unicode = 72;
},
{
color = 6;
glyphname = I.ss03;
lastChange = "2023-11-23 10:09:39 +0000";
layers = (
{
anchors = (
{
name = bottom;
pos = (570,0);
},
{
name = ogonek;
pos = (968,0);
},
{
name = top;
pos = (570,1474);
}
);
layerId = "AB099EFE-E788-4EFC-8633-CF147CB782A6";
shapes = (
{
closed = 1;
nodes = (
(608,0,l),
(608,1474,l),
(544,1474,l),
(544,0,l)
);
},
{
closed = 1;
nodes = (
(968,0,l),
(968,60,l),
(184,60,l),
(184,0,l)
);
},
{
closed = 1;
nodes = (
(968,1416,l),
(968,1474,l),
(184,1474,l),
(184,1416,l)
);
}
);
width = 1152;
},
{
anchors = (
{
name = bottom;
pos = (576,0);
},
{
name = ogonek;
pos = (1032,0);
},
{
name = top;
pos = (576,1474);
}
);
layerId = "2D8F7115-C311-411E-929D-56333CF7FFB2";
shapes = (
{
closed = 1;
nodes = (
(760,0,l),
(760,1474,l),
(392,1474,l),
(392,0,l)
);
},
{
closed = 1;
nodes = (
(1032,0,l),
(1032,320,l),
(120,320,l),
(120,0,l)
);
},
{
closed = 1;
nodes = (
(1032,1154,l),
(1032,1474,l),
(120,1474,l),
(120,1154,l)
);
}
);
width = 1152;
},
{
anchors = (
{
name = bottom;
pos = (574,0);
},
{
name = ogonek;
pos = (972,0);
},
{
name = top;
pos = (574,1474);
}
);
layerId = "FD1CEFBD-BAB1-4C2A-A598-30E93F9A29F6";
shapes = (
{
closed = 1;
nodes = (
(666,0,l),
(666,1474,l),
(486,1474,l),
(486,0,l)
);
},
{
closed = 1;
nodes = (
(972,0,l),
(972,160,l),
(180,160,l),
(180,0,l)
);
},
{
closed = 1;
nodes = (
(972,1314,l),
(972,1474,l),
(180,1474,l),
(180,1314,l)
);
}
);
width = 1152;
}
);
},
{
color = 6;
glyphname = J;
lastChange = "2023-11-23 10:09:39 +0000";
layers = (
{
anchors = (
{
name = bottom;
pos = (522,0);
},
{
name = top;
pos = (816,1474);
}
);
layerId = "AB099EFE-E788-4EFC-8633-CF147CB782A6";
shapes = (
{
closed = 1;
nodes = (
(688,-16,o),
(866,124,o),
(866,434,cs),
(866,1474,l),
(802,1474,l),
(802,430,ls),
(802,152,o),
(648,44,o),
(468,44,cs),
(278,44,o),
(150,166,o),
(148,346,c),
(86,346,l),
(90,142,o),
(236,-16,o),
(468,-16,cs)
);
}
);
width = 1152;
},
{
anchors = (
{
name = bottom;
pos = (570,0);
},
{
name = top;
pos = (804,1474);
}
);
layerId = "2D8F7115-C311-411E-929D-56333CF7FFB2";
shapes = (
{
closed = 1;
nodes = (
(806,-16,o),
(1000,172,o),
(1000,466,cs),
(1000,1474,l),
(622,1474,l),
(622,462,ls),
(622,374,o),
(574,312,o),
(504,312,cs),
(432,312,o),
(378,382,o),
(378,496,c),
(24,496,l),
(22,196,o),
(206,-16,o),
(512,-16,cs)
);
}
);
width = 1152;
},
{
anchors = (
{
name = bottom;
pos = (530,0);
},
{
name = top;
pos = (818,1474);
}
);
layerId = "FD1CEFBD-BAB1-4C2A-A598-30E93F9A29F6";
shapes = (
{
closed = 1;
nodes = (
(730,-16,o),
(920,138,o),
(920,446,cs),
(920,1474,l),
(738,1474,l),
(738,442,ls),
(738,240,o),
(624,148,o),
(482,148,cs),
(332,148,o),
(240,250,o),
(236,406,c),
(60,406,l),
(64,156,o),
(230,-16,o),
(486,-16,cs)
);
}
);
width = 1152;
}
);
unicode = 74;
},
{
color = 6;
glyphname = K;
lastChange = "2023-11-23 10:09:39 +0000";
layers = (
{
anchors = (
{
name = bottom;
pos = (600,0);
},
{
name = top;
pos = (602,1474);
}
);
layerId = "AB099EFE-E788-4EFC-8633-CF147CB782A6";
shapes = (
{
closed = 1;
nodes = (
(270,0,l),
(270,708,l),
(304,708,l),
(266,734,l),
(982,0,l),
(1072,0,l),
(326,762,l),
(326,716,l),
(1026,1474,l),
(936,1474,l),
(266,742,l),
(304,766,l),
(270,766,l),
(270,1474,l),
(206,1474,l),
(206,0,l)
);
}
);
width = 1152;
},
{
anchors = (
{
name = bottom;
pos = (598,0);
},
{
name = top;
pos = (560,1474);
}
);
guides = (
{
angle = 120;
pos = (650,0);
}
);
layerId = "2D8F7115-C311-411E-929D-56333CF7FFB2";
shapes = (
{
closed = 1;
nodes = (
(430,0,l),
(430,638,l),
(510,638,l),
(400,692,l),
(776,0,l),
(1192,0,l),
(698,848,l),
(698,648,l),
(1184,1474,l),
(766,1474,l),
(400,774,l),
(510,828,l),
(430,828,l),
(430,1474,l),
(80,1474,l),
(80,0,l)
);
}
);
width = 1152;
},
{
anchors = (
{
name = bottom;
pos = (600,0);
},
{
name = top;
pos = (582,1474);
}
);
layerId = "FD1CEFBD-BAB1-4C2A-A598-30E93F9A29F6";
shapes = (
{
closed = 1;
nodes = (
(334,0,l),
(334,684,l),
(386,684,l),
(312,716,l),
(894,0,l),
(1122,0,l),
(480,782,l),
(480,692,l),
(1088,1474,l),
(864,1474,l),
(312,754,l),
(386,790,l),
(334,790,l),
(334,1474,l),
(156,1474,l),
(156,0,l)
);
}
);
width = 1152;
}
);
unicode = 75;
},
{
color = 6;
glyphname = L;
lastChange = "2023-11-23 10:09:39 +0000";
layers = (
{
anchors = (
{
name = bottom;
pos = (678,0);
},
{
name = center;
pos = (292,738);
},
{
name = dot;
pos = (788,738);
},
{
name = top;
pos = (292,1474);
},
{
name = topright;
pos = (862,1474);
}
);
layerId = "AB099EFE-E788-4EFC-8633-CF147CB782A6";
shapes = (
{
closed = 1;
nodes = (
(1040,0,l),
(1040,60,l),
(324,60,l),
(324,1474,l),
(260,1474,l),
(260,0,l)
);
}
);
width = 1152;
},
{
anchors = (
{
name = bottom;
pos = (614,0);
},
{
name = center;
pos = (352,758);
},
{
name = dot;
pos = (850,754);
},
{
name = top;
pos = (352,1474);
},
{
name = topright;
pos = (690,1474);
}
);
layerId = "2D8F7115-C311-411E-929D-56333CF7FFB2";
shapes = (
{
closed = 1;
nodes = (
(1060,0,l),
(1060,328,l),
(536,328,l),
(536,1474,l),
(168,1474,l),
(168,0,l)
);
}
);
width = 1152;
},
{
anchors = (
{
name = bottom;
pos = (652,0);
},
{
name = center;
pos = (310,746);
},
{
name = dot;
pos = (816,746);
},
{
name = top;
pos = (312,1474);
},
{
name = topright;
pos = (784,1474);
}
);
layerId = "FD1CEFBD-BAB1-4C2A-A598-30E93F9A29F6";
shapes = (
{
closed = 1;
nodes = (
(1044,0,l),
(1044,164,l),
(400,164,l),
(400,1474,l),
(220,1474,l),
(220,0,l)
);
}
);
width = 1152;
}
);
unicode = 76;
},
{
color = 6;
glyphname = LJ;
kernLeft = LAT_H_UC;
kernRight = LAT_U_UC;
lastChange = "2023-11-23 10:09:39 +0000";
layers = (
{
layerId = "AB099EFE-E788-4EFC-8633-CF147CB782A6";
shapes = (
{
closed = 1;
nodes = (
(986,-16,o),
(1068,118,o),
(1068,368,cs),
(1068,1474,l),
(1004,1474,l),
(1004,364,ls),
(1004,156,o),
(943,44,o),
(834,44,cs),
(724,44,o),
(664,150,o),
(662,346,c),
(598,346,l),
(600,111,o),
(683,-16,o),
(834,-16,cs)
);
},
{
closed = 1;
nodes = (
(520,0,l),
(520,60,l),
(196,60,l),
(196,1474,l),
(132,1474,l),
(132,0,l)
);
}
);
width = 1152;
},
{
layerId = "2D8F7115-C311-411E-929D-56333CF7FFB2";
shapes = (
{
closed = 1;
nodes = (
(1000,-16,o),
(1100,158,o),
(1100,484,cs),
(1100,1474,l),
(840,1474,l),
(840,480,ls),
(840,310,o),
(824,264,o),
(794,264,cs),
(766,264,o),
(754,310,o),
(756,488,c),
(504,488,l),
(496,176,o),
(574,-16,o),
(792,-16,cs)
);
},
{
closed = 1;
nodes = (
(496,0,l),
(496,280,l),
(336,280,l),
(336,1474,l),
(76,1474,l),
(76,0,l)
);
}
);
width = 1152;
},
{
layerId = "FD1CEFBD-BAB1-4C2A-A598-30E93F9A29F6";
shapes = (
{
closed = 1;
nodes = (
(972,-16,o),
(1062,138,o),
(1062,418,cs),
(1062,1474,l),
(914,1474,l),
(914,414,ls),
(914,232,o),
(876,134,o),
(802,134,cs),
(734,134,o),
(698,226,o),
(698,398,c),
(550,398,l),
(550,130,o),
(638,-16,o),
(804,-16,cs)
);
},
{
closed = 1;
nodes = (
(496,0,l),
(496,150,l),
(238,150,l),
(238,1474,l),
(90,1474,l),
(90,0,l)
);
}
);
width = 1152;
}
);
unicode = 455;
},
{
color = 6;
glyphname = Lj;
kernLeft = LAT_H_UC;
kernRight = LAT_J_LC;
lastChange = "2023-11-23 10:09:39 +0000";
layers = (
{
layerId = "AB099EFE-E788-4EFC-8633-CF147CB782A6";
shapes = (
{
closed = 1;
nodes = (
(850,-436,o),
(956,-348,o),
(956,-164,cs),
(956,1048,l),
(896,1048,l),
(896,-170,ls),
(896,-314,o),
(818,-380,o),
(718,-380,cs),
(650,-380,o),
(566,-350,o),
(508,-304,c),
(484,-360,l),
(538,-404,o),
(634,-436,o),
(714,-436,cs)
);
},
{
closed = 1;
nodes = (
(600,0,l),
(600,60,l),
(236,60,l),
(236,1474,l),
(172,1474,l),
(172,0,l)
);
},
{
closed = 1;
nodes = (
(956,992,l),
(956,1048,l),
(616,1048,l),
(616,992,l)
);
},
{
closed = 1;
nodes = (
(976,1258,o),
(1012,1294,o),
(1012,1344,cs),
(1012,1394,o),
(976,1430,o),
(926,1430,cs),
(876,1430,o),
(840,1394,o),
(840,1344,cs),
(840,1294,o),
(876,1258,o),
(926,1258,cs)
);
}
);
width = 1152;
},
{
layerId = "2D8F7115-C311-411E-929D-56333CF7FFB2";
shapes = (
{
closed = 1;
nodes = (
(934,-436,o),
(1072,-288,o),
(1072,-56,cs),
(1072,1080,l),
(808,1080,l),
(808,-56,ls),
(808,-146,o),
(774,-168,o),
(722,-168,cs),
(662,-168,o),
(601,-140,o),
(544,-100,c),
(460,-352,l),
(534,-404,o),
(639,-436,o),
(726,-436,cs)
);
},
{
closed = 1;
nodes = (
(596,0,l),
(596,280,l),
(356,280,l),
(356,1474,l),
(76,1474,l),
(76,0,l)
);
},
{
closed = 1;
nodes = (
(1072,808,l),
(1072,1080,l),
(588,1080,l),
(588,808,l)
);
},
{
closed = 1;
nodes = (
(1031,1200,o),
(1104,1276,o),
(1104,1386,cs),
(1104,1499,o),
(1031,1576,o),
(924,1576,cs),
(817,1576,o),
(744,1500,o),
(744,1390,cs),
(744,1277,o),
(817,1200,o),
(924,1200,cs)
);
}
);
width = 1152;
},
{
layerId = "FD1CEFBD-BAB1-4C2A-A598-30E93F9A29F6";
shapes = (
{
closed = 1;
nodes = (
(856,-436,o),
(980,-312,o),
(980,-134,cs),
(980,1060,l),
(840,1060,l),
(840,-120,ls),
(840,-220,o),
(776,-290,o),
(684,-290,cs),
(624,-290,o),
(540,-260,o),
(488,-214,c),
(434,-348,l),
(494,-396,o),
(604,-436,o),
(694,-436,cs)
);
},
{
closed = 1;
nodes = (
(592,0,l),
(592,150,l),
(278,150,l),
(278,1474,l),
(130,1474,l),
(130,0,l)
);
},
{
closed = 1;
nodes = (
(980,922,l),
(980,1060,l),
(594,1060,l),
(594,922,l)
);
},
{
closed = 1;
nodes = (
(974,1234,o),
(1024,1288,o),
(1024,1358,cs),
(1024,1430,o),
(972,1482,o),
(902,1482,cs),
(832,1482,o),
(778,1430,o),
(778,1358,cs),
(778,1288,o),
(830,1234,o),
(902,1234,cs)
);
}
);
width = 1152;
}
);
unicode = 456;
},
{
color = 6;
glyphname = M;
lastChange = "2023-11-23 10:09:39 +0000";
layers = (
{
anchors = (
{
name = bottom;
pos = (574,0);
},
{
name = top;
pos = (574,1474);
}
);
layerId = "AB099EFE-E788-4EFC-8633-CF147CB782A6";
shapes = (
{
closed = 1;
nodes = (
(198,0,l),
(198,1110,l),
(198,1312,l),
(206,1312,l),
(558,450,l),
(590,450,l),
(942,1312,l),
(950,1312,l),
(950,1110,l),
(950,0,l),
(1014,0,l),
(1014,1474,l),
(942,1474,l),
(578,578,l),
(570,578,l),
(206,1474,l),
(134,1474,l),
(134,0,l)
);
}
);
width = 1152;
},
{
anchors = (
{
name = bottom;
pos = (576,0);
},
{
name = top;
pos = (576,1474);
}
);
layerId = "2D8F7115-C311-411E-929D-56333CF7FFB2";
shapes = (
{
closed = 1;
nodes = (
(360,0,l),
(360,494,l),
(356,750,l),
(366,750,l),
(534,454,l),
(618,454,l),
(786,750,l),
(796,750,l),
(792,494,l),
(792,0,l),
(1112,0,l),
(1112,1474,l),
(896,1474,l),
(580,944,l),
(572,944,l),
(256,1474,l),
(40,1474,l),
(40,0,l)
);
}
);
width = 1152;
},
{
anchors = (
{
name = bottom;
pos = (576,0);
},
{
name = top;
pos = (576,1474);
}
);
layerId = "FD1CEFBD-BAB1-4C2A-A598-30E93F9A29F6";
shapes = (
{
closed = 1;
nodes = (
(268,0,l),
(268,758,l),
(264,1056,l),
(272,1056,l),
(546,518,l),
(606,518,l),
(880,1056,l),
(888,1056,l),
(884,758,l),
(884,0,l),
(1060,0,l),
(1060,1474,l),
(928,1474,l),
(580,794,l),
(572,794,l),
(224,1474,l),
(92,1474,l),
(92,0,l)
);
}
);
width = 1152;
}
);
unicode = 77;
},
{
color = 6;
glyphname = N;
lastChange = "2023-11-23 10:09:39 +0000";
layers = (
{
anchors = (
{
name = bottom;
pos = (562,0);
},
{
name = leghookright;
pos = (956,0);
},
{
name = top;
pos = (576,1474);
}
);
layerId = "AB099EFE-E788-4EFC-8633-CF147CB782A6";
shapes = (
{
closed = 1;
nodes = (
(224,0,l),
(224,972,l),
(224,1332,l),
(228,1332,l),
(364,1078,l),
(934,0,l),
(992,0,l),
(992,1474,l),
(928,1474,l),
(928,524,l),
(928,148,l),
(924,148,l),
(786,408,l),
(222,1474,l),
(160,1474,l),
(160,0,l)
);
}
);
width = 1152;
},
{
anchors = (
{
name = bottom;
pos = (572,0);
},
{
name = leghookright;
pos = (928,0);
},
{
name = top;
pos = (576,1474);
}
);
layerId = "2D8F7115-C311-411E-929D-56333CF7FFB2";
shapes = (
{
closed = 1;
nodes = (
(402,0,l),
(402,520,l),
(396,848,l),
(402,848,l),
(458,712,l),
(842,0,l),
(1088,0,l),
(1088,1474,l),
(750,1474,l),
(750,954,l),
(760,648,l),
(752,648,l),
(696,778,l),
(308,1474,l),
(64,1474,l),
(64,0,l)
);
}
);
width = 1152;
},
{
anchors = (
{
name = bottom;
pos = (574,0);
},
{
name = leghookright;
pos = (944,0);
},
{
name = top;
pos = (576,1474);
}
);
layerId = "FD1CEFBD-BAB1-4C2A-A598-30E93F9A29F6";
shapes = (
{
closed = 1;
nodes = (
(300,0,l),
(300,778,l),
(296,1060,l),
(304,1060,l),
(402,884,l),
(898,0,l),
(1028,0,l),
(1028,1474,l),
(852,1474,l),
(852,702,l),
(856,420,l),
(848,420,l),
(750,590,l),
(256,1474,l),
(124,1474,l),
(124,0,l)
);
}
);
width = 1152;
}
);
metricLeft = H;
metricRight = H;
unicode = 78;
},
{
color = 6;
glyphname = NJ;
kernLeft = LAT_H_UC;
kernRight = LAT_U_UC;
lastChange = "2023-11-22 11:34:34 +0000";
layers = (
{
layerId = "AB099EFE-E788-4EFC-8633-CF147CB782A6";
shapes = (
{
closed = 1;
nodes = (
(116,0,l),
(116,918,l),
(114,1240,l),
(118,1240,l),
(184,1000,l),
(484,0,l),
(534,0,l),
(534,1474,l),
(470,1474,l),
(470,574,l),
(470,240,l),
(466,240,l),
(400,484,l),
(104,1474,l),
(52,1474,l),
(52,0,l)
);
},
{
closed = 1;
nodes = (
(1006,-16,o),
(1088,118,o),
(1088,368,cs),
(1088,1474,l),
(1024,1474,l),
(1024,364,ls),
(1024,154,o),
(962,44,o),
(862,44,cs),
(764,44,o),
(704,150,o),
(702,346,c),
(638,346,l),
(642,100,o),
(726,-16,o),
(860,-16,cs)
);
}
);
width = 1152;
},
{
layerId = "2D8F7115-C311-411E-929D-56333CF7FFB2";
shapes = (
{
closed = 1;
nodes = (
(248,0,l),
(248,592,l),
(240,754,l),
(242,754,l),
(266,632,l),
(426,0,l),
(584,0,l),
(584,1474,l),
(364,1474,l),
(364,886,l),
(374,728,l),
(368,728,l),
(346,850,l),
(184,1474,l),
(28,1474,l),
(28,0,l)
);
},
{
closed = 1;
nodes = (
(1050,-16,o),
(1132,156,o),
(1132,446,cs),
(1132,1474,l),
(896,1474,l),
(896,442,ls),
(896,308,o),
(902,262,o),
(868,262,cs),
(844,262,o),
(828,286,o),
(832,442,c),
(612,442,l),
(606,156,o),
(696,-16,o),
(870,-16,cs)
);
}
);
width = 1152;
},
{
layerId = "FD1CEFBD-BAB1-4C2A-A598-30E93F9A29F6";
shapes = (
{
closed = 1;
nodes = (
(196,0,l),
(196,778,l),
(188,930,l),
(192,930,l),
(232,780,l),
(460,0,l),
(566,0,l),
(566,1474,l),
(418,1474,l),
(418,704,l),
(428,550,l),
(424,550,l),
(382,700,l),
(156,1474,l),
(48,1474,l),
(48,0,l)
);
},
{
closed = 1;
nodes = (
(1042,-16,o),
(1112,138,o),
(1112,418,cs),
(1112,1474,l),
(964,1474,l),
(964,414,ls),
(964,236,o),
(946,136,o),
(874,136,cs),
(808,136,o),
(774,228,o),
(774,398,c),
(626,398,l),
(624,128,o),
(712,-16,o),
(876,-16,cs)
);
}
);
width = 1152;
}
);
unicode = 458;
},
{
color = 6;
glyphname = Nj;
kernLeft = LAT_H_UC;
kernRight = LAT_J_LC;
lastChange = "2023-11-23 10:09:39 +0000";
layers = (
{
layerId = "AB099EFE-E788-4EFC-8633-CF147CB782A6";
shapes = (
{
closed = 1;
nodes = (
(218,0,l),
(218,940,l),
(216,1284,l),
(220,1284,l),
(312,1018,l),
(660,0,l),
(722,0,l),
(722,1474,l),
(660,1474,l),
(660,554,l),
(660,200,l),
(656,200,l),
(564,466,l),
(220,1474,l),
(156,1474,l),
(156,0,l)
);
},
{
closed = 1;
nodes = (
(898,-436,o),
(1002,-348,o),
(1002,-164,cs),
(1002,1048,l),
(942,1048,l),
(942,-170,ls),
(942,-314,o),
(866,-380,o),
(770,-380,cs),
(706,-380,o),
(624,-350,o),
(568,-304,c),
(544,-360,l),
(596,-404,o),
(692,-436,o),
(768,-436,cs)
);
},
{
closed = 1;
nodes = (
(1020,1258,o),
(1056,1294,o),
(1056,1344,cs),
(1056,1394,o),
(1020,1430,o),
(972,1430,cs),
(924,1430,o),
(888,1394,o),
(888,1344,cs),
(888,1294,o),
(924,1258,o),
(972,1258,cs)
);
}
);
width = 1152;
},
{
layerId = "2D8F7115-C311-411E-929D-56333CF7FFB2";
shapes = (
{
closed = 1;
nodes = (
(310,0,l),
(310,592,l),
(300,754,l),
(302,754,l),
(330,632,l),
(510,0,l),
(690,0,l),
(690,1474,l),
(440,1474,l),
(440,886,l),
(452,728,l),
(446,728,l),
(420,850,l),
(236,1474,l),
(60,1474,l),
(60,0,l)
);
},
{
closed = 1;
nodes = (
(916,-436,o),
(1054,-288,o),
(1054,-56,cs),
(1054,1080,l),
(790,1080,l),
(790,-56,ls),
(790,-146,o),
(756,-168,o),
(704,-168,cs),
(644,-168,o),
(583,-140,o),
(526,-100,c),
(442,-352,l),
(516,-404,o),
(621,-436,o),
(708,-436,cs)
);
},
{
closed = 1;
nodes = (
(1039,1200,o),
(1112,1276,o),
(1112,1386,cs),
(1112,1499,o),
(1039,1576,o),
(932,1576,cs),
(825,1576,o),
(752,1500,o),
(752,1390,cs),
(752,1277,o),
(825,1200,o),
(932,1200,cs)
);
}
);
width = 1152;
},
{
layerId = "FD1CEFBD-BAB1-4C2A-A598-30E93F9A29F6";
shapes = (
{
closed = 1;
nodes = (
(248,0,l),
(248,792,l),
(244,1004,l),
(248,1004,l),
(308,794,l),
(564,0,l),
(680,0,l),
(680,1474,l),
(532,1474,l),
(532,688,l),
(540,472,l),
(536,472,l),
(476,682,l),
(224,1474,l),
(102,1474,l),
(102,0,l)
);
},
{
closed = 1;
nodes = (
(886,-436,o),
(1008,-312,o),
(1008,-134,cs),
(1008,1058,l),
(868,1058,l),
(868,-120,ls),
(868,-220,o),
(806,-292,o),
(718,-292,cs),
(660,-292,o),
(578,-260,o),
(526,-214,c),
(474,-348,l),
(532,-396,o),
(640,-436,o),
(728,-436,cs)
);
},
{
closed = 1;
nodes = (
(1012,1242,o),
(1062,1296,o),
(1062,1366,cs),
(1062,1438,o),
(1010,1490,o),
(942,1490,cs),
(874,1490,o),
(820,1438,o),
(820,1366,cs),
(820,1296,o),
(872,1242,o),
(942,1242,cs)
);
}
);
width = 1152;
}
);
unicode = 459;
},
{
color = 6;
glyphname = Eng;
lastChange = "2023-11-23 10:09:39 +0000";
layers = (
{
anchors = (
{
name = bottom;
pos = (566,0);
},
{
name = leghookright;
pos = (956,0);
},
{
name = top;
pos = (576,1474);
}
);
layerId = "AB099EFE-E788-4EFC-8633-CF147CB782A6";
shapes = (
{
closed = 1;
nodes = (
(224,0,l),
(224,972,l),
(224,1332,l),
(228,1332,l),
(364,1078,l),
(934,0,l),
(992,0,l),
(992,1474,l),
(928,1474,l),
(928,524,l),
(928,148,l),
(924,148,l),
(786,408,l),
(222,1474,l),
(160,1474,l),
(160,0,l)
);
},
{
closed = 1;
nodes = (
(912,-438,o),
(990,-322,o),
(990,-140,cs),
(990,60,l),
(926,60,l),
(926,-152,ls),
(926,-268,o),
(886,-382,o),
(776,-378,cs),
(736,-376,o),
(704,-374,o),
(646,-338,c),
(646,-402,l),
(692,-428,o),
(748,-438,o),
(782,-438,cs)
);
}
);
width = 1152;
},
{
anchors = (
{
name = bottom;
pos = (572,0);
},
{
name = leghookright;
pos = (936,0);
},
{
name = top;
pos = (576,1474);
}
);
layerId = "2D8F7115-C311-411E-929D-56333CF7FFB2";
shapes = (
{
closed = 1;
nodes = (
(402,0,l),
(402,520,l),
(396,848,l),
(402,848,l),
(458,712,l),
(842,0,l),
(1088,0,l),
(1088,1474,l),
(750,1474,l),
(750,954,l),
(760,648,l),
(752,648,l),
(696,778,l),
(308,1474,l),
(64,1474,l),
(64,0,l)
);
},
{
closed = 1;
nodes = (
(968,-446,o),
(1088,-262,o),
(1088,-12,cs),
(1088,226,l),
(760,226,l),
(760,-32,ls),
(760,-92,o),
(724,-140,o),
(676,-140,cs),
(654,-140,o),
(606,-130,o),
(580,-114,c),
(580,-418,l),
(598,-434,o),
(662,-446,o),
(722,-446,cs)
);
}
);
width = 1152;
},
{
anchors = (
{
name = bottom;
pos = (574,0);
},
{
name = leghookright;
pos = (948,0);
},
{
name = top;
pos = (576,1474);
}
);
layerId = "FD1CEFBD-BAB1-4C2A-A598-30E93F9A29F6";
shapes = (
{
closed = 1;
nodes = (
(300,0,l),
(300,778,l),
(296,1060,l),
(304,1060,l),
(402,884,l),
(898,0,l),
(1028,0,l),
(1028,1474,l),
(852,1474,l),
(852,702,l),
(856,420,l),
(848,420,l),
(750,590,l),
(256,1474,l),
(124,1474,l),
(124,0,l)
);
},
{
closed = 1;
nodes = (
(934,-442,o),
(1028,-304,o),
(1028,-94,cs),
(1028,122,l),
(856,122,l),
(856,-106,ls),
(856,-194,o),
(820,-292,o),
(734,-288,cs),
(698,-286,o),
(654,-276,o),
(620,-254,c),
(620,-410,l),
(650,-430,o),
(712,-442,o),
(758,-442,cs)
);
}
);
width = 1152;
}
);
metricLeft = N;
metricRight = N;
unicode = 330;
},
{
color = 6;
glyphname = O;
lastChange = "2023-11-23 10:09:39 +0000";
layers = (
{
anchors = (
{
name = bottom;
pos = (572,0);
},
{
name = center;
pos = (576,738);
},
{
name = horn;
pos = (802,1410);
},
{
name = ogonek;
pos = (668,0);
},
{
name = top;
pos = (572,1474);
},
{
name = topleft;
pos = (44,1474);
},
{
name = topright;
pos = (1106,1474);
}
);
layerId = "AB099EFE-E788-4EFC-8633-CF147CB782A6";
shapes = (
{
closed = 1;
nodes = (
(880,-16,o),
(1076,286,o),
(1076,738,cs),
(1076,1190,o),
(880,1490,o),
(572,1490,cs),
(270,1490,o),
(76,1192,o),
(76,738,cs),
(76,284,o),
(270,-16,o),
(572,-16,cs)
);
},
{
closed = 1;
nodes = (
(308,44,o),
(140,322,o),
(140,738,cs),
(140,1152,o),
(308,1430,o),
(572,1430,cs),
(840,1430,o),
(1012,1154,o),
(1012,738,cs),
(1012,322,o),
(840,44,o),
(572,44,cs)
);
}
);
width = 1152;
},
{
anchors = (
{
name = bottom;
pos = (578,0);
},
{
name = center;
pos = (576,738);
},
{
name = horn;
pos = (782,1426);
},
{
name = ogonek;
pos = (684,0);
},
{
name = top;
pos = (578,1474);
},
{
name = topleft;
pos = (24,1474);
},
{
name = topright;
pos = (1136,1474);
}
);
layerId = "2D8F7115-C311-411E-929D-56333CF7FFB2";
shapes = (
{
closed = 1;
nodes = (
(914,-16,o),
(1100,250,o),
(1100,738,cs),
(1100,1226,o),
(910,1490,o),
(576,1490,cs),
(234,1490,o),
(52,1228,o),
(52,738,cs),
(52,248,o),
(238,-16,o),
(576,-16,cs)
);
},
{
closed = 1;
nodes = (
(460,320,o),
(392,466,o),
(392,738,cs),
(392,1010,o),
(456,1154,o),
(576,1154,cs),
(694,1154,o),
(760,1010,o),
(760,738,cs),
(760,466,o),
(698,320,o),
(576,320,cs)
);
}
);
width = 1152;
},
{
anchors = (
{
name = bottom;
pos = (574,0);
},
{
name = center;
pos = (576,738);
},
{
name = horn;
pos = (788,1422);
},
{
name = ogonek;
pos = (674,0);
},
{
name = top;
pos = (574,1474);
},
{
name = topleft;
pos = (38,1470);
},
{
name = topright;
pos = (1112,1470);
}
);
layerId = "FD1CEFBD-BAB1-4C2A-A598-30E93F9A29F6";
shapes = (
{
closed = 1;
nodes = (
(890,-16,o),
(1084,274,o),
(1084,738,cs),
(1084,1200,o),
(890,1490,o),
(574,1490,cs),
(260,1490,o),
(68,1200,o),
(68,738,cs),
(68,274,o),
(260,-16,o),
(574,-16,cs)
);
},
{
closed = 1;
nodes = (
(368,148,o),
(248,378,o),
(248,738,cs),
(248,1096,o),
(368,1326,o),
(574,1326,cs),
(780,1326,o),
(902,1108,o),
(904,738,cs),
(906,370,o),
(786,148,o),
(574,148,cs)
);
}
);
width = 1152;
}
);
unicode = 79;
},
{
color = 6;
glyphname = OE;
lastChange = "2023-11-23 10:09:39 +0000";
layers = (
{
anchors = (
{
name = bottom;
pos = (594,0);
},
{
name = top;
pos = (594,1474);
}
);
layerId = "AB099EFE-E788-4EFC-8633-CF147CB782A6";
shapes = (
{
closed = 1;
nodes = (
(576,-16,o),
(684,156,o),
(704,456,c),
(678,456,l),
(678,0,l),
(1126,0,l),
(1126,60,l),
(742,60,l),
(742,726,l),
(1074,726,l),
(1074,786,l),
(742,786,l),
(742,1414,l),
(1126,1414,l),
(1126,1474,l),
(678,1474,l),
(678,1018,l),
(704,1018,l),
(684,1318,o),
(576,1490,o),
(394,1490,cs),
(173,1490,o),
(68,1216,o),
(68,738,cs),
(68,259,o),
(173,-16,o),
(394,-16,cs)
);
},
{
closed = 1;
nodes = (
(213,44,o),
(132,298,o),
(132,740,cs),
(132,1179,o),
(213,1430,o),
(394,1430,cs),
(583,1430,o),
(680,1179,o),
(680,742,cs),
(680,298,o),
(583,44,o),
(394,44,cs)
);
}
);
width = 1152;
},
{
anchors = (
{
name = bottom;
pos = (578,0);
},
{
name = top;
pos = (578,1474);
}
);
layerId = "2D8F7115-C311-411E-929D-56333CF7FFB2";
shapes = (
{
closed = 1;
nodes = (
(554,-16,o),
(626,80,o),
(684,308,c),
(644,308,l),
(644,0,l),
(1120,0,l),
(1120,328,l),
(892,328,l),
(892,586,l),
(1080,586,l),
(1080,902,l),
(892,902,l),
(892,1146,l),
(1120,1146,l),
(1120,1474,l),
(644,1474,l),
(644,1168,l),
(684,1168,l),
(628,1390,o),
(558,1490,o),
(418,1490,cs),
(182,1490,o),
(24,1214,o),
(24,738,cs),
(24,260,o),
(184,-16,o),
(418,-16,cs)
);
},
{
closed = 1;
nodes = (
(390,308,o),
(348,464,o),
(348,738,cs),
(348,1012,o),
(390,1166,o),
(486,1166,cs),
(576,1166,o),
(626,1016,o),
(626,738,cs),
(626,456,o),
(574,308,o),
(484,308,cs)
);
}
);
width = 1152;
},
{
anchors = (
{
name = bottom;
pos = (590,0);
},
{
name = top;
pos = (590,1474);
}
);
layerId = "FD1CEFBD-BAB1-4C2A-A598-30E93F9A29F6";
shapes = (
{
closed = 1;
nodes = (
(580,-16,o),
(666,172,o),
(680,326,c),
(644,326,l),
(644,0,l),
(1116,0,l),
(1116,164,l),
(796,164,l),
(796,668,l),
(1086,668,l),
(1086,832,l),
(796,832,l),
(796,1310,l),
(1116,1310,l),
(1116,1474,l),
(644,1474,l),
(644,1154,l),
(680,1154,l),
(666,1304,o),
(580,1490,o),
(408,1490,cs),
(196,1490,o),
(52,1206,o),
(52,738,cs),
(52,266,o),
(198,-16,o),
(408,-16,cs)
);
},
{
closed = 1;
nodes = (
(290,144,o),
(224,372,o),
(224,738,cs),
(224,1106,o),
(292,1330,o),
(422,1330,cs),
(551,1330,o),
(640,1106,o),
(640,738,cs),
(640,366,o),
(549,144,o),
(420,144,cs)
);
}
);
width = 1152;
}
);
unicode = 338;
},
{
color = 6;
glyphname = P;
lastChange = "2023-11-23 10:09:39 +0000";
layers = (
{
anchors = (
{
name = bottom;
pos = (262,0);
},
{
name = top;
pos = (660,1474);
}
);
layerId = "AB099EFE-E788-4EFC-8633-CF147CB782A6";
shapes = (
{
closed = 1;
nodes = (
(604,666,ls),
(854,666,o),
(1020,856,o),
(1020,1078,cs),
(1020,1320,o),
(834,1474,o),
(594,1474,cs),
(262,1474,l),
(262,1414,l),
(582,1414,ls),
(802,1414,o),
(956,1286,o),
(956,1078,cs),
(956,870,o),
(804,726,o),
(592,726,cs),
(262,726,l),
(262,666,l)
);
},
{
closed = 1;
nodes = (
(292,0,l),
(292,1474,l),
(228,1474,l),
(228,0,l)
);
}
);
width = 1152;
},
{
anchors = (
{
name = bottom;
pos = (302,0);
},
{
name = top;
pos = (618,1474);
}
);
layerId = "2D8F7115-C311-411E-929D-56333CF7FFB2";
shapes = (
{
closed = 1;
nodes = (
(610,450,ls),
(912,450,o),
(1122,660,o),
(1122,974,cs),
(1122,1278,o),
(928,1474,o),
(606,1474,cs),
(416,1474,l),
(416,1146,l),
(584,1146,ls),
(694,1146,o),
(766,1072,o),
(766,962,cs),
(766,856,o),
(696,774,o),
(594,774,cs),
(416,774,l),
(416,450,l)
);
},
{
closed = 1;
nodes = (
(482,0,l),
(482,1474,l),
(118,1474,l),
(118,0,l)
);
}
);
width = 1152;
},
{
anchors = (
{
name = bottom;
pos = (276,0);
},
{
name = top;
pos = (642,1474);
}
);
layerId = "FD1CEFBD-BAB1-4C2A-A598-30E93F9A29F6";
shapes = (
{
closed = 1;
nodes = (
(604,586,ls),
(874,586,o),
(1052,778,o),
(1052,1040,cs),
(1052,1304,o),
(868,1474,o),
(594,1474,cs),
(320,1474,l),
(320,1310,l),
(580,1310,ls),
(756,1310,o),
(872,1208,o),
(872,1036,cs),
(872,864,o),
(760,750,o),
(592,750,cs),
(320,750,l),
(320,586,l)
);
},
{
closed = 1;
nodes = (
(368,0,l),
(368,1474,l),
(188,1474,l),
(188,0,l)
);
}
);
width = 1152;
}
);
unicode = 80;
},
{
color = 6;
glyphname = Thorn;
lastChange = "2023-11-23 10:09:39 +0000";
layers = (
{
layerId = "AB099EFE-E788-4EFC-8633-CF147CB782A6";
shapes = (
{
closed = 1;
nodes = (
(624,328,ls),
(854,328,o),
(1024,500,o),
(1024,742,cs),
(1024,984,o),
(854,1138,o),
(624,1138,cs),
(272,1138,l),
(272,1078,l),
(632,1078,ls),
(818,1078,o),
(960,950,o),
(960,742,cs),
(960,532,o),
(818,388,o),
(632,388,cs),
(272,388,l),
(272,328,l)
);
},
{
closed = 1;
nodes = (
(292,0,l),
(292,1474,l),
(228,1474,l),
(228,0,l)
);
}
);
width = 1152;
},
{
layerId = "2D8F7115-C311-411E-929D-56333CF7FFB2";
shapes = (
{
closed = 1;
nodes = (
(618,230,ls),
(910,230,o),
(1108,444,o),
(1108,752,cs),
(1108,1060,o),
(912,1250,o),
(610,1250,cs),
(404,1250,l),
(404,930,l),
(586,930,ls),
(690,930,o),
(760,856,o),
(760,742,cs),
(760,634,o),
(696,550,o),
(600,550,cs),
(404,550,l),
(404,230,l)
);
},
{
closed = 1;
nodes = (
(480,0,l),
(480,1474,l),
(116,1474,l),
(116,0,l)
);
}
);
width = 1152;
},
{
layerId = "FD1CEFBD-BAB1-4C2A-A598-30E93F9A29F6";
shapes = (
{
closed = 1;
nodes = (
(624,290,ls),
(882,290,o),
(1060,480,o),
(1060,746,cs),
(1060,1016,o),
(878,1180,o),
(620,1180,cs),
(308,1180,l),
(308,1016,l),
(618,1016,ls),
(778,1016,o),
(880,918,o),
(880,742,cs),
(880,570,o),
(778,454,o),
(622,454,cs),
(308,454,l),
(308,290,l)
);
},
{
closed = 1;
nodes = (
(360,0,l),
(360,1474,l),
(180,1474,l),
(180,0,l)
);
}
);
width = 1152;
}
);
unicode = 222;
},
{
color = 6;
glyphname = Q;
lastChange = "2023-11-23 10:09:39 +0000";
layers = (
{
anchors = (
{
name = bottom;
pos = (570,0);
},
{
name = center;
pos = (570,738);
},
{
name = horn;
pos = (816,1410);
},
{
name = ogonek;
pos = (670,0);
},
{
name = top;
pos = (566,1474);
},
{
name = topleft;
pos = (0,1474);
},
{
name = topright;
pos = (1136,1474);
}
);
layerId = "AB099EFE-E788-4EFC-8633-CF147CB782A6";
shapes = (
{
closed = 1;
nodes = (
(698,-16,o),
(806,36,o),
(890,130,c),
(899,141,l),
(1009,273,o),
(1072,481,o),
(1072,738,cs),
(1072,1192,o),
(876,1490,o),
(570,1490,cs),
(270,1490,o),
(76,1194,o),
(76,738,cs),
(76,282,o),
(270,-16,o),
(570,-16,cs)
);
},
{
closed = 1;
nodes = (
(1010,0,l),
(912,162,l),
(894,176,l),
(704,520,l),
(634,520,l),
(848,142,l),
(862,130,l),
(938,0,l)
);
},
{
closed = 1;
nodes = (
(308,44,o),
(140,320,o),
(140,738,cs),
(140,1154,o),
(308,1430,o),
(570,1430,cs),
(836,1430,o),
(1008,1154,o),
(1008,738,cs),
(1008,320,o),
(836,44,o),
(570,44,cs)
);
}
);
width = 1152;
},
{
anchors = (
{
name = bottom;
pos = (524,0);
},
{
name = center;
pos = (528,738);
},
{
name = horn;
pos = (760,1426);
},
{
name = ogonek;
pos = (648,0);
},
{
name = top;
pos = (526,1474);
},
{
name = topleft;
pos = (-86,1474);
},
{
name = topright;
pos = (1146,1474);
}
);
layerId = "2D8F7115-C311-411E-929D-56333CF7FFB2";
shapes = (
{
closed = 1;
nodes = (
(700,-16,o),
(810,42,o),
(848,144,c),
(937,165,l),
(1034,295,o),
(1086,493,o),
(1086,752,cs),
(1086,1224,o),
(914,1492,o),
(576,1492,cs),
(242,1492,o),
(56,1226,o),
(56,736,cs),
(56,250,o),
(240,-16,o),
(568,-16,cs)
);
},
{
closed = 1;
nodes = (
(1148,0,l),
(956,300,l),
(774,368,l),
(688,544,l),
(430,544,l),
(578,276,l),
(786,172,l),
(874,0,l)
);
},
{
closed = 1;
nodes = (
(428,308,o),
(376,456,o),
(376,726,cs),
(376,1016,o),
(434,1156,o),
(574,1156,cs),
(722,1156,o),
(766,1003,o),
(766,726,cs),
(766,405,o),
(722,308,o),
(574,308,cs)
);
}
);
width = 1152;
},
{
anchors = (
{
name = bottom;
pos = (564,0);
},
{
name = center;
pos = (566,738);
},
{
name = horn;
pos = (804,1422);
},
{
name = ogonek;
pos = (672,0);
},
{
name = top;
pos = (564,1474);
},
{
name = topleft;
pos = (-36,1470);
},
{
name = topright;
pos = (1160,1470);
}
);
layerId = "FD1CEFBD-BAB1-4C2A-A598-30E93F9A29F6";
shapes = (
{
closed = 1;
nodes = (
(706,-16,o),
(814,31,o),
(896,117,c),
(933,161,l),
(1031,292,o),
(1084,489,o),
(1084,738,cs),
(1084,1204,o),
(896,1490,o),
(578,1490,cs),
(262,1490,o),
(68,1204,o),
(68,738,cs),
(68,270,o),
(262,-16,o),
(578,-16,cs)
);
},
{
closed = 1;
nodes = (
(1114,0,l),
(958,204,l),
(880,266,l),
(696,540,l),
(498,540,l),
(750,196,l),
(816,144,l),
(924,0,l)
);
},
{
closed = 1;
nodes = (
(372,148,o),
(244,370,o),
(244,738,cs),
(244,1104,o),
(372,1326,o),
(578,1326,cs),
(788,1326,o),
(906,1100,o),
(908,738,cs),
(910,378,o),
(794,148,o),
(578,148,cs)
);
}
);
width = 1152;
}
);
unicode = 81;
},
{
color = 6;
glyphname = R;
lastChange = "2023-11-23 10:09:39 +0000";
layers = (
{
anchors = (
{
name = bottom;
pos = (622,0);
},
{
name = top;
pos = (554,1474);
}
);
guides = (
{
angle = 120;
pos = (528,0);
},
{
angle = 67.5;
pos = (116,2);
}
);
layerId = "AB099EFE-E788-4EFC-8633-CF147CB782A6";
shapes = (
{
closed = 1;
nodes = (
(562,666,ls),
(796,666,o),
(954,854,o),
(954,1078,cs),
(954,1320,o),
(776,1474,o),
(552,1474,cs),
(242,1474,l),
(242,1414,l),
(542,1414,ls),
(744,1414,o),
(890,1286,o),
(890,1078,cs),
(890,868,o),
(746,726,o),
(550,726,cs),
(242,726,l),
(242,666,l)
);
},
{
closed = 1;
nodes = (
(274,0,l),
(274,1474,l),
(210,1474,l),
(210,0,l)
);
},
{
closed = 1;
nodes = (
(1032,0,l),
(588,716,l),
(544,672,l),
(960,0,l)
);
}
);
width = 1152;
},
{
anchors = (
{
name = bottom;
pos = (574,0);
},
{
name = top;
pos = (520,1474);
}
);
guides = (
{
angle = 120;
pos = (672,0);
}
);
layerId = "2D8F7115-C311-411E-929D-56333CF7FFB2";
shapes = (
{
closed = 1;
nodes = (
(500,484,ls),
(852,484,o),
(1068,714,o),
(1068,1012,cs),
(1068,1312,o),
(858,1474,o),
(598,1474,cs),
(348,1474,l),
(348,1146,l),
(544,1146,ls),
(646,1146,o),
(722,1074,o),
(722,962,cs),
(722,856,o),
(650,782,o),
(554,782,cs),
(348,782,l),
(348,484,l)
);
},
{
closed = 1;
nodes = (
(418,0,l),
(418,1474,l),
(68,1474,l),
(68,0,l)
);
},
{
closed = 1;
nodes = (
(1148,0,l),
(770,754,l),
(510,536,l),
(752,0,l)
);
}
);
width = 1152;
},
{
anchors = (
{
name = bottom;
pos = (586,0);
},
{
name = top;
pos = (528,1474);
}
);
hints = (
{
horizontal = 1;
origin = (0,0);
settings = {
deltaV = {
"{100, 88, 0, 0, 0, 0}" = {
"12" = 3;
};
};
};
type = TTDelta;
},
{
horizontal = 1;
origin = (0,17);
settings = {
deltaV = {
"{100, 88, 0, 0, 0, 0}" = {
"12" = 3;
};
};
};
type = TTDelta;
},
{
horizontal = 1;
origin = (0,16);
settings = {
deltaV = {
"{100, 88, 0, 0, 0, 0}" = {
"12" = 3;
};
};
};
type = TTDelta;
},
{
horizontal = 1;
origin = (0,15);
settings = {
deltaV = {
"{100, 88, 0, 0, 0, 0}" = {
"12" = 3;
};
};
};
type = TTDelta;
},
{
horizontal = 1;
origin = (1,0);
settings = {
deltaV = {
"{100, 88, 0, 0, 0, 0}" = {
"12" = 3;
};
};
};
type = TTDelta;
},
{
horizontal = 1;
origin = (0,10,1,0);
settings = {
deltaV = {
"{100, 88, 0, 0, 0, 0}" = {
"12" = 3;
};
};
};
type = TTDelta;
},
{
horizontal = 1;
origin = (0,13,2,1);
settings = {
deltaV = {
"{100, 88, 0, 0, 0, 0}" = {
"12" = 3;
};
};
};
type = TTDelta;
},
{
horizontal = 1;
origin = (0,13,2,3);
settings = {
deltaV = {
"{100, 88, 0, 0, 0, 0}" = {
"12" = 3;
};
};
};
type = TTDelta;
}
);
layerId = "FD1CEFBD-BAB1-4C2A-A598-30E93F9A29F6";
shapes = (
{
closed = 1;
nodes = (
(530,598,ls),
(816,598,o),
(1000,800,o),
(1000,1052,cs),
(1000,1316,o),
(806,1474,o),
(562,1474,cs),
(262,1474,l),
(262,1310,l),
(534,1310,ls),
(702,1310,o),
(820,1210,o),
(820,1038,cs),
(820,866,o),
(704,754,o),
(544,754,cs),
(262,754,l),
(262,598,l)
);
},
{
closed = 1;
nodes = (
(324,0,l),
(324,1474,l),
(144,1474,l),
(144,0,l)
);
},
{
closed = 1;
nodes = (
(1084,0,l),
(652,734,l),
(518,626,l),
(880,0,l)
);
}
);
width = 1152;
}
);
unicode = 82;
},
{
color = 6;
glyphname = S;
lastChange = "2023-11-23 10:09:39 +0000";
layers = (
{
anchors = (
{
name = bottom;
pos = (594,0);
},
{
name = cedilla;
pos = (574,0);
},
{
name = top;
pos = (562,1474);
}
);
background = {
shapes = (
{
closed = 1;
nodes = (
(784,-16,o),
(984,128,o),
(984,366,cs),
(984,660,o),
(680,746,o),
(548,798,cs),
(416,850,o),
(236,942,o),
(236,1144,cs),
(236,1308,o),
(354,1430,o),
(544,1430,cs),
(724,1430,o),
(824,1322,o),
(868,1234,c),
(924,1258,l),
(874,1364,o),
(752,1490,o),
(544,1490,cs),
(322,1490,o),
(172,1348,o),
(172,1140,cs),
(172,918,o),
(340,818,o),
(562,730,cs),
(700,676,o),
(920,596,o),
(920,366,cs),
(920,168,o),
(756,44,o),
(570,44,cs),
(406,44,o),
(252,138,o),
(194,288,c),
(130,262,l),
(192,128,o),
(332,-16,o),
(560,-16,cs)
);
},
{
closed = 1;
nodes = (
(784,-16,o),
(984,128,o),
(984,366,cs),
(984,865,o),
(236,697,o),
(236,1144,cs),
(236,1308,o),
(354,1430,o),
(544,1430,cs),
(724,1430,o),
(824,1322,o),
(868,1234,c),
(924,1258,l),
(874,1364,o),
(752,1490,o),
(544,1490,cs),
(322,1490,o),
(172,1348,o),
(172,1140,cs),
(172,660,o),
(920,806,o),
(920,366,cs),
(920,168,o),
(756,44,o),
(570,44,cs),
(406,44,o),
(252,138,o),
(194,288,c),
(130,262,l),
(192,128,o),
(332,-16,o),
(560,-16,cs)
);
}
);
};
layerId = "AB099EFE-E788-4EFC-8633-CF147CB782A6";
shapes = (
{
closed = 1;
nodes = (
(784,-16,o),
(984,128,o),
(984,366,cs),
(984,865,o),
(236,697,o),
(236,1144,cs),
(236,1308,o),
(354,1430,o),
(544,1430,cs),
(724,1430,o),
(824,1322,o),
(868,1234,c),
(924,1258,l),
(874,1364,o),
(752,1490,o),
(544,1490,cs),
(322,1490,o),
(172,1348,o),
(172,1140,cs),
(172,660,o),
(920,806,o),
(920,366,cs),
(920,168,o),
(756,44,o),
(570,44,cs),
(406,44,o),
(252,138,o),
(194,288,c),
(130,262,l),
(192,128,o),
(332,-16,o),
(560,-16,cs)
);
}
);
userData = {
RMXScaler = {
height = 139;
width = 140;
};
};
width = 1152;
},
{
anchors = (
{
name = bottom;
pos = (616,0);
},
{
name = cedilla;
pos = (644,0);
},
{
name = top;
pos = (580,1474);
}
);
background = {
shapes = (
{
closed = 1;
nodes = (
(879,-16,o),
(1086,198,o),
(1084,454,cs),
(1082,730,o),
(845,828,o),
(736,860,cs),
(664,882,o),
(449,934,o),
(450,1054,cs),
(449,1116,o),
(506,1164,o),
(572,1164,cs),
(653,1164,o),
(712,1094,o),
(730,1036,c),
(1054,1176,l),
(985,1356,o),
(820,1490,o),
(570,1490,cs),
(282,1490,o),
(99,1312,o),
(100,1062,cs),
(99,812,o),
(280,688,o),
(466,626,cs),
(565,592,o),
(734,558,o),
(734,444,cs),
(734,376,o),
(672,320,o),
(594,320,cs),
(489,320,o),
(415,414,o),
(384,504,c),
(50,356,l),
(113,148,o),
(345,-16,o),
(590,-16,cs)
);
}
);
};
guides = (
{
angle = 22.5;
pos = (316,288);
},
{
angle = 90;
pos = (84,-108);
},
{
angle = 90;
pos = (536,-108);
}
);
layerId = "2D8F7115-C311-411E-929D-56333CF7FFB2";
shapes = (
{
closed = 1;
nodes = (
(868,-16,o),
(1084,190,o),
(1084,462,cs),
(1084,922,o),
(470,828,o),
(470,1060,cs),
(470,1120,o),
(512,1164,o),
(574,1164,cs),
(642,1164,o),
(700,1110,o),
(716,1036,c),
(1054,1176,l),
(990,1356,o),
(820,1490,o),
(572,1490,cs),
(288,1490,o),
(102,1314,o),
(102,1054,cs),
(102,584,o),
(716,668,o),
(716,444,cs),
(716,378,o),
(662,320,o),
(594,320,cs),
(504,320,o),
(436,418,o),
(408,504,c),
(54,356,l),
(122,146,o),
(354,-16,o),
(596,-16,cs)
);
}
);
userData = {
RMXScaler = {
height = 137;
weight = 160;
width = 140;
};
};
width = 1152;
},
{
anchors = (
{
name = bottom;
pos = (578,0);
},
{
name = cedilla;
pos = (578,0);
},
{
name = top;
pos = (572,1474);
}
);
background = {
shapes = (
{
closed = 1;
nodes = (
(816,-16,o),
(1028,150,o),
(1028,402,cs),
(1028,700,o),
(730,792,o),
(606,836,cs),
(494,876,o),
(324,946,o),
(324,1116,cs),
(324,1254,o),
(434,1326,o),
(558,1326,cs),
(696,1326,o),
(786,1234,o),
(824,1164,c),
(984,1228,l),
(922,1364,o),
(782,1490,o),
(556,1490,cs),
(312,1490,o),
(148,1344,o),
(148,1120,cs),
(148,884,o),
(330,760,o),
(524,692,cs),
(614,660,o),
(852,592,o),
(852,394,cs),
(852,250,o),
(724,148,o),
(580,148,cs),
(426,148,o),
(312,262,o),
(270,390,c),
(102,320,l),
(160,148,o),
(348,-16,o),
(582,-16,cs)
);
}
);
};
layerId = "FD1CEFBD-BAB1-4C2A-A598-30E93F9A29F6";
shapes = (
{
closed = 1;
nodes = (
(840,-16,o),
(1028,158,o),
(1028,410,cs),
(1028,904,o),
(326,744,o),
(326,1112,cs),
(326,1256,o),
(438,1326,o),
(556,1326,cs),
(666,1326,o),
(764,1268,o),
(820,1162,c),
(984,1228,l),
(920,1380,o),
(764,1490,o),
(560,1490,cs),
(326,1490,o),
(146,1348,o),
(146,1106,cs),
(146,622,o),
(848,768,o),
(848,396,cs),
(848,250,o),
(734,148,o),
(590,148,cs),
(454,148,o),
(324,242,o),
(272,390,c),
(104,320,l),
(170,122,o),
(366,-16,o),
(588,-16,cs)
);
}
);
userData = {
RMXScaler = {
height = 139;
width = 140;
};
};
width = 1152;
}
);
unicode = 83;
userData = {
RMXScaler = {
source = s;
};
};
},
{
color = 6;
glyphname = Germandbls;
lastChange = "2023-11-23 10:09:39 +0000";
layers = (
{
layerId = "AB099EFE-E788-4EFC-8633-CF147CB782A6";
shapes = (
{
closed = 1;
nodes = (
(848,-16,o),
(1032,190,o),
(1032,458,cs),
(1032,706,o),
(874,906,o),
(598,892,c),
(624,860,l),
(834,1414,l),
(834,1430,l),
(732,1476,o),
(612,1490,o),
(528,1490,cs),
(168,1490,o),
(168,1222,o),
(168,1126,cs),
(168,0,l),
(232,0,l),
(232,1132,ls),
(232,1212,o),
(230,1430,o),
(512,1430,cs),
(594,1430,o),
(714,1414,o),
(772,1386,c),
(768,1420,l),
(562,864,l),
(562,836,l),
(598,836,ls),
(828,836,o),
(968,688,o),
(968,460,cs),
(968,210,o),
(800,44,o),
(616,44,cs),
(566,44,o),
(494,60,o),
(446,80,c),
(446,16,l),
(486,-4,o),
(554,-16,o),
(610,-16,cs)
);
}
);
width = 1152;
},
{
layerId = "2D8F7115-C311-411E-929D-56333CF7FFB2";
shapes = (
{
closed = 1;
nodes = (
(972,-16,o),
(1152,182,o),
(1152,480,cs),
(1152,714,o),
(1056,902,o),
(870,934,c),
(878,766,l),
(1076,1340,l),
(1076,1376,l),
(988,1438,o),
(778,1490,o),
(598,1490,cs),
(302,1490,o),
(64,1324,o),
(64,1020,cs),
(64,0,l),
(410,0,l),
(410,974,ls),
(410,1018,o),
(418,1170,o),
(614,1170,cs),
(678,1170,o),
(720,1152,o),
(726,1126,c),
(706,1216,l),
(574,738,l),
(574,676,l),
(674,676,ls),
(778,676,o),
(816,586,o),
(814,484,cs),
(812,370,o),
(768,312,o),
(658,312,cs),
(646,312,o),
(632,314,o),
(578,324,c),
(578,-12,l),
(616,-12,o),
(634,-16,o),
(674,-16,cs)
);
}
);
width = 1152;
},
{
layerId = "FD1CEFBD-BAB1-4C2A-A598-30E93F9A29F6";
shapes = (
{
closed = 1;
nodes = (
(890,-16,o),
(1074,176,o),
(1074,466,cs),
(1074,710,o),
(944,902,o),
(708,910,c),
(730,828,l),
(932,1384,l),
(932,1410,l),
(832,1462,o),
(676,1490,o),
(554,1490,cs),
(276,1490,o),
(130,1352,o),
(130,1086,cs),
(130,0,l),
(308,0,l),
(308,1074,ls),
(308,1238,o),
(368,1326,o),
(560,1326,cs),
(636,1326,o),
(722,1304,o),
(752,1282,c),
(742,1344,l),
(566,820,l),
(566,774,l),
(628,774,ls),
(802,774,o),
(898,656,o),
(898,472,cs),
(898,286,o),
(790,148,o),
(632,148,cs),
(602,148,o),
(568,152,o),
(500,176,c),
(500,8,l),
(538,-8,o),
(590,-16,o),
(638,-16,cs)
);
}
);
width = 1152;
}
);
unicode = 7838;
},
{
color = 6;
glyphname = T;
lastChange = "2023-11-23 10:09:39 +0000";
layers = (
{
anchors = (
{
name = bottom;
pos = (576,0);
},
{
name = cedilla;
pos = (576,0);
},
{
name = center;
pos = (576,738);
},
{
name = top;
pos = (576,1474);
}
);
layerId = "AB099EFE-E788-4EFC-8633-CF147CB782A6";
shapes = (
{
closed = 1;
nodes = (
(608,0,l),
(608,1432,l),
(544,1432,l),
(544,0,l)
);
},
{
closed = 1;
nodes = (
(1040,1414,l),
(1040,1474,l),
(108,1474,l),
(108,1414,l)
);
}
);
width = 1152;
},
{
anchors = (
{
name = bottom;
pos = (576,0);
},
{
name = cedilla;
pos = (576,0);
},
{
name = center;
pos = (576,672);
},
{
name = top;
pos = (576,1474);
}
);
layerId = "2D8F7115-C311-411E-929D-56333CF7FFB2";
shapes = (
{
closed = 1;
nodes = (
(760,0,l),
(760,1196,l),
(392,1196,l),
(392,0,l)
);
},
{
closed = 1;
nodes = (
(1102,1146,l),
(1102,1474,l),
(50,1474,l),
(50,1146,l)
);
}
);
width = 1152;
},
{
anchors = (
{
name = bottom;
pos = (576,0);
},
{
name = cedilla;
pos = (570,0);
},
{
name = center;
pos = (576,712);
},
{
name = top;
pos = (576,1474);
}
);
layerId = "FD1CEFBD-BAB1-4C2A-A598-30E93F9A29F6";
shapes = (
{
closed = 1;
nodes = (
(666,0,l),
(666,1344,l),
(486,1344,l),
(486,0,l)
);
},
{
closed = 1;
nodes = (
(1064,1310,l),
(1064,1474,l),
(88,1474,l),
(88,1310,l)
);
}
);
width = 1152;
}
);
unicode = 84;
},
{
color = 6;
glyphname = U;
lastChange = "2023-11-23 10:09:39 +0000";
layers = (
{
anchors = (
{
name = bottom;
pos = (578,0);
},
{
name = horn;
pos = (960,1474);
},
{
name = ogonek;
pos = (690,0);
},
{
name = top;
pos = (576,1474);
}
);
layerId = "AB099EFE-E788-4EFC-8633-CF147CB782A6";
shapes = (
{
closed = 1;
nodes = (
(834,-16,o),
(992,163,o),
(992,456,cs),
(992,1474,l),
(928,1474,l),
(928,472,ls),
(928,206,o),
(794,44,o),
(574,44,cs),
(357,44,o),
(224,206,o),
(224,472,cs),
(224,1474,l),
(160,1474,l),
(160,456,ls),
(160,163,o),
(317,-16,o),
(574,-16,cs)
);
}
);
width = 1152;
},
{
anchors = (
{
name = bottom;
pos = (576,0);
},
{
name = horn;
pos = (1006,1474);
},
{
name = ogonek;
pos = (694,0);
},
{
name = top;
pos = (576,1474);
}
);
layerId = "2D8F7115-C311-411E-929D-56333CF7FFB2";
shapes = (
{
closed = 1;
nodes = (
(888,-16,o),
(1088,206,o),
(1088,548,cs),
(1088,1474,l),
(736,1474,l),
(736,514,ls),
(736,392,o),
(678,312,o),
(576,312,cs),
(476,312,o),
(416,392,o),
(416,514,cs),
(416,1474,l),
(64,1474,l),
(64,548,ls),
(64,206,o),
(266,-16,o),
(576,-16,cs)
);
}
);
width = 1152;
},
{
anchors = (
{
name = bottom;
pos = (578,0);
},
{
name = horn;
pos = (980,1474);
},
{
name = ogonek;
pos = (692,0);
},
{
name = top;
pos = (576,1474);
}
);
layerId = "FD1CEFBD-BAB1-4C2A-A598-30E93F9A29F6";
shapes = (
{
closed = 1;
nodes = (
(857,-16,o),
(1028,178,o),
(1028,496,cs),
(1028,1474,l),
(848,1474,l),
(848,496,ls),
(848,280,o),
(746,148,o),
(576,148,cs),
(406,148,o),
(304,280,o),
(304,496,cs),
(304,1474,l),
(124,1474,l),
(124,496,ls),
(124,178,o),
(295,-16,o),
(576,-16,cs)
);
}
);
width = 1152;
}
);
metricLeft = H;
metricRight = H;
unicode = 85;
},
{
color = 6;
glyphname = V;
lastChange = "2023-11-23 10:09:39 +0000";
layers = (
{
anchors = (
{
name = bottom;
pos = (578,0);
},
{
name = top;
pos = (572,1474);
}
);
layerId = "AB099EFE-E788-4EFC-8633-CF147CB782A6";
shapes = (
{
closed = 1;
nodes = (
(612,0,l),
(1120,1474,l),
(1052,1474,l),
(754,600,l),
(578,78,l),
(572,78,l),
(398,600,l),
(96,1474,l),
(28,1474,l),
(540,0,l)
);
}
);
width = 1152;
},
{
anchors = (
{
name = bottom;
pos = (580,0);
},
{
name = top;
pos = (578,1474);
}
);
layerId = "2D8F7115-C311-411E-929D-56333CF7FFB2";
shapes = (
{
closed = 1;
nodes = (
(756,0,l),
(1160,1474,l),
(780,1474,l),
(660,858,l),
(580,496,l),
(572,496,l),
(492,858,l),
(368,1474,l),
(-8,1474,l),
(396,0,l)
);
}
);
width = 1152;
},
{
anchors = (
{
name = bottom;
pos = (580,0);
},
{
name = top;
pos = (576,1474);
}
);
layerId = "FD1CEFBD-BAB1-4C2A-A598-30E93F9A29F6";
shapes = (
{
closed = 1;
nodes = (
(668,0,l),
(1140,1474,l),
(950,1474,l),
(722,712,l),
(580,258,l),
(572,258,l),
(432,712,l),
(202,1474,l),
(12,1474,l),
(488,0,l)
);
}
);
width = 1152;
}
);
unicode = 86;
},
{
color = 6;
glyphname = W;
lastChange = "2023-11-23 10:09:39 +0000";
layers = (
{
anchors = (
{
name = bottom;
pos = (576,0);
},
{
name = top;
pos = (576,1474);
}
);
background = {
anchors = (
{
name = bottom;
pos = (574,0);
},
{
name = top;
pos = (574,1474);
}
);
shapes = (
{
closed = 1;
nodes = (
(358,0,l),
(572,884,l),
(580,884,l),
(794,0,l),
(874,0,l),
(1128,1474,l),
(1062,1474,l),
(866,264,l),
(838,96,l),
(830,96,l),
(596,1048,l),
(556,1048,l),
(322,96,l),
(314,96,l),
(286,264,l),
(90,1474,l),
(24,1474,l),
(278,0,l)
);
}
);
};
layerId = "AB099EFE-E788-4EFC-8633-CF147CB782A6";
shapes = (
{
closed = 1;
nodes = (
(340,0,l),
(572,790,l),
(580,790,l),
(812,0,l),
(890,0,l),
(967,325,o),
(1088,704,o),
(1088,1050,cs),
(1088,1474,l),
(1024,1474,l),
(1024,1052,ls),
(1024,699,o),
(915,317,o),
(854,92,c),
(846,92,l),
(596,940,l),
(556,940,l),
(306,92,l),
(298,92,l),
(235,370,o),
(128,707,o),
(128,1050,cs),
(128,1474,l),
(64,1474,l),
(64,1050,ls),
(64,698,o),
(188,323,o),
(262,0,c)
);
}
);
width = 1152;
},
{
anchors = (
{
name = bottom;
pos = (576,0);
},
{
name = top;
pos = (576,1474);
}
);
background = {
anchors = (
{
name = bottom;
pos = (576,0);
},
{
name = top;
pos = (576,1474);
}
);
shapes = (
{
closed = 1;
nodes = (
(436,0,l),
(572,578,l),
(580,578,l),
(714,0,l),
(986,0,l),
(1148,1474,l),
(842,1474,l),
(816,848,l),
(796,496,l),
(788,496,l),
(642,1080,l),
(510,1080,l),
(364,496,l),
(356,496,l),
(340,848,l),
(314,1474,l),
(4,1474,l),
(170,0,l)
);
}
);
};
layerId = "2D8F7115-C311-411E-929D-56333CF7FFB2";
shapes = (
{
closed = 1;
nodes = (
(420,0,l),
(572,498,l),
(580,498,l),
(730,0,l),
(1002,0,l),
(1070,344,o),
(1122,620,o),
(1122,960,cs),
(1122,1474,l),
(834,1474,l),
(834,960,ls),
(834,768,o),
(817,593,o),
(802,462,c),
(794,462,l),
(642,928,l),
(510,928,l),
(358,462,l),
(350,462,l),
(335,593,o),
(320,769,o),
(320,960,cs),
(320,1474,l),
(32,1474,l),
(32,960,ls),
(32,623,o),
(83,344,o),
(154,0,c)
);
}
);
width = 1152;
},
{
anchors = (
{
name = bottom;
pos = (576,0);
},
{
name = top;
pos = (576,1474);
}
);
background = {
anchors = (
{
name = bottom;
pos = (576,0);
},
{
name = top;
pos = (576,1474);
}
);
shapes = (
{
closed = 1;
nodes = (
(368,0,l),
(572,660,l),
(580,660,l),
(784,0,l),
(952,0,l),
(1136,1474,l),
(936,1474,l),
(858,616,l),
(840,344,l),
(832,344,l),
(618,1060,l),
(532,1060,l),
(320,344,l),
(312,344,l),
(294,616,l),
(216,1474,l),
(16,1474,l),
(200,0,l)
);
}
);
};
layerId = "FD1CEFBD-BAB1-4C2A-A598-30E93F9A29F6";
shapes = (
{
closed = 1;
nodes = (
(396,0,l),
(572,584,l),
(580,584,l),
(756,0,l),
(940,0,l),
(1029,334,o),
(1094,653,o),
(1094,966,cs),
(1094,1474,l),
(914,1474,l),
(914,966,ls),
(914,717,o),
(886,469,o),
(840,260,c),
(832,260,l),
(624,936,l),
(528,936,l),
(320,260,l),
(312,260,l),
(266,469,o),
(240,717,o),
(240,966,cs),
(240,1474,l),
(60,1474,l),
(60,966,ls),
(60,651,o),
(123,334,o),
(212,0,c)
);
}
);
width = 1152;
}
);
unicode = 87;
},
{
color = 6;
glyphname = W.ss03;
kernLeft = LAT_W_UC;
kernRight = LAT_W_UC;
lastChange = "2023-11-23 10:09:39 +0000";
layers = (
{
anchors = (
{
name = bottom;
pos = (574,0);
},
{
name = top;
pos = (574,1474);
}
);
background = {
anchors = (
{
name = bottom;
pos = (574,0);
},
{
name = top;
pos = (574,1474);
}
);
shapes = (
{
closed = 1;
nodes = (
(358,0,l),
(570,1250,l),
(578,1250,l),
(794,0,l),
(874,0,l),
(1128,1474,l),
(1062,1474,l),
(866,276,l),
(838,106,l),
(830,106,l),
(598,1474,l),
(550,1474,l),
(322,106,l),
(314,106,l),
(286,276,l),
(90,1474,l),
(24,1474,l),
(278,0,l)
);
}
);
};
layerId = "AB099EFE-E788-4EFC-8633-CF147CB782A6";
shapes = (
{
closed = 1;
nodes = (
(358,0,l),
(572,1006,l),
(580,1006,l),
(794,0,l),
(874,0,l),
(1128,1474,l),
(1062,1474,l),
(866,290,l),
(838,96,l),
(830,96,l),
(596,1224,l),
(556,1224,l),
(322,96,l),
(314,96,l),
(286,290,l),
(90,1474,l),
(24,1474,l),
(278,0,l)
);
}
);
width = 1152;
},
{
anchors = (
{
name = bottom;
pos = (576,0);
},
{
name = top;
pos = (576,1474);
}
);
background = {
anchors = (
{
name = bottom;
pos = (576,0);
},
{
name = top;
pos = (576,1474);
}
);
shapes = (
{
closed = 1;
nodes = (
(436,0,l),
(572,932,l),
(580,932,l),
(716,0,l),
(984,0,l),
(1148,1474,l),
(886,1474,l),
(842,848,l),
(834,496,l),
(824,496,l),
(662,1474,l),
(490,1474,l),
(326,496,l),
(318,496,l),
(310,848,l),
(270,1474,l),
(4,1474,l),
(168,0,l)
);
}
);
};
layerId = "2D8F7115-C311-411E-929D-56333CF7FFB2";
shapes = (
{
closed = 1;
nodes = (
(436,0,l),
(572,586,l),
(580,586,l),
(714,0,l),
(986,0,l),
(1148,1474,l),
(842,1474,l),
(816,882,l),
(804,496,l),
(796,496,l),
(642,1156,l),
(510,1156,l),
(356,496,l),
(348,496,l),
(340,882,l),
(314,1474,l),
(4,1474,l),
(170,0,l)
);
}
);
width = 1152;
},
{
anchors = (
{
name = bottom;
pos = (576,0);
},
{
name = top;
pos = (576,1474);
}
);
background = {
anchors = (
{
name = bottom;
pos = (576,0);
},
{
name = top;
pos = (576,1474);
}
);
shapes = (
{
closed = 1;
nodes = (
(376,0,l),
(572,934,l),
(580,934,l),
(776,0,l),
(952,0,l),
(1136,1474,l),
(936,1474,l),
(858,616,l),
(840,344,l),
(832,344,l),
(626,1474,l),
(526,1474,l),
(320,344,l),
(312,344,l),
(294,616,l),
(216,1474,l),
(16,1474,l),
(200,0,l)
);
}
);
};
layerId = "FD1CEFBD-BAB1-4C2A-A598-30E93F9A29F6";
shapes = (
{
closed = 1;
nodes = (
(368,0,l),
(572,752,l),
(580,752,l),
(784,0,l),
(952,0,l),
(1136,1474,l),
(936,1474,l),
(858,664,l),
(840,344,l),
(832,344,l),
(624,1184,l),
(528,1184,l),
(320,344,l),
(312,344,l),
(294,664,l),
(216,1474,l),
(16,1474,l),
(200,0,l)
);
}
);
width = 1152;
}
);
},
{
color = 6;
glyphname = X;
lastChange = "2023-11-23 10:09:39 +0000";
layers = (
{
anchors = (
{
name = bottom;
pos = (576,0);
},
{
name = top;
pos = (576,1474);
}
);
layerId = "AB099EFE-E788-4EFC-8633-CF147CB782A6";
shapes = (
{
closed = 1;
nodes = (
(1062,0,l),
(616,734,l),
(616,742,l),
(582,784,l),
(572,784,l),
(160,1474,l),
(88,1474,l),
(534,738,l),
(534,730,l),
(568,690,l),
(578,690,l),
(986,0,l)
);
},
{
closed = 1;
nodes = (
(164,0,l),
(572,690,l),
(582,690,l),
(616,730,l),
(616,738,l),
(1062,1474,l),
(990,1474,l),
(578,784,l),
(568,784,l),
(534,742,l),
(534,734,l),
(88,0,l)
);
}
);
width = 1152;
},
{
anchors = (
{
name = bottom;
pos = (576,0);
},
{
name = top;
pos = (576,1474);
}
);
layerId = "2D8F7115-C311-411E-929D-56333CF7FFB2";
shapes = (
{
closed = 1;
nodes = (
(1190,0,l),
(816,734,l),
(816,738,l),
(580,974,l),
(574,974,l),
(370,1474,l),
(-30,1474,l),
(338,742,l),
(338,738,l),
(570,462,l),
(576,462,l),
(778,0,l)
);
},
{
closed = 1;
nodes = (
(370,0,l),
(574,462,l),
(580,462,l),
(816,738,l),
(816,742,l),
(1182,1474,l),
(778,1474,l),
(576,974,l),
(570,974,l),
(338,738,l),
(338,734,l),
(-38,0,l)
);
}
);
width = 1152;
},
{
anchors = (
{
name = bottom;
pos = (576,0);
},
{
name = top;
pos = (576,1474);
}
);
layerId = "FD1CEFBD-BAB1-4C2A-A598-30E93F9A29F6";
shapes = (
{
closed = 1;
nodes = (
(1114,0,l),
(696,734,l),
(696,742,l),
(582,860,l),
(572,860,l),
(248,1474,l),
(46,1474,l),
(456,742,l),
(456,734,l),
(568,602,l),
(580,602,l),
(900,0,l)
);
},
{
closed = 1;
nodes = (
(250,0,l),
(572,602,l),
(582,602,l),
(696,734,l),
(696,742,l),
(1106,1474,l),
(904,1474,l),
(580,860,l),
(568,860,l),
(456,742,l),
(456,734,l),
(38,0,l)
);
}
);
width = 1152;
}
);
unicode = 88;
},
{
color = 6;
glyphname = Y;
lastChange = "2023-11-23 10:09:39 +0000";
layers = (
{
anchors = (
{
name = bottom;
pos = (574,0);
},
{
name = top;
pos = (574,1474);
}
);
layerId = "AB099EFE-E788-4EFC-8633-CF147CB782A6";
shapes = (
{
closed = 1;
nodes = (
(606,0,l),
(606,680,l),
(1082,1474,l),
(1010,1474,l),
(756,1042,l),
(578,748,l),
(570,748,l),
(392,1042,l),
(138,1474,l),
(66,1474,l),
(542,680,l),
(542,0,l)
);
}
);
width = 1152;
},
{
anchors = (
{
name = bottom;
pos = (576,0);
},
{
name = top;
pos = (576,1474);
}
);
layerId = "2D8F7115-C311-411E-929D-56333CF7FFB2";
shapes = (
{
closed = 1;
nodes = (
(754,0,l),
(754,552,l),
(1194,1474,l),
(786,1474,l),
(690,1208,l),
(580,906,l),
(572,906,l),
(462,1208,l),
(366,1474,l),
(-42,1474,l),
(398,552,l),
(398,0,l)
);
}
);
width = 1152;
},
{
anchors = (
{
name = bottom;
pos = (576,0);
},
{
name = top;
pos = (576,1474);
}
);
layerId = "FD1CEFBD-BAB1-4C2A-A598-30E93F9A29F6";
shapes = (
{
closed = 1;
nodes = (
(666,0,l),
(666,634,l),
(1128,1474,l),
(924,1474,l),
(732,1106,l),
(580,812,l),
(572,812,l),
(420,1106,l),
(228,1474,l),
(24,1474,l),
(486,634,l),
(486,0,l)
);
}
);
width = 1152;
}
);
unicode = 89;
},
{
color = 6;
glyphname = Z;
lastChange = "2023-11-23 10:09:39 +0000";
layers = (
{
anchors = (
{
name = bottom;
pos = (602,0);
},
{
name = top;
pos = (596,1474);
}
);
guides = (
{
angle = 58;
pos = (178,112);
}
);
layerId = "AB099EFE-E788-4EFC-8633-CF147CB782A6";
shapes = (
{
closed = 1;
nodes = (
(1012,0,l),
(1012,60,l),
(226,60,l),
(226,64,l),
(992,1438,l),
(992,1474,l),
(184,1474,l),
(184,1414,l),
(904,1414,l),
(904,1410,l),
(136,36,l),
(136,0,l)
);
}
);
width = 1152;
},
{
anchors = (
{
name = bottom;
pos = (574,0);
},
{
name = top;
pos = (574,1474);
}
);
guides = (
{
angle = 63;
pos = (198,112);
}
);
layerId = "2D8F7115-C311-411E-929D-56333CF7FFB2";
shapes = (
{
closed = 1;
nodes = (
(1108,0,l),
(1108,324,l),
(586,324,l),
(586,328,l),
(1094,1422,l),
(1094,1474,l),
(72,1474,l),
(72,1150,l),
(560,1150,l),
(560,1146,l),
(48,50,l),
(48,0,l)
);
}
);
width = 1152;
},
{
anchors = (
{
name = bottom;
pos = (590,0);
},
{
name = top;
pos = (586,1474);
}
);
layerId = "FD1CEFBD-BAB1-4C2A-A598-30E93F9A29F6";
shapes = (
{
closed = 1;
nodes = (
(1048,0,l),
(1048,164,l),
(374,164,l),
(374,168,l),
(1036,1434,l),
(1036,1474,l),
(142,1474,l),
(142,1310,l),
(766,1310,l),
(766,1306,l),
(102,40,l),
(102,0,l)
);
}
);
width = 1152;
}
);
unicode = 90;
},
{
color = 6;
glyphname = a;
lastChange = "2023-11-23 10:09:39 +0000";
layers = (
{
anchors = (
{
name = bottom;
pos = (550,0);
},
{
name = ogonek;
pos = (986,-16);
},
{
name = top;
pos = (566,1048);
}
);
guides = (
{
angle = 67.5;
pos = (986,-16);
},
{
angle = 112.5;
pos = (240,898);
}
);
layerId = "AB099EFE-E788-4EFC-8633-CF147CB782A6";
shapes = (
{
closed = 1;
nodes = (
(650,-16,o),
(782,78,o),
(850,188,c),
(834,180,l),
(858,180,l),
(850,188,l),
(864,96,o),
(890,32,o),
(962,-4,cs),
(986,-16,l),
(1008,38,l),
(1000,42,ls),
(948,68,o),
(910,132,o),
(910,232,cs),
(910,684,ls),
(910,896,o),
(846,1064,o),
(566,1064,cs),
(462,1064,o),
(300,1016,o),
(218,952,c),
(240,898,l),
(320,958,o),
(472,1008,o),
(562,1008,cs),
(796,1008,o),
(850,878,o),
(850,692,cs),
(850,562,l),
(850,552,l),
(850,360,ls),
(850,194,o),
(662,40,o),
(482,40,cs),
(328,40,o),
(204,148,o),
(204,286,cs),
(204,452,o),
(362,564,o),
(668,564,cs),
(874,564,l),
(874,620,l),
(670,620,ls),
(330,620,o),
(144,490,o),
(144,286,cs),
(144,112,o),
(292,-16,o),
(482,-16,cs)
);
}
);
width = 1152;
},
{
anchors = (
{
name = bottom;
pos = (564,0);
},
{
name = ogonek;
pos = (982,-16);
},
{
name = top;
pos = (590,1080);
}
);
guides = (
{
angle = 67.5;
pos = (986,-16);
},
{
angle = 112.5;
pos = (174,898);
}
);
layerId = "2D8F7115-C311-411E-929D-56333CF7FFB2";
shapes = (
{
closed = 1;
nodes = (
(590,-16,o),
(726,58,o),
(762,140,c),
(656,118,l),
(816,118,l),
(728,180,l),
(748,100,o),
(822,30,o),
(940,-4,cs),
(982,-16,l),
(1104,278,l),
(1080,286,ls),
(1042,299,o),
(1024,334,o),
(1024,398,cs),
(1024,712,ls),
(1024,946,o),
(846,1098,o),
(566,1098,cs),
(420,1098,o),
(248,1060,o),
(146,998,c),
(258,730,l),
(334,780,o),
(444,816,o),
(546,816,cs),
(630,816,o),
(688,792,o),
(688,708,cs),
(688,552,l),
(708,512,l),
(708,374,ls),
(708,294,o),
(628,240,o),
(544,240,cs),
(468,240,o),
(426,286,o),
(426,344,cs),
(426,408,o),
(476,448,o),
(550,448,cs),
(742,448,l),
(742,656,l),
(474,656,ls),
(240,656,o),
(88,514,o),
(88,320,cs),
(88,138,o),
(220,-16,o),
(438,-16,cs)
);
}
);
width = 1152;
},
{
anchors = (
{
name = bottom;
pos = (576,0);
},
{
name = ogonek;
pos = (980,-16);
},
{
name = top;
pos = (584,1060);
}
);
background = {
anchors = (
{
name = bottom;
pos = (554,0);
},
{
name = ogonek;
pos = (960,-16);
},
{
name = top;
pos = (562,1060);
}
);
shapes = (
{
closed = 1;
nodes = (
(630,-16,o),
(762,70,o),
(814,176,c),
(770,148,l),
(836,148,l),
(802,160,l),
(802,98,o),
(863,28,o),
(938,-4,cs),
(966,-16,l),
(1032,140,l),
(1012,148,ls),
(962,168,o),
(946,218,o),
(946,308,cs),
(946,680,ls),
(946,890,o),
(864,1078,o),
(576,1078,cs),
(442,1078,o),
(290,1036,o),
(184,974,c),
(250,820,l),
(332,878,o),
(462,918,o),
(560,918,cs),
(782,918,o),
(782,746,o),
(782,676,cs),
(782,558,l),
(786,496,l),
(786,386,ls),
(786,222,o),
(614,132,o),
(482,132,cs),
(372,132,o),
(282,194,o),
(282,300,cs),
(282,456,o),
(454,492,o),
(610,492,cs),
(818,492,l),
(818,630,l),
(598,630,ls),
(266,630,o),
(114,492,o),
(114,300,cs),
(114,102,o),
(266,-16,o),
(462,-16,cs)
);
}
);
};
guides = (
{
angle = 67.5;
pos = (980,-16);
},
{
angle = 112.5;
pos = (230,898);
}
);
layerId = "FD1CEFBD-BAB1-4C2A-A598-30E93F9A29F6";
shapes = (
{
closed = 1;
nodes = (
(644,-16,o),
(776,70,o),
(828,176,c),
(784,148,l),
(850,148,l),
(816,160,l),
(816,98,o),
(877,28,o),
(952,-4,cs),
(980,-16,l),
(1044,140,l),
(1024,148,ls),
(974,168,o),
(960,218,o),
(960,308,cs),
(960,680,ls),
(960,890,o),
(878,1078,o),
(590,1078,cs),
(456,1078,o),
(304,1036,o),
(198,974,c),
(262,820,l),
(344,878,o),
(476,918,o),
(574,918,cs),
(796,918,o),
(796,746,o),
(796,676,cs),
(796,558,l),
(800,496,l),
(800,386,ls),
(800,222,o),
(628,132,o),
(496,132,cs),
(386,132,o),
(296,194,o),
(296,300,cs),
(296,456,o),
(468,506,o),
(624,506,cs),
(832,506,l),
(832,644,l),
(612,644,ls),
(280,644,o),
(128,492,o),
(128,300,cs),
(128,102,o),
(280,-16,o),
(476,-16,cs)
);
}
);
width = 1152;
}
);
unicode = 97;
},
{
color = 6;
glyphname = a.ss01;
lastChange = "2023-11-23 10:09:39 +0000";
layers = (
{
anchors = (
{
name = bottom;
pos = (556,0);
},
{
name = center;
pos = (576,524);
},
{
name = ogonek;
pos = (980,0);
},
{
name = top;
pos = (576,1048);
}
);
layerId = "AB099EFE-E788-4EFC-8633-CF147CB782A6";
shapes = (
{
closed = 1;
nodes = (
(786,-16,o),
(976,204,o),
(976,524,cs),
(976,848,o),
(784,1064,o),
(548,1064,cs),
(312,1064,o),
(124,846,o),
(124,524,cs),
(124,204,o),
(312,-16,o),
(548,-16,cs)
);
},
{
closed = 1;
nodes = (
(346,40,o),
(184,238,o),
(184,524,cs),
(184,818,o),
(346,1008,o),
(552,1008,cs),
(760,1008,o),
(922,816,o),
(922,524,cs),
(922,240,o),
(760,40,o),
(552,40,cs)
);
},
{
closed = 1;
nodes = (
(980,0,l),
(980,1048,l),
(920,1048,l),
(920,810,l),
(900,810,l),
(924,760,l),
(924,288,l),
(896,240,l),
(920,240,l),
(920,0,l)
);
}
);
width = 1152;
},
{
anchors = (
{
name = bottom;
pos = (598,0);
},
{
name = center;
pos = (592,540);
},
{
name = ogonek;
pos = (1056,0);
},
{
name = top;
pos = (608,1080);
}
);
layerId = "2D8F7115-C311-411E-929D-56333CF7FFB2";
shapes = (
{
closed = 1;
nodes = (
(685,-16,o),
(832,232,o),
(832,540,cs),
(832,864,o),
(695,1096,o),
(464,1096,cs),
(218,1096,o),
(40,860,o),
(40,540,cs),
(40,220,o),
(212,-16,o),
(450,-16,cs)
);
},
{
closed = 1;
nodes = (
(444,286,o),
(374,396,o),
(374,540,cs),
(374,690,o),
(446,792,o),
(546,792,cs),
(648,792,o),
(722,688,o),
(722,540,cs),
(722,394,o),
(648,286,o),
(546,286,cs)
);
},
{
closed = 1;
nodes = (
(1056,0,l),
(1056,1080,l),
(724,1080,l),
(724,966,l),
(688,966,l),
(730,860,l),
(730,180,l),
(698,128,l),
(724,128,l),
(724,0,l)
);
}
);
width = 1152;
},
{
anchors = (
{
name = bottom;
pos = (570,0);
},
{
name = center;
pos = (580,536);
},
{
name = ogonek;
pos = (1012,0);
},
{
name = top;
pos = (588,1060);
}
);
layerId = "FD1CEFBD-BAB1-4C2A-A598-30E93F9A29F6";
shapes = (
{
closed = 1;
nodes = (
(782,-16,o),
(940,238,o),
(940,532,cs),
(940,852,o),
(774,1076,o),
(524,1076,cs),
(276,1076,o),
(80,854,o),
(80,532,cs),
(80,210,o),
(274,-16,o),
(522,-16,cs)
);
},
{
closed = 1;
nodes = (
(378,144,o),
(254,318,o),
(254,532,cs),
(254,754,o),
(386,916,o),
(552,916,cs),
(720,916,o),
(848,758,o),
(848,530,cs),
(848,294,o),
(714,144,o),
(550,144,cs)
);
},
{
closed = 1;
nodes = (
(1012,0,l),
(1012,1060,l),
(842,1060,l),
(842,910,l),
(818,910,l),
(856,852,l),
(856,208,l),
(818,152,l),
(842,152,l),
(842,0,l)
);
}
);
width = 1152;
}
);
},
{
color = 6;
glyphname = a.ss02;
lastChange = "2023-11-23 10:09:39 +0000";
layers = (
{
anchors = (
{
name = bottom;
pos = (550,0);
},
{
name = ogonek;
pos = (1020,-16);
},
{
name = top;
pos = (552,1048);
},
{
name = topright;
pos = (1076,1048);
}
);
layerId = "AB099EFE-E788-4EFC-8633-CF147CB782A6";
shapes = (
{
closed = 1;
nodes = (
(758,-16,o),
(954,160,o),
(954,528,cs),
(954,898,o),
(762,1064,o),
(534,1064,cs),
(282,1064,o),
(112,862,o),
(112,524,cs),
(112,190,o),
(284,-16,o),
(534,-16,cs)
);
},
{
closed = 1;
nodes = (
(328,38,o),
(172,232,o),
(172,524,cs),
(172,826,o),
(324,1010,o),
(532,1010,cs),
(724,1010,o),
(898,850,o),
(898,524,cs),
(898,246,o),
(746,38,o),
(532,38,cs)
);
},
{
closed = 1;
nodes = (
(1044,38,l),
(988,70,o),
(958,106,o),
(958,220,cs),
(958,1048,l),
(898,1048,l),
(898,834,l),
(876,834,l),
(902,748,l),
(902,294,l),
(880,222,l),
(906,222,l),
(900,234,l),
(902,84,o),
(936,40,o),
(1020,-16,c)
);
}
);
width = 1152;
},
{
anchors = (
{
name = bottom;
pos = (554,0);
},
{
name = ogonek;
pos = (1002,-16);
},
{
name = top;
pos = (554,1080);
},
{
name = topright;
pos = (1106,1080);
}
);
layerId = "2D8F7115-C311-411E-929D-56333CF7FFB2";
shapes = (
{
closed = 1;
nodes = (
(692,-16,o),
(884,246,o),
(884,552,cs),
(884,848,o),
(706,1098,o),
(458,1098,cs),
(250,1098,o),
(28,914,o),
(28,536,cs),
(28,152,o),
(254,-16,o),
(446,-16,cs)
);
},
{
closed = 1;
nodes = (
(434,278,o),
(366,382,o),
(366,544,cs),
(366,706,o),
(438,802,o),
(540,802,cs),
(640,802,o),
(710,704,o),
(710,544,cs),
(710,382,o),
(634,278,o),
(532,278,cs)
);
},
{
closed = 1;
nodes = (
(1124,278,l),
(1062,304,o),
(1048,318,o),
(1048,418,cs),
(1048,1080,l),
(718,1080,l),
(718,982,l),
(672,982,l),
(716,886,l),
(716,274,l),
(678,144,l),
(762,144,l),
(746,160,l),
(778,80,o),
(860,22,o),
(1002,-16,c)
);
}
);
width = 1152;
},
{
anchors = (
{
name = bottom;
pos = (566,0);
},
{
name = ogonek;
pos = (1014,-16);
},
{
name = top;
pos = (576,1060);
},
{
name = topright;
pos = (1102,1060);
}
);
layerId = "FD1CEFBD-BAB1-4C2A-A598-30E93F9A29F6";
shapes = (
{
closed = 1;
nodes = (
(758,-16,o),
(942,214,o),
(942,532,cs),
(942,856,o),
(760,1078,o),
(516,1078,cs),
(280,1078,o),
(78,866,o),
(78,532,cs),
(78,202,o),
(282,-16,o),
(516,-16,cs)
);
},
{
closed = 1;
nodes = (
(376,140,o),
(252,308,o),
(252,532,cs),
(252,762,o),
(376,922,o),
(548,922,cs),
(708,922,o),
(840,770,o),
(840,532,cs),
(840,308,o),
(714,140,o),
(548,140,cs)
);
},
{
closed = 1;
nodes = (
(1078,140,l),
(1014,168,o),
(1000,208,o),
(1000,300,cs),
(1000,1060,l),
(830,1060,l),
(830,928,l),
(780,928,l),
(848,824,l),
(848,290,l),
(804,164,l),
(886,164,l),
(848,196,l),
(858,90,o),
(906,38,o),
(1014,-16,c)
);
}
);
width = 1152;
}
);
metricLeft = o;
metricRight = u;
},
{
color = 6;
glyphname = ae;
lastChange = "2023-11-23 10:09:39 +0000";
layers = (
{
anchors = (
{
name = bottom;
pos = (552,0);
},
{
name = top;
pos = (544,1048);
}
);
layerId = "AB099EFE-E788-4EFC-8633-CF147CB782A6";
shapes = (
{
closed = 1;
nodes = (
(426,-16,o),
(542,100,o),
(564,294,c),
(552,294,l),
(580,110,o),
(688,-16,o),
(836,-16,cs),
(930,-16,o),
(1030,40,o),
(1084,94,c),
(1060,150,l),
(1014,96,o),
(922,40,o),
(834,40,cs),
(674,40,o),
(578,240,o),
(578,528,cs),
(578,814,o),
(674,1008,o),
(822,1008,cs),
(964,1008,o),
(1056,830,o),
(1056,570,c),
(566,570,l),
(568,514,l),
(1112,514,l),
(1114,546,o),
(1116,562,o),
(1116,596,cs),
(1116,868,o),
(998,1064,o),
(828,1064,cs),
(698,1064,o),
(592,948,o),
(556,780,c),
(572,780,l),
(556,946,o),
(464,1064,o),
(328,1064,cs),
(256,1064,o),
(144,1032,o),
(66,976,c),
(92,926,l),
(160,978,o),
(262,1008,o),
(320,1008,cs),
(436,1008,o),
(520,884,o),
(520,694,cs),
(520,398,ls),
(520,186,o),
(428,40,o),
(294,40,cs),
(188,40,o),
(100,136,o),
(100,270,cs),
(100,418,o),
(210,514,o),
(410,514,cs),
(534,514,l),
(534,570,l),
(412,570,ls),
(178,570,o),
(40,452,o),
(40,270,cs),
(40,102,o),
(158,-16,o),
(290,-16,cs)
);
}
);
width = 1152;
},
{
anchors = (
{
name = bottom;
pos = (582,0);
},
{
name = top;
pos = (590,1078);
}
);
layerId = "2D8F7115-C311-411E-929D-56333CF7FFB2";
shapes = (
{
closed = 1;
nodes = (
(468,-16,o),
(592,84,o),
(600,222,c),
(518,222,l),
(568,82,o),
(712,-16,o),
(862,-16,cs),
(966,-16,o),
(1084,28,o),
(1114,66,c),
(1024,318,l),
(972,266,o),
(912,246,o),
(870,246,cs),
(760,246,o),
(676,382,o),
(676,580,cs),
(676,734,o),
(726,830,o),
(792,830,cs),
(850,830,o),
(870,756,o),
(870,644,c),
(642,644,l),
(656,442,l),
(1114,442,l),
(1120,472,o),
(1126,560,o),
(1126,618,cs),
(1126,912,o),
(1002,1096,o),
(814,1096,cs),
(686,1096,o),
(570,1016,o),
(554,908,c),
(644,908,l),
(604,1030,o),
(514,1096,o),
(364,1096,cs),
(246,1096,o),
(140,1060,o),
(74,1014,c),
(166,762,l),
(204,794,o),
(280,830,o),
(344,830,cs),
(394,830,o),
(444,802,o),
(444,694,cs),
(444,410,ls),
(444,308,o),
(418,236,o),
(364,236,cs),
(328,236,o),
(296,274,o),
(296,328,cs),
(296,396,o),
(348,442,o),
(420,442,cs),
(480,442,l),
(480,644,l),
(342,644,ls),
(160,644,o),
(24,524,o),
(24,322,cs),
(24,140,o),
(130,-16,o),
(314,-16,cs)
);
}
);
width = 1152;
},
{
anchors = (
{
name = bottom;
pos = (572,0);
},
{
name = top;
pos = (572,1060);
}
);
layerId = "FD1CEFBD-BAB1-4C2A-A598-30E93F9A29F6";
shapes = (
{
closed = 1;
nodes = (
(454,-16,o),
(558,120,o),
(580,246,c),
(540,246,l),
(598,82,o),
(686,-16,o),
(848,-16,cs),
(926,-16,o),
(1018,18,o),
(1086,72,c),
(1022,226,l),
(965,174,o),
(897,142,o),
(848,142,cs),
(694,142,o),
(620,290,o),
(620,534,cs),
(620,776,o),
(700,920,o),
(818,920,cs),
(926,920,o),
(970,796,o),
(968,610,c),
(600,610,l),
(606,470,l),
(1108,470,l),
(1114,494,o),
(1116,534,o),
(1116,574,cs),
(1116,884,o),
(1014,1076,o),
(826,1076,cs),
(698,1076,o),
(592,988,o),
(554,864,c),
(602,864,l),
(576,990,o),
(504,1076,o),
(350,1076,cs),
(242,1076,o),
(138,1032,o),
(80,994,c),
(134,848,l),
(176,880,o),
(264,920,o),
(344,920,cs),
(492,920,o),
(488,788,o),
(488,614,cs),
(488,390,ls),
(488,240,o),
(406,140,o),
(320,140,cs),
(252,140,o),
(198,204,o),
(198,296,cs),
(198,414,o),
(288,470,o),
(412,470,cs),
(512,470,l),
(512,610,l),
(390,610,ls),
(170,610,o),
(36,502,o),
(36,294,cs),
(36,108,o),
(142,-16,o),
(294,-16,cs)
);
}
);
width = 1152;
},
{
anchors = (
{
name = bottom;
pos = (576,0);
},
{
name = top;
pos = (580,1068);
}
);
associatedMasterId = "FD1CEFBD-BAB1-4C2A-A598-30E93F9A29F6";
attr = {
coordinates = (
120
);
};
layerId = "8DFE1C2D-345E-4B3A-9448-FEAF072D91AD";
name = "{120}";
shapes = (
{
closed = 1;
nodes = (
(460,-16,o),
(574,102,o),
(590,234,c),
(528,234,l),
(584,82,o),
(698,-16,o),
(854,-16,cs),
(944,-16,o),
(1050,22,o),
(1100,70,c),
(1022,270,l),
(968,218,o),
(902,192,o),
(858,192,cs),
(726,192,o),
(646,334,o),
(646,556,cs),
(646,754,o),
(712,878,o),
(806,878,cs),
(888,878,o),
(922,776,o),
(920,626,c),
(620,626,l),
(630,456,l),
(1110,456,l),
(1116,484,o),
(1120,538,o),
(1120,594,cs),
(1120,896,o),
(1008,1086,o),
(820,1086,cs),
(694,1086,o),
(580,1002,o),
(554,884,c),
(622,884,l),
(588,1012,o),
(506,1086,o),
(356,1086,cs),
(246,1086,o),
(138,1046,o),
(76,1004,c),
(148,806,l),
(196,844,o),
(278,878,o),
(344,878,cs),
(444,878,o),
(466,796,o),
(466,652,cs),
(466,400,ls),
(466,274,o),
(412,186,o),
(340,186,cs),
(288,186,o),
(244,238,o),
(244,312,cs),
(244,406,o),
(318,456,o),
(416,456,cs),
(496,456,l),
(496,626,l),
(366,626,ls),
(166,626,o),
(30,512,o),
(30,308,cs),
(30,124,o),
(136,-16,o),
(304,-16,cs)
);
}
);
width = 1152;
}
);
unicode = 230;
},
{
color = 3;
glyphname = b;
lastChange = "2023-11-23 10:09:39 +0000";
layers = (
{
anchors = (
{
name = bottom;
pos = (586,0);
},
{
name = center;
pos = (226,1262);
},
{
name = top;
pos = (632,1156);
}
);
layerId = "AB099EFE-E788-4EFC-8633-CF147CB782A6";
shapes = (
{
closed = 1;
nodes = (
(260,0,l),
(260,224,l),
(288,224,l),
(250,312,l),
(250,728,l),
(280,834,l),
(260,834,l),
(260,1540,l),
(200,1540,l),
(200,0,l)
);
},
{
ref = _part.bowl;
}
);
width = 1152;
},
{
anchors = (
{
name = bottom;
pos = (578,0);
},
{
name = center;
pos = (272,1298);
},
{
name = top;
pos = (728,1164);
}
);
layerId = "2D8F7115-C311-411E-929D-56333CF7FFB2";
shapes = (
{
closed = 1;
nodes = (
(428,0,l),
(428,114,l),
(470,114,l),
(428,226,l),
(428,816,l),
(472,1000,l),
(448,1000,l),
(448,1540,l),
(96,1540,l),
(96,0,l)
);
},
{
ref = _part.bowl;
}
);
width = 1152;
},
{
anchors = (
{
name = bottom;
pos = (584,0);
},
{
name = center;
pos = (242,1278);
},
{
name = top;
pos = (670,1160);
}
);
layerId = "FD1CEFBD-BAB1-4C2A-A598-30E93F9A29F6";
shapes = (
{
closed = 1;
nodes = (
(326,0,l),
(326,144,l),
(354,144,l),
(306,246,l),
(306,816,l),
(346,926,l),
(328,926,l),
(328,1540,l),
(156,1540,l),
(156,0,l)
);
},
{
ref = _part.bowl;
}
);
width = 1152;
}
);
metricLeft = h;
unicode = 98;
},
{
color = 6;
glyphname = b.ss01;
lastChange = "2023-11-23 10:09:39 +0000";
layers = (
{
anchors = (
{
name = bottom;
pos = (552,0);
},
{
name = center;
pos = (194,1262);
},
{
name = top;
pos = (596,1156);
}
);
layerId = "AB099EFE-E788-4EFC-8633-CF147CB782A6";
shapes = (
{
closed = 1;
nodes = (
(844,-16,o),
(1036,202,o),
(1036,524,cs),
(1036,848,o),
(844,1064,o),
(604,1064,cs),
(362,1064,o),
(168,848,o),
(168,524,cs),
(168,200,o),
(362,-16,o),
(604,-16,cs)
);
},
{
closed = 1;
nodes = (
(224,0,l),
(224,240,l),
(242,240,l),
(220,272,l),
(220,744,l),
(236,804,l),
(224,804,l),
(224,1540,l),
(164,1540,l),
(164,0,l)
);
},
{
closed = 1;
nodes = (
(388,40,o),
(222,238,o),
(222,524,cs),
(222,818,o),
(388,1008,o),
(600,1008,cs),
(810,1008,o),
(976,818,o),
(976,524,cs),
(976,236,o),
(810,40,o),
(600,40,cs)
);
}
);
width = 1152;
},
{
anchors = (
{
name = bottom;
pos = (572,0);
},
{
name = center;
pos = (256,1298);
},
{
name = top;
pos = (720,1164);
}
);
layerId = "2D8F7115-C311-411E-929D-56333CF7FFB2";
shapes = (
{
closed = 1;
nodes = (
(932,-16,o),
(1112,220,o),
(1112,540,cs),
(1112,860,o),
(926,1096,o),
(670,1096,cs),
(432,1096,o),
(302,868,o),
(302,540,cs),
(302,228,o),
(440,-16,o),
(684,-16,cs)
);
},
{
closed = 1;
nodes = (
(416,0,l),
(416,120,l),
(460,120,l),
(406,226,l),
(406,816,l),
(458,1002,l),
(436,1002,l),
(436,1540,l),
(84,1540,l),
(84,0,l)
);
},
{
closed = 1;
nodes = (
(490,286,o),
(414,396,o),
(414,540,cs),
(414,688,o),
(492,792,o),
(596,792,cs),
(704,792,o),
(778,686,o),
(778,540,cs),
(778,394,o),
(702,286,o),
(596,286,cs)
);
}
);
width = 1152;
},
{
anchors = (
{
name = bottom;
pos = (560,0);
},
{
name = center;
pos = (214,1278);
},
{
name = top;
pos = (642,1160);
}
);
layerId = "FD1CEFBD-BAB1-4C2A-A598-30E93F9A29F6";
shapes = (
{
closed = 1;
nodes = (
(882,-16,o),
(1080,210,o),
(1080,532,cs),
(1080,856,o),
(878,1076,o),
(628,1076,cs),
(374,1076,o),
(198,854,o),
(198,532,cs),
(198,236,o),
(364,-16,o),
(628,-16,cs)
);
},
{
closed = 1;
nodes = (
(298,0,l),
(298,156,l),
(322,156,l),
(294,212,l),
(294,806,l),
(318,910,l),
(300,910,l),
(300,1540,l),
(128,1540,l),
(128,0,l)
);
},
{
closed = 1;
nodes = (
(430,144,o),
(294,296,o),
(294,530,cs),
(294,760,o),
(428,916,o),
(598,916,cs),
(770,916,o),
(906,754,o),
(906,532,cs),
(906,318,o),
(778,144,o),
(598,144,cs)
);
}
);
width = 1152;
}
);
},
{
color = 6;
glyphname = c;
lastChange = "2023-11-23 10:09:39 +0000";
layers = (
{
anchors = (
{
name = bottom;
pos = (660,0);
},
{
name = cedilla;
pos = (674,0);
},
{
name = top;
pos = (660,1048);
}
);
background = {
shapes = (
{
closed = 1;
nodes = (
(762,-12,o),
(932,28,o),
(1020,146,c),
(992,206,l),
(926,100,o),
(776,44,o),
(638,44,cs),
(374,44,o),
(192,254,o),
(192,528,cs),
(192,808,o),
(382,1008,o),
(654,1008,cs),
(802,1008,o),
(920,946,o),
(988,860,c),
(1016,918,l),
(948,998,o),
(824,1064,o),
(658,1064,cs),
(350,1064,o),
(132,842,o),
(132,526,cs),
(132,218,o),
(338,-12,o),
(640,-12,cs)
);
}
);
};
layerId = "AB099EFE-E788-4EFC-8633-CF147CB782A6";
shapes = (
{
closed = 1;
nodes = (
(780,-12,o),
(904,46,o),
(984,122,c),
(956,180,l),
(890,100,o),
(778,44,o),
(646,44,cs),
(400,44,o),
(216,240,o),
(216,528,cs),
(216,814,o),
(398,1008,o),
(648,1008,cs),
(778,1008,o),
(886,954,o),
(950,886,c),
(978,942,l),
(882,1024,o),
(764,1064,o),
(646,1064,cs),
(368,1064,o),
(156,846,o),
(156,528,cs),
(156,208,o),
(368,-12,o),
(640,-12,cs)
);
}
);
userData = {
RMXScaler = {
height = 71.5;
weight = 20;
width = 77;
};
};
width = 1152;
},
{
anchors = (
{
name = bottom;
pos = (662,0);
},
{
name = cedilla;
pos = (676,0);
},
{
name = top;
pos = (674,1080);
}
);
background = {
shapes = (
{
closed = 1;
nodes = (
(848,-12,o),
(998,34,o),
(1078,110,c),
(938,420,l),
(906,364,o),
(802,292,o),
(684,292,cs),
(538,292,o),
(440,394,o),
(440,544,cs),
(440,708,o),
(566,792,o),
(690,792,cs),
(804,792,o),
(894,712,o),
(944,656,c),
(1088,958,l),
(988,1038,o),
(842,1096,o),
(672,1096,cs),
(340,1096,o),
(80,872,o),
(80,544,cs),
(80,214,o),
(330,-12,o),
(686,-12,cs)
);
}
);
};
layerId = "2D8F7115-C311-411E-929D-56333CF7FFB2";
shapes = (
{
closed = 1;
nodes = (
(796,-12,o),
(932,24,o),
(1028,78,c),
(902,364,l),
(852,320,o),
(764,288,o),
(686,288,cs),
(546,288,o),
(448,392,o),
(448,544,cs),
(448,694,o),
(550,796,o),
(696,796,cs),
(758,796,o),
(842,762,o),
(898,710,c),
(1028,990,l),
(938,1050,o),
(792,1096,o),
(672,1096,cs),
(340,1096,o),
(112,870,o),
(112,544,cs),
(112,214,o),
(346,-12,o),
(688,-12,cs)
);
}
);
userData = {
RMXScaler = {
height = 73.5;
weight = -50;
width = 73;
};
};
width = 1152;
},
{
anchors = (
{
name = bottom;
pos = (654,0);
},
{
name = cedilla;
pos = (670,0);
},
{
name = top;
pos = (658,1060);
}
);
background = {
shapes = (
{
closed = 1;
nodes = (
(800,-12,o),
(974,56,o),
(1054,154,c),
(980,312,l),
(926,222,o),
(794,148,o),
(652,148,cs),
(440,148,o),
(292,306,o),
(292,534,cs),
(292,762,o),
(438,918,o),
(648,918,cs),
(784,918,o),
(914,848,o),
(974,758,c),
(1050,914,l),
(968,1010,o),
(800,1078,o),
(632,1078,cs),
(328,1078,o),
(116,858,o),
(116,536,cs),
(116,212,o),
(328,-12,o),
(636,-12,cs)
);
}
);
};
layerId = "FD1CEFBD-BAB1-4C2A-A598-30E93F9A29F6";
shapes = (
{
closed = 1;
nodes = (
(782,-12,o),
(918,38,o),
(1000,110,c),
(934,258,l),
(882,198,o),
(774,148,o),
(666,148,cs),
(458,148,o),
(316,306,o),
(316,534,cs),
(316,762,o),
(456,918,o),
(658,918,cs),
(762,918,o),
(872,872,o),
(930,812,c),
(996,958,l),
(906,1032,o),
(768,1078,o),
(654,1078,cs),
(350,1078,o),
(140,856,o),
(140,536,cs),
(140,212,o),
(352,-12,o),
(660,-12,cs)
);
}
);
userData = {
RMXScaler = {
height = 71.5;
weight = 20;
width = 77;
};
};
width = 1152;
}
);
unicode = 99;
userData = {
RMXScaler = {
source = C;
};
};
},
{
color = 3;
glyphname = d;
lastChange = "2023-11-23 10:09:39 +0000";
layers = (
{
anchors = (
{
name = bottom;
pos = (574,0);
},
{
name = center;
pos = (928,1262);
},
{
name = leghookretroflex;
pos = (928,0);
},
{
name = top;
pos = (926,1540);
},
{
name = topright;
pos = (964,1540);
}
);
layerId = "AB099EFE-E788-4EFC-8633-CF147CB782A6";
shapes = (
{
closed = 1;
nodes = (
(1036,38,l),
(988,64,o),
(952,138,o),
(952,232,cs),
(952,1540,l),
(890,1540,l),
(890,834,l),
(868,834,l),
(902,756,l),
(902,294,l),
(874,222,l),
(902,222,l),
(894,234,l),
(896,132,o),
(938,30,o),
(1008,-16,c)
);
},
{
pos = (1152,0);
ref = _part.bowl;
scale = (-1,1);
}
);
width = 1152;
},
{
anchors = (
{
name = bottom;
pos = (576,0);
},
{
name = center;
pos = (880,1298);
},
{
name = leghookretroflex;
pos = (884,0);
},
{
name = top;
pos = (884,1540);
},
{
name = topright;
pos = (1050,1540);
}
);
layerId = "2D8F7115-C311-411E-929D-56333CF7FFB2";
shapes = (
{
closed = 1;
nodes = (
(1130,278,l),
(1085,295,o),
(1056,341,o),
(1056,394,cs),
(1056,1540,l),
(704,1540,l),
(704,1004,l),
(680,1004,l),
(724,892,l),
(724,274,l),
(686,144,l),
(770,144,l),
(754,160,l),
(779,92,o),
(879,23,o),
(1010,-16,c)
);
},
{
pos = (1152,0);
ref = _part.bowl;
scale = (-1,1);
}
);
width = 1152;
},
{
anchors = (
{
name = bottom;
pos = (568,0);
},
{
name = center;
pos = (910,1274);
},
{
name = leghookretroflex;
pos = (910,0);
},
{
name = top;
pos = (910,1540);
},
{
name = topright;
pos = (1070,1540);
}
);
layerId = "FD1CEFBD-BAB1-4C2A-A598-30E93F9A29F6";
shapes = (
{
closed = 1;
nodes = (
(1072,140,l),
(1026,164,o),
(996,226,o),
(996,294,cs),
(996,1540,l),
(824,1540,l),
(824,930,l),
(802,930,l),
(846,824,l),
(846,290,l),
(802,172,l),
(880,172,l),
(848,196,l),
(850,122,o),
(908,40,o),
(1008,-16,c)
);
},
{
pos = (1152,0);
ref = _part.bowl;
scale = (-1,1);
}
);
width = 1152;
}
);
unicode = 100;
},
{
color = 6;
glyphname = d.ss01;
lastChange = "2023-11-23 10:09:39 +0000";
layers = (
{
anchors = (
{
name = bottom;
pos = (578,0);
},
{
name = center;
pos = (946,1262);
},
{
name = leghookretroflex;
pos = (944,0);
},
{
name = top;
pos = (940,1540);
},
{
name = topright;
pos = (976,1540);
}
);
layerId = "AB099EFE-E788-4EFC-8633-CF147CB782A6";
shapes = (
{
closed = 1;
nodes = (
(786,-16,o),
(980,200,o),
(980,524,cs),
(980,848,o),
(786,1064,o),
(544,1064,cs),
(304,1064,o),
(112,848,o),
(112,524,cs),
(112,202,o),
(304,-16,o),
(544,-16,cs)
);
},
{
closed = 1;
nodes = (
(338,40,o),
(172,236,o),
(172,524,cs),
(172,818,o),
(338,1008,o),
(548,1008,cs),
(760,1008,o),
(926,818,o),
(926,524,cs),
(926,238,o),
(760,40,o),
(548,40,cs)
);
},
{
closed = 1;
nodes = (
(984,0,l),
(984,1540,l),
(924,1540,l),
(924,804,l),
(912,804,l),
(928,744,l),
(928,272,l),
(906,240,l),
(924,240,l),
(924,0,l)
);
}
);
width = 1152;
},
{
anchors = (
{
name = bottom;
pos = (602,0);
},
{
name = center;
pos = (900,1298);
},
{
name = leghookretroflex;
pos = (930,0);
},
{
name = top;
pos = (900,1540);
},
{
name = topright;
pos = (1070,1540);
}
);
layerId = "2D8F7115-C311-411E-929D-56333CF7FFB2";
shapes = (
{
closed = 1;
nodes = (
(712,-16,o),
(850,228,o),
(850,540,cs),
(850,868,o),
(720,1096,o),
(482,1096,cs),
(226,1096,o),
(40,860,o),
(40,540,cs),
(40,220,o),
(220,-16,o),
(468,-16,cs)
);
},
{
closed = 1;
nodes = (
(450,286,o),
(374,394,o),
(374,540,cs),
(374,686,o),
(448,792,o),
(556,792,cs),
(660,792,o),
(738,688,o),
(738,540,cs),
(738,396,o),
(662,286,o),
(556,286,cs)
);
},
{
closed = 1;
nodes = (
(1068,0,l),
(1068,1540,l),
(716,1540,l),
(716,1000,l),
(694,1000,l),
(746,816,l),
(746,226,l),
(692,120,l),
(736,120,l),
(736,0,l)
);
}
);
width = 1152;
},
{
anchors = (
{
name = bottom;
pos = (578,0);
},
{
name = center;
pos = (932,1278);
},
{
name = leghookretroflex;
pos = (938,0);
},
{
name = top;
pos = (928,1540);
},
{
name = topright;
pos = (1018,1540);
}
);
layerId = "FD1CEFBD-BAB1-4C2A-A598-30E93F9A29F6";
shapes = (
{
closed = 1;
nodes = (
(788,-16,o),
(954,236,o),
(954,532,cs),
(954,854,o),
(778,1076,o),
(524,1076,cs),
(274,1076,o),
(72,856,o),
(72,532,cs),
(72,210,o),
(270,-16,o),
(524,-16,cs)
);
},
{
closed = 1;
nodes = (
(374,144,o),
(246,318,o),
(246,532,cs),
(246,754,o),
(382,916,o),
(554,916,cs),
(724,916,o),
(858,760,o),
(858,530,cs),
(858,296,o),
(722,144,o),
(554,144,cs)
);
},
{
closed = 1;
nodes = (
(1024,0,l),
(1024,1540,l),
(852,1540,l),
(852,910,l),
(834,910,l),
(858,806,l),
(858,212,l),
(830,156,l),
(854,156,l),
(854,0,l)
);
}
);
width = 1152;
}
);
},
{
color = 3;
glyphname = dcaron;
kernLeft = LAT_O_LC;
kernRight = LAT_LCARON_LC;
lastChange = "2023-11-23 10:09:39 +0000";
layers = (
{
layerId = "AB099EFE-E788-4EFC-8633-CF147CB782A6";
shapes = (
{
closed = 1;
nodes = (
(714,-16,o),
(868,198,o),
(868,528,cs),
(868,852,o),
(714,1064,o),
(482,1064,cs),
(244,1064,o),
(88,850,o),
(88,524,cs),
(88,198,o),
(244,-16,o),
(482,-16,cs)
);
},
{
closed = 1;
nodes = (
(282,38,o),
(148,230,o),
(148,524,cs),
(148,818,o),
(282,1010,o),
(482,1010,cs),
(682,1010,o),
(814,816,o),
(814,524,cs),
(814,232,o),
(682,38,o),
(480,38,cs)
);
},
{
closed = 1;
nodes = (
(982,38,l),
(924,64,o),
(876,140,o),
(876,232,cs),
(876,1540,l),
(814,1540,l),
(814,834,l),
(794,834,l),
(826,756,l),
(826,294,l),
(798,222,l),
(826,222,l),
(818,234,l),
(820,132,o),
(876,30,o),
(954,-16,c)
);
},
{
pos = (452,0);
ref = caroncomb.alt;
}
);
width = 1152;
},
{
layerId = "2D8F7115-C311-411E-929D-56333CF7FFB2";
shapes = (
{
closed = 1;
nodes = (
(541,-16,o),
(628,179,o),
(628,540,cs),
(628,901,o),
(519,1096,o),
(318,1096,cs),
(119,1096,o),
(12,901,o),
(12,540,cs),
(12,179,o),
(115,-16,o),
(346,-16,cs)
);
},
{
closed = 1;
nodes = (
(370,278,o),
(346,370,o),
(346,540,cs),
(346,709,o),
(373,800,o),
(422,800,cs),
(467,800,o),
(492,709,o),
(492,540,cs),
(492,370,o),
(465,278,o),
(414,278,cs)
);
},
{
closed = 1;
nodes = (
(930,278,l),
(872,299,o),
(832,340,o),
(832,394,cs),
(832,1540,l),
(480,1540,l),
(480,1004,l),
(462,1004,l),
(498,892,l),
(498,274,l),
(494,144,l),
(570,144,l),
(560,160,l),
(589,89,o),
(667,27,o),
(812,-16,c)
);
},
{
pos = (432,0);
ref = caroncomb.alt;
}
);
width = 1152;
},
{
layerId = "FD1CEFBD-BAB1-4C2A-A598-30E93F9A29F6";
shapes = (
{
closed = 1;
nodes = (
(689,-16,o),
(836,199,o),
(836,532,cs),
(836,863,o),
(690,1078,o),
(464,1078,cs),
(231,1078,o),
(80,863,o),
(80,532,cs),
(80,199,o),
(230,-16,o),
(462,-16,cs)
);
},
{
closed = 1;
nodes = (
(349,140,o),
(252,294,o),
(252,532,cs),
(252,769,o),
(349,922,o),
(500,922,cs),
(648,922,o),
(744,769,o),
(744,532,cs),
(744,294,o),
(647,140,o),
(498,140,cs)
);
},
{
closed = 1;
nodes = (
(1010,140,l),
(951,164,o),
(904,224,o),
(904,294,cs),
(904,1540,l),
(732,1540,l),
(732,930,l),
(710,930,l),
(750,824,l),
(750,290,l),
(712,172,l),
(782,172,l),
(756,196,l),
(760,121,o),
(840,38,o),
(946,-16,c)
);
},
{
pos = (492,0);
ref = caroncomb.alt;
}
);
width = 1152;
}
);
unicode = 271;
},
{
color = 3;
glyphname = dcaron.ss01;
kernLeft = LAT_O_LC;
kernRight = LAT_LCARON_LC;
lastChange = "2023-11-23 10:09:39 +0000";
layers = (
{
layerId = "AB099EFE-E788-4EFC-8633-CF147CB782A6";
shapes = (
{
closed = 1;
nodes = (
(738,-16,o),
(924,200,o),
(924,524,cs),
(924,848,o),
(738,1064,o),
(506,1064,cs),
(274,1064,o),
(88,848,o),
(88,524,cs),
(88,202,o),
(274,-16,o),
(506,-16,cs)
);
},
{
closed = 1;
nodes = (
(308,40,o),
(148,236,o),
(148,524,cs),
(148,818,o),
(308,1008,o),
(508,1008,cs),
(712,1008,o),
(872,818,o),
(872,524,cs),
(872,238,o),
(712,40,o),
(508,40,cs)
);
},
{
closed = 1;
nodes = (
(930,0,l),
(930,1540,l),
(870,1540,l),
(870,804,l),
(858,804,l),
(874,744,l),
(874,272,l),
(852,240,l),
(870,240,l),
(870,0,l)
);
},
{
pos = (478,0);
ref = caroncomb.alt;
}
);
width = 1152;
},
{
layerId = "2D8F7115-C311-411E-929D-56333CF7FFB2";
shapes = (
{
closed = 1;
nodes = (
(540,-16,o),
(652,187,o),
(652,540,cs),
(652,893,o),
(545,1096,o),
(358,1096,cs),
(136,1096,o),
(8,893,o),
(8,540,cs),
(8,187,o),
(130,-16,o),
(344,-16,cs)
);
},
{
closed = 1;
nodes = (
(375,286,o),
(340,379,o),
(340,540,cs),
(340,700,o),
(375,792,o),
(436,792,cs),
(496,792,o),
(530,700,o),
(530,540,cs),
(530,379,o),
(496,286,o),
(436,286,cs)
);
},
{
closed = 1;
nodes = (
(860,0,l),
(860,1540,l),
(510,1540,l),
(510,992,l),
(488,992,l),
(540,816,l),
(540,226,l),
(488,122,l),
(532,122,l),
(532,0,l)
);
},
{
pos = (460,0);
ref = caroncomb.alt;
}
);
width = 1152;
},
{
layerId = "FD1CEFBD-BAB1-4C2A-A598-30E93F9A29F6";
shapes = (
{
closed = 1;
nodes = (
(702,-16,o),
(854,236,o),
(854,532,cs),
(854,852,o),
(696,1076,o),
(464,1076,cs),
(234,1076,o),
(52,854,o),
(52,532,cs),
(52,212,o),
(230,-16,o),
(462,-16,cs)
);
},
{
closed = 1;
nodes = (
(336,144,o),
(224,318,o),
(224,532,cs),
(224,752,o),
(342,916,o),
(496,916,cs),
(646,916,o),
(762,758,o),
(762,530,cs),
(762,296,o),
(644,144,o),
(496,144,cs)
);
},
{
closed = 1;
nodes = (
(928,0,l),
(928,1540,l),
(756,1540,l),
(756,910,l),
(740,910,l),
(764,806,l),
(764,212,l),
(736,156,l),
(760,156,l),
(760,0,l)
);
},
{
pos = (490,0);
ref = caroncomb.alt;
}
);
width = 1152;
}
);
},
{
color = 6;
glyphname = dzcaron;
kernLeft = LAT_O_LC;
kernRight = LAT_Z_LC;
lastChange = "2023-11-23 10:09:18 +0000";
layers = (
{
layerId = "AB099EFE-E788-4EFC-8633-CF147CB782A6";
shapes = (
{
closed = 1;
nodes = (
(446,-16,o),
(522,182,o),
(522,526,cs),
(522,870,o),
(446,1064,o),
(296,1064,cs),
(144,1064,o),
(60,868,o),
(60,524,cs),
(60,182,o),
(144,-16,o),
(296,-16,cs)
);
},
{
closed = 1;
nodes = (
(184,40,o),
(116,216,o),
(116,524,cs),
(116,834,o),
(186,1008,o),
(302,1008,cs),
(418,1008,o),
(478,836,o),
(478,524,cs),
(478,214,o),
(418,40,o),
(302,40,cs)
);
},
{
closed = 1;
nodes = (
(590,38,l),
(562,62,o),
(532,90,o),
(532,192,cs),
(532,1540,l),
(476,1540,l),
(476,900,l),
(460,900,l),
(486,756,l),
(486,294,l),
(462,162,l),
(490,162,l),
(480,208,l),
(480,78,o),
(510,30,o),
(564,-16,c)
);
},
{
closed = 1;
nodes = (
(1096,0,l),
(1096,56,l),
(714,56,l),
(714,60,l),
(1086,1014,l),
(1086,1048,l),
(662,1048,l),
(662,992,l),
(1020,992,l),
(1020,988,l),
(646,30,l),
(646,0,l)
);
},
{
closed = 1;
nodes = (
(894,1264,l),
(1096,1474,l),
(1056,1512,l),
(882,1326,l),
(876,1326,l),
(700,1512,l),
(664,1474,l),
(864,1264,l)
);
}
);
width = 1152;
},
{
layerId = "2D8F7115-C311-411E-929D-56333CF7FFB2";
shapes = (
{
closed = 1;
nodes = (
(348,-16,o),
(410,179,o),
(410,540,cs),
(410,901,o),
(339,1096,o),
(206,1096,cs),
(85,1096,o),
(20,902,o),
(20,542,cs),
(20,179,o),
(95,-16,o),
(234,-16,cs)
);
},
{
closed = 1;
nodes = (
(275,268,o),
(256,364,o),
(256,542,cs),
(256,717,o),
(275,812,o),
(310,812,cs),
(343,812,o),
(362,717,o),
(362,542,cs),
(362,364,o),
(343,268,o),
(310,268,cs)
);
},
{
closed = 1;
nodes = (
(628,272,l),
(597,285,o),
(580,305,o),
(580,330,cs),
(580,1540,l),
(340,1540,l),
(340,1000,l),
(288,1000,l),
(364,864,l),
(364,214,l),
(344,148,l),
(396,148,l),
(370,176,l),
(372,102,o),
(427,35,o),
(526,-16,c)
);
},
{
closed = 1;
nodes = (
(1114,0,l),
(1114,240,l),
(892,240,l),
(892,246,l),
(1122,1028,l),
(1122,1080,l),
(660,1080,l),
(660,840,l),
(840,840,l),
(840,834,l),
(608,52,l),
(608,0,l)
);
},
{
closed = 1;
nodes = (
(900,1142,l),
(1144,1406,l),
(1032,1556,l),
(876,1362,l),
(872,1362,l),
(716,1556,l),
(604,1406,l),
(848,1142,l)
);
}
);
width = 1152;
},
{
layerId = "FD1CEFBD-BAB1-4C2A-A598-30E93F9A29F6";
shapes = (
{
closed = 1;
nodes = (
(407,-16,o),
(458,176,o),
(458,532,cs),
(458,887,o),
(408,1078,o),
(264,1078,cs),
(112,1078,o),
(32,887,o),
(32,532,cs),
(32,176,o),
(111,-16,o),
(260,-16,cs)
);
},
{
closed = 1;
nodes = (
(211,140,o),
(172,277,o),
(172,532,cs),
(172,785,o),
(212,922,o),
(292,922,cs),
(373,922,o),
(406,785,o),
(406,532,cs),
(406,277,o),
(372,140,o),
(288,140,cs)
);
},
{
closed = 1;
nodes = (
(602,140,l),
(567,162,o),
(548,201,o),
(548,252,cs),
(548,1540,l),
(408,1540,l),
(408,968,l),
(370,968,l),
(418,824,l),
(418,290,l),
(372,124,l),
(424,124,l),
(408,162,l),
(418,104,o),
(465,29,o),
(542,-16,c)
);
},
{
closed = 1;
nodes = (
(1096,0,l),
(1096,142,l),
(798,142,l),
(798,146,l),
(1108,1008,l),
(1108,1058,l),
(666,1058,l),
(666,916,l),
(932,916,l),
(932,912,l),
(620,42,l),
(620,0,l)
);
},
{
closed = 1;
nodes = (
(892,1244,l),
(1116,1472,l),
(1046,1550,l),
(874,1368,l),
(870,1368,l),
(698,1550,l),
(628,1472,l),
(852,1244,l)
);
}
);
width = 1152;
}
);
unicode = 454;
},
{
color = 6;
glyphname = dzcaron.ss01;
kernLeft = LAT_O_LC;
kernRight = LAT_Z_LC;
lastChange = "2023-11-23 10:09:39 +0000";
layers = (
{
background = {
shapes = (
{
closed = 1;
nodes = (
(424,1540,l),
(424,804,l),
(414,804,l),
(426,744,l),
(426,272,l),
(412,240,l),
(424,240,l),
(424,0,l),
(486,0,l),
(486,1540,l)
);
},
{
closed = 1;
nodes = (
(358,-16,o),
(468,200,o),
(468,524,cs),
(468,846,o),
(356,1064,o),
(208,1064,cs),
(62,1064,o),
(-54,846,o),
(-54,524,cs),
(-54,202,o),
(62,-16,o),
(208,-16,cs)
);
},
{
closed = 1;
nodes = (
(98,40,o),
(8,238,o),
(8,524,cs),
(8,816,o),
(100,1008,o),
(216,1008,cs),
(334,1008,o),
(426,816,o),
(426,524,cs),
(426,240,o),
(334,40,o),
(216,40,cs)
);
},
{
closed = 1;
nodes = (
(670,0,l),
(1170,0,l),
(1170,56,l),
(766,56,l),
(766,64,l),
(1162,1020,l),
(1162,1048,l),
(688,1048,l),
(688,992,l),
(1062,992,l),
(1062,984,l),
(670,36,l)
);
},
{
closed = 1;
nodes = (
(748,1474,l),
(908,1212,l),
(930,1212,l),
(1090,1474,l),
(1058,1516,l),
(922,1278,l),
(918,1278,l),
(782,1516,l)
);
}
);
};
layerId = "AB099EFE-E788-4EFC-8633-CF147CB782A6";
shapes = (
{
closed = 1;
nodes = (
(446,-16,o),
(522,184,o),
(522,526,cs),
(522,868,o),
(446,1064,o),
(294,1064,cs),
(140,1064,o),
(54,870,o),
(54,524,cs),
(54,180,o),
(140,-16,o),
(294,-16,cs)
);
},
{
closed = 1;
nodes = (
(180,40,o),
(110,214,o),
(110,524,cs),
(110,836,o),
(182,1008,o),
(298,1008,cs),
(416,1008,o),
(478,838,o),
(478,524,cs),
(478,212,o),
(416,40,o),
(298,40,cs)
);
},
{
closed = 1;
nodes = (
(532,0,l),
(532,1540,l),
(476,1540,l),
(476,900,l),
(460,900,l),
(486,756,l),
(486,294,l),
(462,162,l),
(478,162,l),
(478,0,l)
);
},
{
closed = 1;
nodes = (
(1096,0,l),
(1096,56,l),
(714,56,l),
(714,60,l),
(1086,1014,l),
(1086,1048,l),
(662,1048,l),
(662,992,l),
(1020,992,l),
(1020,988,l),
(646,30,l),
(646,0,l)
);
},
{
closed = 1;
nodes = (
(894,1264,l),
(1096,1474,l),
(1056,1512,l),
(882,1326,l),
(876,1326,l),
(700,1512,l),
(664,1474,l),
(864,1264,l)
);
}
);
width = 1152;
},
{
layerId = "2D8F7115-C311-411E-929D-56333CF7FFB2";
shapes = (
{
closed = 1;
nodes = (
(348,-16,o),
(410,179,o),
(410,540,cs),
(410,901,o),
(339,1096,o),
(206,1096,cs),
(85,1096,o),
(20,902,o),
(20,542,cs),
(20,179,o),
(95,-16,o),
(234,-16,cs)
);
},
{
closed = 1;
nodes = (
(275,268,o),
(256,364,o),
(256,542,cs),
(256,717,o),
(275,812,o),
(310,812,cs),
(343,812,o),
(362,717,o),
(362,542,cs),
(362,364,o),
(343,268,o),
(310,268,cs)
);
},
{
closed = 1;
nodes = (
(580,0,l),
(580,1540,l),
(340,1540,l),
(340,1000,l),
(288,1000,l),
(364,864,l),
(364,214,l),
(344,148,l),
(376,148,l),
(376,0,l)
);
},
{
closed = 1;
nodes = (
(1114,0,l),
(1114,240,l),
(892,240,l),
(892,246,l),
(1122,1028,l),
(1122,1080,l),
(660,1080,l),
(660,840,l),
(840,840,l),
(840,834,l),
(608,52,l),
(608,0,l)
);
},
{
closed = 1;
nodes = (
(900,1142,l),
(1144,1406,l),
(1032,1556,l),
(876,1362,l),
(872,1362,l),
(716,1556,l),
(604,1406,l),
(848,1142,l)
);
}
);
width = 1152;
},
{
layerId = "FD1CEFBD-BAB1-4C2A-A598-30E93F9A29F6";
shapes = (
{
closed = 1;
nodes = (
(409,-16,o),
(460,176,o),
(460,532,cs),
(460,887,o),
(410,1078,o),
(264,1078,cs),
(112,1078,o),
(28,887,o),
(28,532,cs),
(28,176,o),
(111,-16,o),
(260,-16,cs)
);
},
{
closed = 1;
nodes = (
(213,140,o),
(168,277,o),
(168,532,cs),
(168,785,o),
(214,922,o),
(294,922,cs),
(375,922,o),
(408,785,o),
(408,532,cs),
(408,277,o),
(374,140,o),
(290,140,cs)
);
},
{
closed = 1;
nodes = (
(550,0,l),
(550,1540,l),
(410,1540,l),
(410,968,l),
(372,968,l),
(420,824,l),
(420,290,l),
(374,124,l),
(418,124,l),
(418,0,l)
);
},
{
closed = 1;
nodes = (
(1096,0,l),
(1096,142,l),
(798,142,l),
(798,146,l),
(1108,1008,l),
(1108,1058,l),
(666,1058,l),
(666,916,l),
(932,916,l),
(932,912,l),
(620,42,l),
(620,0,l)
);
},
{
closed = 1;
nodes = (
(892,1244,l),
(1116,1472,l),
(1046,1550,l),
(874,1368,l),
(870,1368,l),
(698,1550,l),
(628,1472,l),
(852,1244,l)
);
}
);
width = 1152;
}
);
},
{
color = 6;
glyphname = eth;
lastChange = "2023-11-23 10:09:39 +0000";
layers = (
{
layerId = "AB099EFE-E788-4EFC-8633-CF147CB782A6";
shapes = (
{
closed = 1;
nodes = (
(846,-16,o),
(1026,218,o),
(1026,596,cs),
(1026,1124,o),
(676,1450,o),
(334,1558,c),
(314,1508,l),
(546,1432,o),
(844,1224,o),
(950,818,c),
(964,834,l),
(934,834,l),
(968,796,l),
(898,946,o),
(736,1024,o),
(584,1024,cs),
(320,1024,o),
(122,794,o),
(122,504,cs),
(122,210,o),
(324,-16,o),
(580,-16,cs)
);
},
{
closed = 1;
nodes = (
(376,40,o),
(182,224,o),
(182,506,cs),
(182,772,o),
(358,968,o),
(592,968,cs),
(772,968,o),
(968,850,o),
(968,546,cs),
(968,276,o),
(810,40,o),
(580,40,cs)
);
},
{
closed = 1;
nodes = (
(886,1512,l),
(868,1554,l),
(302,1220,l),
(328,1172,l)
);
}
);
width = 1152;
},
{
layerId = "2D8F7115-C311-411E-929D-56333CF7FFB2";
shapes = (
{
closed = 1;
nodes = (
(888,-16,o),
(1116,254,o),
(1116,652,cs),
(1116,1086,o),
(850,1454,o),
(330,1700,c),
(194,1426,l),
(490,1314,o),
(686,1126,o),
(776,898,c),
(820,946,l),
(732,946,l),
(792,876,l),
(766,992,o),
(618,1028,o),
(518,1028,cs),
(246,1028,o),
(34,794,o),
(34,514,cs),
(34,210,o),
(276,-16,o),
(564,-16,cs)
);
},
{
closed = 1;
nodes = (
(458,294,o),
(374,398,o),
(374,532,cs),
(374,664,o),
(460,754,o),
(572,754,cs),
(694,754,o),
(776,664,o),
(776,532,cs),
(776,400,o),
(692,294,o),
(572,294,cs)
);
},
{
closed = 1;
nodes = (
(994,1512,l),
(872,1692,l),
(198,1212,l),
(290,1082,l)
);
}
);
width = 1152;
},
{
layerId = "FD1CEFBD-BAB1-4C2A-A598-30E93F9A29F6";
shapes = (
{
closed = 1;
nodes = (
(860,-16,o),
(1060,222,o),
(1060,622,cs),
(1060,1136,o),
(732,1448,o),
(340,1614,c),
(274,1474,l),
(542,1366,o),
(790,1170,o),
(880,872,c),
(906,902,l),
(858,902,l),
(890,864,l),
(848,958,o),
(706,1032,o),
(564,1032,cs),
(304,1032,o),
(96,820,o),
(96,512,cs),
(96,202,o),
(314,-16,o),
(580,-16,cs)
);
},
{
closed = 1;
nodes = (
(412,140,o),
(266,294,o),
(266,516,cs),
(266,730,o),
(404,872,o),
(582,872,cs),
(750,872,o),
(892,746,o),
(892,528,cs),
(892,310,o),
(758,148,o),
(584,144,cs)
);
},
{
closed = 1;
nodes = (
(938,1520,l),
(876,1618,l),
(270,1236,l),
(328,1138,l)
);
}
);
width = 1152;
}
);
unicode = 240;
},
{
color = 6;
glyphname = e;
lastChange = "2023-11-23 10:09:39 +0000";
layers = (
{
anchors = (
{
name = bottom;
pos = (588,0);
},
{
name = cedilla;
pos = (590,0);
},
{
name = ogonek;
pos = (946,116);
},
{
name = top;
pos = (594,1048);
}
);
guides = (
{
angle = 112.5;
pos = (922,174);
}
);
layerId = "AB099EFE-E788-4EFC-8633-CF147CB782A6";
shapes = (
{
closed = 1;
nodes = (
(736,-16,o),
(852,30,o),
(946,116,c),
(922,174,l),
(828,90,o),
(720,40,o),
(596,40,cs),
(352,40,o),
(192,236,o),
(192,522,cs),
(192,808,o),
(356,1008,o),
(594,1008,cs),
(818,1008,o),
(966,826,o),
(958,562,c),
(180,562,l),
(180,506,l),
(1018,506,l),
(1020,524,o),
(1020,558,o),
(1020,564,cs),
(1020,866,o),
(850,1064,o),
(594,1064,cs),
(320,1064,o),
(132,844,o),
(132,526,cs),
(132,204,o),
(320,-16,o),
(606,-16,cs)
);
}
);
width = 1152;
},
{
anchors = (
{
name = bottom;
pos = (602,0);
},
{
name = cedilla;
pos = (632,0);
},
{
name = ogonek;
pos = (968,70);
},
{
name = top;
pos = (592,1080);
}
);
guides = (
{
angle = 112.5;
pos = (738,626);
}
);
layerId = "2D8F7115-C311-411E-929D-56333CF7FFB2";
shapes = (
{
closed = 1;
nodes = (
(758,-16,o),
(890,18,o),
(968,70,c),
(862,326,l),
(818,288,o),
(728,262,o),
(634,262,cs),
(480,262,o),
(380,374,o),
(380,548,cs),
(380,717,o),
(462,826,o),
(588,826,cs),
(684,826,o),
(746,752,o),
(746,638,c),
(356,638,l),
(356,426,l),
(1064,426,l),
(1074,465,o),
(1080,528,o),
(1080,586,cs),
(1080,896,o),
(891,1096,o),
(598,1096,cs),
(279,1096,o),
(72,876,o),
(72,536,cs),
(72,201,o),
(293,-16,o),
(634,-16,cs)
);
}
);
width = 1152;
},
{
anchors = (
{
name = bottom;
pos = (590,0);
},
{
name = cedilla;
pos = (600,0);
},
{
name = ogonek;
pos = (950,96);
},
{
name = top;
pos = (590,1060);
}
);
guides = (
{
angle = 112.5;
pos = (618,898);
}
);
layerId = "FD1CEFBD-BAB1-4C2A-A598-30E93F9A29F6";
shapes = (
{
closed = 1;
nodes = (
(730,-16,o),
(866,32,o),
(950,96,c),
(886,250,l),
(810,184,o),
(704,144,o),
(614,144,cs),
(418,144,o),
(280,302,o),
(280,532,cs),
(280,760,o),
(408,916,o),
(588,916,cs),
(752,916,o),
(868,788,o),
(868,602,c),
(248,602,l),
(248,462,l),
(1024,462,l),
(1032,496,o),
(1036,550,o),
(1036,590,cs),
(1036,878,o),
(852,1076,o),
(590,1076,cs),
(310,1076,o),
(116,854,o),
(116,532,cs),
(116,208,o),
(318,-16,o),
(610,-16,cs)
);
}
);
width = 1152;
}
);
unicode = 101;
},
{
color = 6;
glyphname = schwa;
lastChange = "2023-11-23 10:09:39 +0000";
layers = (
{
anchors = (
{
name = bottom;
pos = (552,0);
},
{
name = cedilla;
pos = (556,1048);
},
{
name = ogonek;
pos = (252,970);
},
{
name = top;
pos = (558,1048);
}
);
layerId = "AB099EFE-E788-4EFC-8633-CF147CB782A6";
shapes = (
{
closed = 1;
nodes = (
(826,-16,o),
(1014,216,o),
(1014,524,cs),
(1014,842,o),
(818,1064,o),
(544,1064,cs),
(404,1064,o),
(280,1002,o),
(202,930,c),
(228,874,l),
(312,952,o),
(418,1008,o),
(550,1008,cs),
(792,1008,o),
(954,812,o),
(954,528,cs),
(954,222,o),
(770,40,o),
(552,40,cs),
(328,40,o),
(180,234,o),
(188,486,c),
(966,486,l),
(966,542,l),
(128,542,l),
(126,514,o),
(126,490,o),
(126,466,cs),
(126,188,o),
(302,-16,o),
(554,-16,cs)
);
}
);
width = 1152;
},
{
anchors = (
{
name = bottom;
pos = (560,0);
},
{
name = cedilla;
pos = (522,1080);
},
{
name = ogonek;
pos = (170,1010);
},
{
name = top;
pos = (552,1080);
}
);
layerId = "2D8F7115-C311-411E-929D-56333CF7FFB2";
shapes = (
{
closed = 1;
nodes = (
(842,-16,o),
(1094,202,o),
(1094,544,cs),
(1094,868,o),
(870,1096,o),
(518,1096,cs),
(378,1096,o),
(248,1060,o),
(174,1010,c),
(280,756,l),
(314,784,o),
(430,818,o),
(516,818,cs),
(666,818,o),
(786,704,o),
(786,532,cs),
(786,386,o),
(708,254,o),
(564,254,cs),
(468,254,o),
(392,318,o),
(392,442,c),
(810,442,l),
(810,654,l),
(74,654,l),
(66,624,o),
(58,552,o),
(58,494,cs),
(58,198,o),
(268,-16,o),
(554,-16,cs)
);
}
);
width = 1152;
},
{
anchors = (
{
name = bottom;
pos = (566,0);
},
{
name = cedilla;
pos = (556,1060);
},
{
name = ogonek;
pos = (204,966);
},
{
name = top;
pos = (564,1060);
}
);
layerId = "FD1CEFBD-BAB1-4C2A-A598-30E93F9A29F6";
shapes = (
{
closed = 1;
nodes = (
(842,-16,o),
(1052,196,o),
(1052,528,cs),
(1052,862,o),
(840,1076,o),
(544,1076,cs),
(404,1076,o),
(278,1026,o),
(198,966,c),
(262,810,l),
(320,858,o),
(416,916,o),
(540,916,cs),
(750,916,o),
(888,760,o),
(888,528,cs),
(888,298,o),
(752,144,o),
(568,144,cs),
(392,144,o),
(276,286,o),
(276,458,c),
(920,458,l),
(920,598,l),
(120,598,l),
(114,570,o),
(108,526,o),
(108,470,cs),
(108,188,o),
(300,-16,o),
(566,-16,cs)
);
}
);
width = 1152;
}
);
unicode = 601;
},
{
color = 6;
glyphname = f;
lastChange = "2023-11-23 10:09:39 +0000";
layers = (
{
anchors = (
{
name = bottom;
pos = (464,0);
},
{
name = top;
pos = (818,1540);
}
);
layerId = "AB099EFE-E788-4EFC-8633-CF147CB782A6";
shapes = (
{
closed = 1;
nodes = (
(496,0,l),
(496,1198,ls),
(496,1398,o),
(612,1500,o),
(774,1500,cs),
(858,1500,o),
(950,1472,o),
(1018,1424,c),
(1044,1476,l),
(972,1522,o),
(882,1556,o),
(780,1556,cs),
(588,1556,o),
(436,1438,o),
(436,1186,cs),
(436,0,l)
);
},
{
closed = 1;
nodes = (
(1010,992,l),
(1010,1048,l),
(156,1048,l),
(156,992,l)
);
}
);
width = 1152;
},
{
anchors = (
{
name = bottom;
pos = (470,0);
},
{
name = top;
pos = (716,1540);
}
);
layerId = "2D8F7115-C311-411E-929D-56333CF7FFB2";
shapes = (
{
closed = 1;
nodes = (
(692,0,l),
(692,1130,ls),
(692,1210,o),
(756,1266,o),
(850,1266,cs),
(904,1266,o),
(966,1248,o),
(998,1224,c),
(1128,1496,l),
(1040,1548,o),
(924,1576,o),
(812,1576,cs),
(546,1576,o),
(336,1414,o),
(336,1130,cs),
(336,0,l)
);
},
{
closed = 1;
nodes = (
(1030,780,l),
(1030,1080,l),
(100,1080,l),
(100,780,l)
);
}
);
width = 1152;
},
{
anchors = (
{
name = bottom;
pos = (498,0);
},
{
name = top;
pos = (794,1540);
}
);
layerId = "FD1CEFBD-BAB1-4C2A-A598-30E93F9A29F6";
shapes = (
{
closed = 1;
nodes = (
(584,0,l),
(584,1172,ls),
(584,1330,o),
(670,1408,o),
(794,1408,cs),
(852,1408,o),
(930,1384,o),
(1000,1336,c),
(1064,1482,l),
(976,1534,o),
(864,1564,o),
(776,1564,cs),
(562,1564,o),
(412,1420,o),
(412,1166,cs),
(412,0,l)
);
},
{
closed = 1;
nodes = (
(1002,904,l),
(1002,1060,l),
(144,1060,l),
(144,904,l)
);
}
);
width = 1152;
}
);
unicode = 102;
},
{
color = 6;
glyphname = g;
lastChange = "2023-11-23 10:09:39 +0000";
layers = (
{
anchors = (
{
name = bottom;
pos = (572,-420);
},
{
name = top;
pos = (568,1048);
}
);
layerId = "AB099EFE-E788-4EFC-8633-CF147CB782A6";
shapes = (
{
closed = 1;
nodes = (
(726,-436,o),
(960,-318,o),
(960,8,cs),
(960,1048,l),
(900,1048,l),
(900,834,l),
(892,834,l),
(904,772,l),
(904,282,l),
(892,224,l),
(902,224,l),
(902,4,ls),
(902,-244,o),
(744,-380,o),
(554,-380,cs),
(450,-380,o),
(340,-340,o),
(264,-266,c),
(240,-326,l),
(310,-388,o),
(450,-436,o),
(556,-436,cs)
);
},
{
closed = 1;
nodes = (
(768,-16,o),
(958,158,o),
(958,528,cs),
(958,896,o),
(772,1064,o),
(556,1064,cs),
(304,1064,o),
(140,856,o),
(140,528,cs),
(140,190,o),
(310,-16,o),
(554,-16,cs)
);
},
{
closed = 1;
nodes = (
(352,40,o),
(200,232,o),
(200,528,cs),
(200,816,o),
(338,1008,o),
(552,1008,cs),
(758,1008,o),
(904,824,o),
(904,538,cs),
(904,250,o),
(758,40,o),
(552,40,cs)
);
}
);
width = 1152;
},
{
anchors = (
{
name = bottom;
pos = (570,-420);
},
{
name = top;
pos = (548,1080);
}
);
layerId = "2D8F7115-C311-411E-929D-56333CF7FFB2";
shapes = (
{
closed = 1;
nodes = (
(846,-436,o),
(1044,-256,o),
(1044,70,cs),
(1044,1080,l),
(732,1080,l),
(732,982,l),
(650,982,l),
(736,860,l),
(736,250,l),
(686,148,l),
(716,148,l),
(716,50,ls),
(716,-84,o),
(568,-142,o),
(474,-142,cs),
(410,-142,o),
(336,-118,o),
(248,-64,c),
(134,-338,l),
(210,-384,o),
(356,-436,o),
(520,-436,cs)
);
},
{
closed = 1;
nodes = (
(698,28,o),
(882,286,o),
(882,578,cs),
(882,858,o),
(716,1096,o),
(474,1096,cs),
(284,1096,o),
(64,926,o),
(64,558,cs),
(64,184,o),
(288,28,o),
(464,28,cs)
);
},
{
closed = 1;
nodes = (
(470,312,o),
(406,420,o),
(406,570,cs),
(406,724,o),
(478,814,o),
(570,814,cs),
(664,814,o),
(732,722,o),
(732,570,cs),
(732,418,o),
(660,312,o),
(560,312,cs)
);
}
);
width = 1152;
},
{
anchors = (
{
name = bottom;
pos = (570,-420);
},
{
name = top;
pos = (560,1060);
}
);
layerId = "FD1CEFBD-BAB1-4C2A-A598-30E93F9A29F6";
shapes = (
{
closed = 1;
nodes = (
(772,-436,o),
(1000,-298,o),
(1000,32,cs),
(1000,1060,l),
(828,1060,l),
(828,926,l),
(792,926,l),
(838,828,l),
(838,258,l),
(804,164,l),
(832,164,l),
(832,24,ls),
(832,-196,o),
(660,-280,o),
(526,-280,cs),
(424,-280,o),
(310,-232,o),
(254,-182,c),
(192,-334,l),
(268,-388,o),
(406,-436,o),
(542,-436,cs)
);
},
{
closed = 1;
nodes = (
(766,-4,o),
(944,226,o),
(944,544,cs),
(944,860,o),
(774,1076,o),
(540,1076,cs),
(310,1076,o),
(100,878,o),
(100,540,cs),
(100,206,o),
(306,-4,o),
(532,-4,cs)
);
},
{
closed = 1;
nodes = (
(396,156,o),
(276,318,o),
(276,540,cs),
(276,762,o),
(394,916,o),
(560,916,cs),
(718,916,o),
(836,770,o),
(836,544,cs),
(836,316,o),
(718,156,o),
(560,156,cs)
);
}
);
width = 1152;
}
);
unicode = 103;
},
{
color = 6;
glyphname = g.ss01;
lastChange = "2023-11-23 10:09:39 +0000";
layers = (
{
anchors = (
{
name = bottom;
pos = (578,-420);
},
{
name = top;
pos = (574,1048);
}
);
layerId = "AB099EFE-E788-4EFC-8633-CF147CB782A6";
shapes = (
{
closed = 1;
nodes = (
(746,-436,o),
(990,-318,o),
(990,8,cs),
(990,1048,l),
(930,1048,l),
(930,810,l),
(914,810,l),
(934,740,l),
(934,318,l),
(918,248,l),
(930,248,l),
(930,4,ls),
(930,-268,o),
(732,-382,o),
(562,-380,cs),
(452,-378,o),
(314,-334,o),
(246,-266,c),
(222,-326,l),
(292,-388,o),
(446,-436,o),
(562,-436,cs)
);
},
{
closed = 1;
nodes = (
(790,-16,o),
(986,202,o),
(986,524,cs),
(986,850,o),
(790,1064,o),
(546,1064,cs),
(302,1064,o),
(108,848,o),
(108,524,cs),
(108,202,o),
(302,-16,o),
(546,-16,cs)
);
},
{
closed = 1;
nodes = (
(336,40,o),
(168,236,o),
(168,524,cs),
(168,818,o),
(336,1008,o),
(548,1008,cs),
(764,1008,o),
(932,818,o),
(932,524,cs),
(932,238,o),
(764,40,o),
(548,40,cs)
);
}
);
width = 1152;
},
{
anchors = (
{
name = bottom;
pos = (586,-420);
},
{
name = top;
pos = (564,1080);
}
);
layerId = "2D8F7115-C311-411E-929D-56333CF7FFB2";
shapes = (
{
closed = 1;
nodes = (
(850,-436,o),
(1064,-256,o),
(1064,70,cs),
(1064,1080,l),
(734,1080,l),
(734,976,l),
(688,976,l),
(734,854,l),
(734,212,l),
(676,160,l),
(734,160,l),
(734,50,ls),
(734,-92,o),
(578,-142,o),
(484,-142,cs),
(404,-142,o),
(316,-114,o),
(234,-64,c),
(126,-338,l),
(202,-384,o),
(328,-436,o),
(516,-436,cs)
);
},
{
closed = 1;
nodes = (
(708,30,o),
(844,264,o),
(844,564,cs),
(844,878,o),
(718,1096,o),
(482,1096,cs),
(228,1096,o),
(44,870,o),
(44,564,cs),
(44,256,o),
(224,30,o),
(468,30,cs)
);
},
{
closed = 1;
nodes = (
(454,320,o),
(378,422,o),
(378,564,cs),
(378,706,o),
(452,804,o),
(556,804,cs),
(656,804,o),
(734,708,o),
(734,564,cs),
(734,422,o),
(656,320,o),
(556,320,cs)
);
}
);
width = 1152;
},
{
anchors = (
{
name = bottom;
pos = (584,-420);
},
{
name = top;
pos = (572,1060);
}
);
layerId = "FD1CEFBD-BAB1-4C2A-A598-30E93F9A29F6";
shapes = (
{
closed = 1;
nodes = (
(792,-434,o),
(1016,-284,o),
(1016,32,cs),
(1016,1060,l),
(848,1060,l),
(848,914,l),
(822,914,l),
(856,828,l),
(856,262,l),
(818,168,l),
(848,168,l),
(848,24,ls),
(848,-202,o),
(666,-278,o),
(532,-278,cs),
(420,-278,o),
(308,-232,o),
(234,-168,c),
(170,-320,l),
(252,-386,o),
(396,-434,o),
(538,-434,cs)
);
},
{
closed = 1;
nodes = (
(786,4,o),
(946,252,o),
(946,544,cs),
(946,860,o),
(776,1076,o),
(524,1076,cs),
(272,1076,o),
(80,860,o),
(80,544,cs),
(80,228,o),
(270,4,o),
(524,4,cs)
);
},
{
closed = 1;
nodes = (
(376,162,o),
(252,332,o),
(252,544,cs),
(252,762,o),
(382,918,o),
(554,918,cs),
(722,918,o),
(852,768,o),
(852,542,cs),
(852,312,o),
(718,162,o),
(552,162,cs)
);
}
);
width = 1152;
}
);
},
{
color = 6;
glyphname = g.ss03;
lastChange = "2023-11-23 10:10:50 +0000";
layers = (
{
anchors = (
{
name = bottom;
pos = (570,-438);
},
{
name = top;
pos = (544,1048);
}
);
layerId = "AB099EFE-E788-4EFC-8633-CF147CB782A6";
shapes = (
{
closed = 1;
nodes = (
(822,-438,o),
(1034,-298,o),
(1034,-106,cs),
(1034,34,o),
(916,126,o),
(728,126,cs),
(458,126,ls),
(330,126,o),
(230,200,o),
(230,312,cs),
(230,362,o),
(250,404,o),
(286,438,c),
(248,484,l),
(214,452,o),
(174,390,o),
(174,316,cs),
(174,198,o),
(266,70,o),
(460,70,cs),
(742,70,ls),
(888,70,o),
(974,0,o),
(974,-106,cs),
(974,-258,o),
(806,-382,o),
(558,-382,cs),
(338,-382,o),
(188,-284,o),
(188,-140,cs),
(188,-38,o),
(272,74,o),
(350,106,c),
(298,144,l),
(204,90,o),
(128,-26,o),
(128,-140,cs),
(128,-316,o),
(304,-438,o),
(554,-438,cs)
);
},
{
closed = 1;
nodes = (
(772,332,o),
(940,480,o),
(940,702,cs),
(940,918,o),
(780,1064,o),
(546,1064,cs),
(320,1064,o),
(152,922,o),
(152,704,cs),
(152,484,o),
(322,332,o),
(548,332,cs)
);
},
{
closed = 1;
nodes = (
(358,388,o),
(216,520,o),
(216,700,cs),
(216,876,o),
(350,1008,o),
(544,1008,cs),
(734,1008,o),
(880,886,o),
(880,700,cs),
(880,504,o),
(720,388,o),
(544,388,cs)
);
},
{
closed = 1;
nodes = (
(908,964,o),
(960,992,o),
(1054,1036,c),
(1022,1094,l),
(956,1062,o),
(906,1032,o),
(822,966,c),
(846,914,l)
);
}
);
width = 1152;
},
{
anchors = (
{
name = bottom;
pos = (558,-438);
},
{
name = top;
pos = (544,1080);
}
);
background = {
shapes = (
{
closed = 1;
nodes = (
(995,-455,o),
(1200,-303,o),
(1200,-82,cs),
(1200,98,o),
(1061,209,o),
(836,208,cs),
(586,208,ls),
(471,209,o),
(381,246,o),
(380,316,cs),
(381,356,o),
(406,385,o),
(434,398,c),
(316,504,l),
(193,446,o),
(147,315,o),
(148,242,cs),
(147,82,o),
(336,-4,o),
(610,-4,cs),
(734,-4,ls),
(819,-4,o),
(872,-37,o),
(872,-82,cs),
(872,-147,o),
(766,-180,o),
(626,-180,cs),
(479,-180,o),
(324,-143,o),
(324,-58,cs),
(324,-8,o),
(369,41,o),
(426,58,c),
(230,126,l),
(131,102,o),
(41,-20,o),
(40,-140,cs),
(41,-319,o),
(246,-455,o),
(610,-454,cs)
);
}
);
};
layerId = "2D8F7115-C311-411E-929D-56333CF7FFB2";
shapes = (
{
closed = 1;
nodes = (
(986,-438,o),
(1138,-284,o),
(1138,-82,cs),
(1138,120,o),
(980,234,o),
(764,234,cs),
(534,234,ls),
(432,234,o),
(344,234,o),
(344,300,cs),
(344,338,o),
(376,372,o),
(410,386,c),
(204,472,l),
(158,450,o),
(82,384,o),
(82,282,cs),
(82,124,o),
(228,-4,o),
(490,-4,cs),
(698,-4,ls),
(734,-4,o),
(810,-4,o),
(810,-70,cs),
(810,-152,o),
(704,-164,o),
(584,-164,cs),
(454,-164,o),
(302,-150,o),
(302,-54,cs),
(302,-14,o),
(332,46,o),
(396,66,c),
(200,126,l),
(108,102,o),
(18,-18,o),
(18,-148,cs),
(18,-328,o),
(196,-438,o),
(558,-438,cs)
);
},
{
closed = 1;
nodes = (
(808,308,o),
(1004,476,o),
(1004,704,cs),
(1004,938,o),
(800,1098,o),
(542,1098,cs),
(288,1098,o),
(96,942,o),
(96,716,cs),
(96,484,o),
(296,308,o),
(554,308,cs)
);
},
{
closed = 1;
nodes = (
(466,544,o),
(400,614,o),
(400,698,cs),
(400,782,o),
(468,852,o),
(548,852,cs),
(628,852,o),
(696,790,o),
(696,696,cs),
(696,602,o),
(628,544,o),
(552,544,cs)
);
},
{
closed = 1;
nodes = (
(992,926,o),
(1022,938,o),
(1150,938,c),
(1086,1192,l),
(972,1162,o),
(880,1110,o),
(746,1008,c),
(892,888,l)
);
}
);
width = 1152;
},
{
anchors = (
{
name = bottom;
pos = (568,-438);
},
{
name = top;
pos = (550,1060);
}
);
layerId = "FD1CEFBD-BAB1-4C2A-A598-30E93F9A29F6";
shapes = (
{
closed = 1;
nodes = (
(884,-438,o),
(1070,-274,o),
(1074,-94,cs),
(1076,58,o),
(948,168,o),
(744,168,cs),
(518,168,ls),
(434,168,o),
(326,194,o),
(326,300,cs),
(326,342,o),
(348,366,o),
(386,394,c),
(268,488,l),
(218,438,o),
(172,372,o),
(172,294,cs),
(172,172,o),
(280,20,o),
(524,20,cs),
(698,20,ls),
(812,20,o),
(902,-8,o),
(902,-96,cs),
(902,-206,o),
(770,-282,o),
(568,-282,cs),
(394,-282,o),
(258,-230,o),
(258,-106,cs),
(258,-18,o),
(330,46,o),
(390,66,c),
(264,140,l),
(166,86,o),
(94,-14,o),
(94,-122,cs),
(94,-312,o),
(284,-438,o),
(570,-438,cs)
);
},
{
closed = 1;
nodes = (
(796,328,o),
(968,488,o),
(968,704,cs),
(968,926,o),
(796,1076,o),
(556,1076,cs),
(322,1076,o),
(146,926,o),
(146,704,cs),
(146,480,o),
(324,328,o),
(558,328,cs)
);
},
{
closed = 1;
nodes = (
(424,476,o),
(318,570,o),
(318,700,cs),
(318,832,o),
(422,928,o),
(560,928,cs),
(686,928,o),
(798,854,o),
(798,704,cs),
(798,570,o),
(696,476,o),
(560,476,cs)
);
},
{
closed = 1;
nodes = (
(944,942,o),
(990,972,o),
(1090,992,c),
(1024,1142,l),
(932,1104,o),
(866,1068,o),
(766,996,c),
(862,898,l)
);
}
);
width = 1152;
}
);
},
{
color = 6;
glyphname = h;
lastChange = "2023-11-23 10:09:39 +0000";
layers = (
{
anchors = (
{
name = bottom;
pos = (578,0);
},
{
name = center;
pos = (230,1262);
},
{
name = top;
pos = (230,1474);
}
);
layerId = "AB099EFE-E788-4EFC-8633-CF147CB782A6";
shapes = (
{
closed = 1;
nodes = (
(260,0,l),
(260,668,ls),
(260,870,o),
(402,1008,o),
(592,1008,cs),
(782,1008,o),
(896,882,o),
(896,672,cs),
(896,0,l),
(956,0,l),
(956,676,ls),
(956,912,o),
(814,1064,o),
(600,1064,cs),
(418,1064,o),
(282,962,o),
(246,832,c),
(290,876,l),
(260,876,l),
(260,1540,l),
(200,1540,l),
(200,0,l)
);
}
);
width = 1152;
},
{
anchors = (
{
name = bottom;
pos = (580,0);
},
{
name = center;
pos = (272,1298);
},
{
name = top;
pos = (272,1540);
}
);
layerId = "2D8F7115-C311-411E-929D-56333CF7FFB2";
shapes = (
{
closed = 1;
nodes = (
(452,0,l),
(452,630,ls),
(452,744,o),
(512,806,o),
(584,806,cs),
(658,806,o),
(708,750,o),
(708,634,cs),
(708,0,l),
(1064,0,l),
(1064,712,ls),
(1064,950,o),
(938,1096,o),
(730,1096,cs),
(582,1096,o),
(428,1020,o),
(400,868,c),
(514,988,l),
(452,988,l),
(452,1540,l),
(96,1540,l),
(96,0,l)
);
}
);
width = 1152;
},
{
anchors = (
{
name = bottom;
pos = (576,0);
},
{
name = center;
pos = (246,1274);
},
{
name = top;
pos = (242,1516);
}
);
layerId = "FD1CEFBD-BAB1-4C2A-A598-30E93F9A29F6";
shapes = (
{
closed = 1;
nodes = (
(328,0,l),
(328,644,ls),
(328,824,o),
(448,916,o),
(590,916,cs),
(728,916,o),
(828,824,o),
(828,644,cs),
(828,0,l),
(1000,0,l),
(1000,680,ls),
(1000,864,o),
(888,1076,o),
(642,1076,cs),
(478,1076,o),
(338,996,o),
(294,860,c),
(368,938,l),
(328,938,l),
(328,1540,l),
(156,1540,l),
(156,0,l)
);
}
);
width = 1152;
}
);
metricRight = n;
unicode = 104;
},
{
color = 6;
glyphname = idotless;
lastChange = "2023-11-23 10:09:18 +0000";
layers = (
{
anchors = (
{
name = bottom;
pos = (662,0);
},
{
name = ogonek;
pos = (664,0);
},
{
name = top;
pos = (632,1048);
}
);
layerId = "AB099EFE-E788-4EFC-8633-CF147CB782A6";
shapes = (
{
closed = 1;
nodes = (
(664,0,l),
(664,1048,l),
(604,1048,l),
(604,0,l)
);
},
{
closed = 1;
nodes = (
(664,992,l),
(664,1048,l),
(212,1048,l),
(212,992,l)
);
}
);
width = 1152;
},
{
anchors = (
{
name = bottom;
pos = (640,0);
},
{
name = ogonek;
pos = (818,0);
},
{
name = top;
pos = (640,1080);
}
);
layerId = "2D8F7115-C311-411E-929D-56333CF7FFB2";
shapes = (
{
closed = 1;
nodes = (
(818,0,l),
(818,1080,l),
(462,1080,l),
(462,0,l)
);
},
{
closed = 1;
nodes = (
(818,780,l),
(818,1080,l),
(154,1080,l),
(154,780,l)
);
}
);
width = 1152;
},
{
anchors = (
{
name = bottom;
pos = (636,0);
},
{
name = ogonek;
pos = (716,0);
},
{
name = top;
pos = (634,1060);
}
);
layerId = "FD1CEFBD-BAB1-4C2A-A598-30E93F9A29F6";
shapes = (
{
closed = 1;
nodes = (
(716,0,l),
(716,1060,l),
(544,1060,l),
(544,0,l)
);
},
{
closed = 1;
nodes = (
(716,904,l),
(716,1060,l),
(216,1060,l),
(216,904,l)
);
}
);
width = 1152;
}
);
unicode = 305;
},
{
color = 6;
glyphname = idotless.ss01;
kernRight = LAT_A_LC;
lastChange = "2023-11-23 10:09:39 +0000";
layers = (
{
anchors = (
{
name = bottom;
pos = (632,0);
},
{
name = ogonek;
pos = (972,0);
},
{
name = top;
pos = (632,1048);
}
);
background = {
anchors = (
{
name = bottom;
pos = (300,0);
},
{
name = center;
pos = (218,570);
},
{
name = ogonek;
pos = (438,12);
},
{
name = top;
pos = (218,1048);
}
);
shapes = (
{
closed = 1;
nodes = (
(375,-8,o),
(418,0,o),
(438,12,c),
(438,74,l),
(410,59,o),
(371,49,o),
(336,50,cs),
(248,49,o),
(246,119,o),
(246,208,cs),
(246,1048,l),
(184,1048,l),
(184,222,ls),
(184,111,o),
(184,-8,o),
(340,-8,cs)
);
}
);
};
guides = (
{
angle = 80;
pos = (182,-8);
}
);
layerId = "AB099EFE-E788-4EFC-8633-CF147CB782A6";
shapes = (
{
closed = 1;
nodes = (
(656,0,l),
(656,1048,l),
(596,1048,l),
(596,0,l)
);
},
{
closed = 1;
nodes = (
(972,0,l),
(972,56,l),
(216,56,l),
(216,0,l)
);
},
{
closed = 1;
nodes = (
(648,992,l),
(648,1048,l),
(216,1048,l),
(216,992,l)
);
}
);
width = 1152;
},
{
anchors = (
{
name = bottom;
pos = (630,0);
},
{
name = ogonek;
pos = (1048,0);
},
{
name = top;
pos = (630,1080);
}
);
background = {
anchors = (
{
name = bottom;
pos = (336,0);
},
{
name = center;
pos = (312,570);
},
{
name = ogonek;
pos = (598,8);
},
{
name = top;
pos = (312,1080);
}
);
shapes = (
{
closed = 1;
nodes = (
(483,-16,o),
(551,-10,o),
(598,8,c),
(598,286,l),
(571,281,o),
(559,279,o),
(544,278,cs),
(487,279,o),
(483,319,o),
(484,376,cs),
(484,1082,l),
(126,1082,l),
(126,278,ls),
(127,111,o),
(238,-16,o),
(430,-16,cs)
);
}
);
};
guides = (
{
angle = 80;
pos = (308,-8);
}
);
layerId = "2D8F7115-C311-411E-929D-56333CF7FFB2";
shapes = (
{
closed = 1;
nodes = (
(808,0,l),
(808,1080,l),
(452,1080,l),
(452,0,l)
);
},
{
closed = 1;
nodes = (
(1048,0,l),
(1048,300,l),
(172,300,l),
(172,0,l)
);
},
{
closed = 1;
nodes = (
(808,780,l),
(808,1080,l),
(172,1080,l),
(172,780,l)
);
}
);
width = 1152;
},
{
anchors = (
{
name = bottom;
pos = (622,0);
},
{
name = ogonek;
pos = (1002,0);
},
{
name = top;
pos = (622,1060);
}
);
layerId = "FD1CEFBD-BAB1-4C2A-A598-30E93F9A29F6";
shapes = (
{
closed = 1;
nodes = (
(708,0,l),
(708,1060,l),
(536,1060,l),
(536,0,l)
);
},
{
closed = 1;
nodes = (
(1004,0,l),
(1004,156,l),
(224,156,l),
(224,0,l)
);
},
{
closed = 1;
nodes = (
(708,904,l),
(708,1060,l),
(224,1060,l),
(224,904,l)
);
}
);
width = 1152;
}
);
},
{
color = 6;
glyphname = idotless.ss02;
lastChange = "2023-11-23 10:09:39 +0000";
layers = (
{
anchors = (
{
name = bottom;
pos = (620,0);
},
{
name = ogonek;
pos = (1076,66);
},
{
name = top;
pos = (590,1048);
}
);
layerId = "AB099EFE-E788-4EFC-8633-CF147CB782A6";
shapes = (
{
closed = 1;
nodes = (
(928,-12,o),
(1025,20,o),
(1078,66,c),
(1052,120,l),
(1007,75,o),
(921,44,o),
(842,44,cs),
(712,44,o),
(622,146,o),
(622,294,cs),
(622,1048,l),
(562,1048,l),
(562,306,ls),
(562,117,o),
(675,-12,o),
(840,-12,cs)
);
},
{
closed = 1;
nodes = (
(622,992,l),
(622,1048,l),
(170,1048,l),
(170,992,l)
);
}
);
width = 1152;
},
{
anchors = (
{
name = bottom;
pos = (556,0);
},
{
name = ogonek;
pos = (1088,62);
},
{
name = top;
pos = (556,1080);
}
);
guides = (
{
angle = 60;
pos = (180,0);
}
);
layerId = "2D8F7115-C311-411E-929D-56333CF7FFB2";
shapes = (
{
closed = 1;
nodes = (
(910,-16,o),
(1032,20,o),
(1088,62,c),
(972,332,l),
(940,306,o),
(896,286,o),
(848,286,cs),
(782,286,o),
(734,318,o),
(734,392,cs),
(734,1080,l),
(376,1080,l),
(376,392,ls),
(376,140,o),
(540,-16,o),
(794,-16,cs)
);
},
{
closed = 1;
nodes = (
(734,780,l),
(734,1080,l),
(96,1080,l),
(96,780,l)
);
}
);
width = 1152;
},
{
anchors = (
{
name = bottom;
pos = (556,0);
},
{
name = ogonek;
pos = (1060,74);
},
{
name = top;
pos = (554,1060);
}
);
layerId = "FD1CEFBD-BAB1-4C2A-A598-30E93F9A29F6";
shapes = (
{
closed = 1;
nodes = (
(896,-16,o),
(990,16,o),
(1060,68,c),
(994,220,l),
(950,174,o),
(882,144,o),
(818,144,cs),
(716,144,o),
(636,222,o),
(636,336,cs),
(636,1060,l),
(464,1060,l),
(464,334,ls),
(464,126,o),
(610,-16,o),
(802,-16,cs)
);
},
{
closed = 1;
nodes = (
(636,904,l),
(636,1060,l),
(136,1060,l),
(136,904,l)
);
}
);
width = 1152;
}
);
},
{
color = 6;
glyphname = jdotless;
lastChange = "2023-11-23 10:09:39 +0000";
layers = (
{
anchors = (
{
name = center;
pos = (732,570);
},
{
name = top;
pos = (732,1048);
}
);
guides = (
{
angle = 67.5;
pos = (174,-238);
}
);
layerId = "AB099EFE-E788-4EFC-8633-CF147CB782A6";
shapes = (
{
closed = 1;
nodes = (
(762,-436,o),
(762,-168,o),
(762,-98,cs),
(762,1048,l),
(702,1048,l),
(702,-110,ls),
(702,-268,o),
(610,-380,o),
(420,-380,cs),
(326,-380,o),
(232,-352,o),
(146,-304,c),
(124,-360,l),
(218,-412,o),
(308,-436,o),
(412,-436,cs)
);
},
{
closed = 1;
nodes = (
(762,992,l),
(762,1048,l),
(282,1048,l),
(282,992,l)
);
}
);
width = 1152;
},
{
anchors = (
{
name = center;
pos = (734,570);
},
{
name = top;
pos = (734,1080);
}
);
guides = (
{
angle = 67.5;
pos = (150,-68);
}
);
layerId = "2D8F7115-C311-411E-929D-56333CF7FFB2";
shapes = (
{
closed = 1;
nodes = (
(722,-436,o),
(912,-260,o),
(912,10,cs),
(912,1080,l),
(556,1080,l),
(556,10,ls),
(556,-108,o),
(454,-134,o),
(382,-134,cs),
(308,-134,o),
(216,-108,o),
(150,-68,c),
(32,-352,l),
(142,-406,o),
(280,-436,o),
(410,-436,cs)
);
},
{
closed = 1;
nodes = (
(912,760,l),
(912,1080,l),
(196,1080,l),
(196,760,l)
);
}
);
width = 1152;
},
{
anchors = (
{
name = center;
pos = (746,570);
},
{
name = top;
pos = (746,1060);
}
);
guides = (
{
angle = 67.5;
pos = (144,-192);
}
);
layerId = "FD1CEFBD-BAB1-4C2A-A598-30E93F9A29F6";
shapes = (
{
closed = 1;
nodes = (
(666,-436,o),
(832,-304,o),
(832,-86,cs),
(832,1060,l),
(660,1060,l),
(660,-68,ls),
(660,-196,o),
(562,-276,o),
(424,-276,cs),
(338,-276,o),
(242,-244,o),
(168,-192,c),
(104,-346,l),
(202,-402,o),
(306,-436,o),
(428,-436,cs)
);
},
{
closed = 1;
nodes = (
(832,904,l),
(832,1060,l),
(300,1060,l),
(300,904,l)
);
}
);
width = 1152;
}
);
unicode = 567;
},
{
color = 6;
glyphname = k;
lastChange = "2023-11-23 10:09:39 +0000";
layers = (
{
anchors = (
{
name = bottom;
pos = (616,0);
},
{
name = top;
pos = (258,1540);
}
);
layerId = "AB099EFE-E788-4EFC-8633-CF147CB782A6";
shapes = (
{
closed = 1;
nodes = (
(292,0,l),
(292,504,l),
(388,504,l),
(332,528,l),
(956,0,l),
(1046,0,l),
(396,552,l),
(396,516,l),
(1002,1048,l),
(912,1048,l),
(332,540,l),
(388,566,l),
(292,566,l),
(292,1540,l),
(232,1540,l),
(232,0,l)
);
}
);
width = 1152;
},
{
anchors = (
{
name = bottom;
pos = (584,0);
},
{
name = top;
pos = (278,1540);
}
);
layerId = "2D8F7115-C311-411E-929D-56333CF7FFB2";
shapes = (
{
closed = 1;
nodes = (
(452,0,l),
(452,454,l),
(530,454,l),
(424,508,l),
(736,0,l),
(1148,0,l),
(682,668,l),
(682,462,l),
(1134,1080,l),
(722,1080,l),
(428,606,l),
(530,660,l),
(452,660,l),
(452,1540,l),
(96,1540,l),
(96,0,l)
);
}
);
width = 1152;
},
{
anchors = (
{
name = bottom;
pos = (604,0);
},
{
name = top;
pos = (274,1540);
}
);
layerId = "FD1CEFBD-BAB1-4C2A-A598-30E93F9A29F6";
shapes = (
{
closed = 1;
nodes = (
(360,0,l),
(360,480,l),
(448,480,l),
(372,528,l),
(870,0,l),
(1092,0,l),
(520,602,l),
(520,508,l),
(1060,1060,l),
(838,1060,l),
(372,582,l),
(448,626,l),
(360,626,l),
(360,1540,l),
(188,1540,l),
(188,0,l)
);
}
);
width = 1152;
}
);
unicode = 107;
},
{
color = 6;
glyphname = kgreenlandic;
lastChange = "2023-11-23 10:09:39 +0000";
layers = (
{
anchors = (
{
name = bottom;
pos = (586,0);
},
{
name = top;
pos = (586,1048);
}
);
layerId = "AB099EFE-E788-4EFC-8633-CF147CB782A6";
shapes = (
{
closed = 1;
nodes = (
(292,0,l),
(292,504,l),
(386,504,l),
(330,528,l),
(956,0,l),
(1046,0,l),
(394,552,l),
(394,516,l),
(1002,1048,l),
(912,1048,l),
(330,540,l),
(386,566,l),
(292,566,l),
(292,1048,l),
(232,1048,l),
(232,0,l)
);
}
);
width = 1152;
},
{
anchors = (
{
name = bottom;
pos = (576,0);
},
{
name = top;
pos = (576,1080);
}
);
layerId = "2D8F7115-C311-411E-929D-56333CF7FFB2";
shapes = (
{
closed = 1;
nodes = (
(448,0,l),
(448,454,l),
(528,454,l),
(422,508,l),
(752,0,l),
(1164,0,l),
(680,668,l),
(680,462,l),
(1148,1082,l),
(736,1082,l),
(426,606,l),
(528,660,l),
(448,660,l),
(448,1082,l),
(92,1082,l),
(92,0,l)
);
}
);
width = 1152;
},
{
anchors = (
{
name = bottom;
pos = (578,0);
},
{
name = top;
pos = (578,1060);
}
);
layerId = "FD1CEFBD-BAB1-4C2A-A598-30E93F9A29F6";
shapes = (
{
closed = 1;
nodes = (
(348,0,l),
(348,458,l),
(436,458,l),
(358,508,l),
(874,0,l),
(1096,0,l),
(508,582,l),
(508,488,l),
(1060,1060,l),
(840,1060,l),
(358,562,l),
(436,606,l),
(348,606,l),
(348,1060,l),
(176,1060,l),
(176,0,l)
);
}
);
width = 1152;
}
);
unicode = 312;
},
{
color = 6;
glyphname = l;
lastChange = "2023-11-23 10:09:39 +0000";
layers = (
{
anchors = (
{
name = bottom;
pos = (732,0);
},
{
name = center;
pos = (474,738);
},
{
name = dot;
pos = (822,738);
},
{
name = top;
pos = (454,1540);
},
{
name = topright;
pos = (496,1540);
}
);
layerId = "AB099EFE-E788-4EFC-8633-CF147CB782A6";
shapes = (
{
closed = 1;
nodes = (
(872,-12,o),
(964,18,o),
(1052,66,c),
(1028,120,l),
(954,76,o),
(854,44,o),
(768,44,cs),
(612,44,o),
(500,140,o),
(500,320,cs),
(500,1540,l),
(440,1540,l),
(440,326,ls),
(440,88,o),
(588,-12,o),
(776,-12,cs)
);
}
);
width = 1152;
},
{
anchors = (
{
name = bottom;
pos = (620,0);
},
{
name = center;
pos = (408,834);
},
{
name = dot;
pos = (866,760);
},
{
name = top;
pos = (388,1540);
},
{
name = topright;
pos = (578,1540);
}
);
guides = (
{
angle = 100;
pos = (284,-12);
}
);
layerId = "2D8F7115-C311-411E-929D-56333CF7FFB2";
shapes = (
{
closed = 1;
nodes = (
(816,-16,o),
(958,18,o),
(1056,72,c),
(938,352,l),
(886,308,o),
(818,286,o),
(758,286,cs),
(658,286,o),
(584,344,o),
(584,430,cs),
(584,1540,l),
(228,1540,l),
(228,430,ls),
(228,166,o),
(422,-16,o),
(698,-16,cs)
);
}
);
width = 1152;
},
{
anchors = (
{
name = bottom;
pos = (672,0);
},
{
name = center;
pos = (436,774);
},
{
name = dot;
pos = (776,746);
},
{
name = top;
pos = (418,1540);
},
{
name = topright;
pos = (516,1540);
}
);
layerId = "FD1CEFBD-BAB1-4C2A-A598-30E93F9A29F6";
shapes = (
{
closed = 1;
nodes = (
(824,-16,o),
(936,22,o),
(1024,78,c),
(958,236,l),
(896,186,o),
(804,144,o),
(718,144,cs),
(594,144,o),
(520,230,o),
(520,352,cs),
(520,1540,l),
(348,1540,l),
(348,334,ls),
(348,128,o),
(492,-16,o),
(714,-16,cs)
);
}
);
width = 1152;
}
);
unicode = 108;
},
{
color = 6;
glyphname = l.ss01;
lastChange = "2023-11-23 10:09:39 +0000";
layers = (
{
anchors = (
{
name = bottom;
pos = (574,0);
},
{
name = center;
pos = (574,738);
},
{
name = dot;
pos = (892,746);
},
{
name = top;
pos = (574,1540);
},
{
name = topright;
pos = (604,1540);
}
);
layerId = "AB099EFE-E788-4EFC-8633-CF147CB782A6";
shapes = (
{
closed = 1;
nodes = (
(604,0,l),
(604,1540,l),
(544,1540,l),
(544,0,l)
);
},
{
closed = 1;
nodes = (
(928,0,l),
(928,56,l),
(220,56,l),
(220,0,l)
);
},
{
closed = 1;
nodes = (
(604,1484,l),
(604,1540,l),
(220,1540,l),
(220,1484,l)
);
}
);
width = 1152;
},
{
anchors = (
{
name = bottom;
pos = (580,0);
},
{
name = center;
pos = (578,786);
},
{
name = dot;
pos = (1020,754);
},
{
name = top;
pos = (580,1540);
},
{
name = topright;
pos = (678,1540);
}
);
layerId = "2D8F7115-C311-411E-929D-56333CF7FFB2";
shapes = (
{
closed = 1;
nodes = (
(756,0,l),
(756,1540,l),
(400,1540,l),
(400,0,l)
);
},
{
closed = 1;
nodes = (
(996,0,l),
(996,300,l),
(160,300,l),
(160,0,l)
);
},
{
closed = 1;
nodes = (
(756,1240,l),
(756,1540,l),
(160,1540,l),
(160,1240,l)
);
}
);
width = 1152;
},
{
anchors = (
{
name = bottom;
pos = (578,0);
},
{
name = center;
pos = (578,758);
},
{
name = dot;
pos = (914,746);
},
{
name = top;
pos = (578,1540);
},
{
name = topright;
pos = (664,1540);
}
);
layerId = "FD1CEFBD-BAB1-4C2A-A598-30E93F9A29F6";
shapes = (
{
closed = 1;
nodes = (
(664,0,l),
(664,1540,l),
(492,1540,l),
(492,0,l)
);
},
{
closed = 1;
nodes = (
(960,0,l),
(960,156,l),
(196,156,l),
(196,0,l)
);
},
{
closed = 1;
nodes = (
(664,1384,l),
(664,1540,l),
(196,1540,l),
(196,1384,l)
);
}
);
width = 1152;
}
);
},
{
color = 6;
glyphname = l.ss03;
lastChange = "2023-11-23 10:09:39 +0000";
layers = (
{
anchors = (
{
name = bottom;
pos = (772,0);
},
{
name = center;
pos = (514,738);
},
{
name = dot;
pos = (862,738);
},
{
name = top;
pos = (494,1540);
},
{
name = topright;
pos = (536,1540);
}
);
layerId = "AB099EFE-E788-4EFC-8633-CF147CB782A6";
shapes = (
{
closed = 1;
nodes = (
(912,-12,o),
(1004,18,o),
(1092,66,c),
(1068,120,l),
(994,76,o),
(894,44,o),
(808,44,cs),
(652,44,o),
(540,140,o),
(540,320,cs),
(540,1540,l),
(480,1540,l),
(480,326,ls),
(480,88,o),
(628,-12,o),
(816,-12,cs)
);
},
{
closed = 1;
nodes = (
(540,1484,l),
(540,1540,l),
(124,1540,l),
(124,1484,l)
);
}
);
width = 1152;
},
{
anchors = (
{
name = bottom;
pos = (664,0);
},
{
name = center;
pos = (468,834);
},
{
name = dot;
pos = (912,760);
},
{
name = top;
pos = (448,1540);
},
{
name = topright;
pos = (638,1540);
}
);
guides = (
{
angle = 100;
pos = (284,-12);
}
);
layerId = "2D8F7115-C311-411E-929D-56333CF7FFB2";
shapes = (
{
closed = 1;
nodes = (
(856,-16,o),
(988,18,o),
(1082,72,c),
(966,352,l),
(917,308,o),
(860,286,o),
(804,286,cs),
(712,286,o),
(644,344,o),
(644,430,cs),
(644,1540,l),
(288,1540,l),
(288,430,ls),
(288,166,o),
(476,-16,o),
(742,-16,cs)
);
},
{
closed = 1;
nodes = (
(644,1220,l),
(644,1540,l),
(44,1540,l),
(44,1220,l)
);
}
);
width = 1152;
},
{
anchors = (
{
name = bottom;
pos = (732,0);
},
{
name = center;
pos = (496,774);
},
{
name = dot;
pos = (836,746);
},
{
name = top;
pos = (478,1540);
},
{
name = topright;
pos = (576,1540);
}
);
layerId = "FD1CEFBD-BAB1-4C2A-A598-30E93F9A29F6";
shapes = (
{
closed = 1;
nodes = (
(884,-16,o),
(994,20,o),
(1082,76,c),
(1016,234,l),
(954,184,o),
(864,144,o),
(778,144,cs),
(654,144,o),
(580,230,o),
(580,352,cs),
(580,1540,l),
(408,1540,l),
(408,334,ls),
(408,128,o),
(552,-16,o),
(774,-16,cs)
);
},
{
closed = 1;
nodes = (
(580,1384,l),
(580,1540,l),
(92,1540,l),
(92,1384,l)
);
}
);
width = 1152;
}
);
},
{
color = 6;
glyphname = lj;
lastChange = "2023-11-23 10:09:39 +0000";
layers = (
{
layerId = "AB099EFE-E788-4EFC-8633-CF147CB782A6";
shapes = (
{
closed = 1;
nodes = (
(866,-436,o),
(968,-348,o),
(968,-164,cs),
(968,1048,l),
(908,1048,l),
(908,-170,ls),
(908,-314,o),
(838,-380,o),
(748,-380,cs),
(688,-380,o),
(610,-350,o),
(558,-304,c),
(534,-362,l),
(584,-404,o),
(674,-436,o),
(746,-436,cs)
);
},
{
closed = 1;
nodes = (
(536,-16,o),
(602,0,o),
(658,46,c),
(634,100,l),
(594,62,o),
(530,40,o),
(480,40,cs),
(374,40,o),
(312,138,o),
(312,276,cs),
(312,1540,l),
(250,1540,l),
(250,282,ls),
(250,86,o),
(344,-16,o),
(482,-16,cs)
);
},
{
closed = 1;
nodes = (
(968,992,l),
(968,1048,l),
(646,1048,l),
(646,992,l)
);
},
{
closed = 1;
nodes = (
(984,1258,o),
(1020,1294,o),
(1020,1344,cs),
(1020,1394,o),
(984,1430,o),
(936,1430,cs),
(888,1430,o),
(852,1394,o),
(852,1344,cs),
(852,1294,o),
(888,1258,o),
(936,1258,cs)
);
}
);
width = 1152;
},
{
layerId = "FD1CEFBD-BAB1-4C2A-A598-30E93F9A29F6";
shapes = (
{
closed = 1;
nodes = (
(894,-436,o),
(1008,-313,o),
(1008,-134,cs),
(1008,1060,l),
(868,1060,l),
(868,-120,ls),
(868,-222,o),
(807,-292,o),
(718,-292,cs),
(657,-292,o),
(578,-260,o),
(526,-214,c),
(474,-348,l),
(537,-400,o),
(641,-436,o),
(728,-436,cs)
);
},
{
closed = 1;
nodes = (
(521,-16,o),
(600,17,o),
(644,50,c),
(594,178,l),
(544,144,o),
(497,124,o),
(448,124,cs),
(374,124,o),
(322,182,o),
(322,286,cs),
(322,1540,l),
(182,1540,l),
(182,308,ls),
(182,116,o),
(277,-16,o),
(440,-16,cs)
);
},
{
closed = 1;
nodes = (
(1008,912,l),
(1008,1060,l),
(626,1060,l),
(626,912,l)
);
},
{
closed = 1;
nodes = (
(1014,1242,o),
(1064,1296,o),
(1064,1366,cs),
(1064,1438,o),
(1012,1490,o),
(942,1490,cs),
(872,1490,o),
(818,1438,o),
(818,1366,cs),
(818,1296,o),
(870,1242,o),
(942,1242,cs)
);
}
);
width = 1152;
},
{
layerId = "2D8F7115-C311-411E-929D-56333CF7FFB2";
shapes = (
{
closed = 1;
nodes = (
(934,-436,o),
(1072,-288,o),
(1072,-56,cs),
(1072,1080,l),
(808,1080,l),
(808,-56,ls),
(808,-122,o),
(776,-168,o),
(718,-168,cs),
(672,-168,o),
(598,-138,o),
(544,-100,c),
(460,-352,l),
(538,-406,o),
(638,-436,o),
(730,-436,cs)
);
},
{
closed = 1;
nodes = (
(520,-16,o),
(578,-2,o),
(654,34,c),
(572,296,l),
(542,280,o),
(514,272,o),
(490,272,cs),
(446,272,o),
(414,300,o),
(414,342,cs),
(414,1540,l),
(150,1540,l),
(150,310,ls),
(150,112,o),
(280,-16,o),
(460,-16,cs)
);
},
{
closed = 1;
nodes = (
(1072,808,l),
(1072,1080,l),
(608,1080,l),
(608,808,l)
);
},
{
closed = 1;
nodes = (
(1034,1200,o),
(1104,1274,o),
(1104,1388,cs),
(1104,1502,o),
(1034,1576,o),
(924,1576,cs),
(816,1576,o),
(744,1502,o),
(744,1388,cs),
(744,1274,o),
(816,1200,o),
(924,1200,cs)
);
}
);
width = 1152;
}
);
unicode = 457;
},
{
color = 6;
glyphname = lj.ss01;
kernLeft = LAT_H_UC;
kernRight = LAT_J_LC;
lastChange = "2023-11-22 11:34:34 +0000";
layers = (
{
layerId = "AB099EFE-E788-4EFC-8633-CF147CB782A6";
shapes = (
{
closed = 1;
nodes = (
(866,-436,o),
(968,-348,o),
(968,-164,cs),
(968,1048,l),
(908,1048,l),
(908,-170,ls),
(908,-314,o),
(838,-380,o),
(748,-380,cs),
(688,-380,o),
(610,-350,o),
(558,-304,c),
(534,-362,l),
(584,-404,o),
(674,-436,o),
(746,-436,cs)
);
},
{
closed = 1;
nodes = (
(604,0,l),
(604,56,l),
(94,56,l),
(94,0,l)
);
},
{
closed = 1;
nodes = (
(380,0,l),
(380,1540,l),
(318,1540,l),
(318,0,l)
);
},
{
closed = 1;
nodes = (
(380,1484,l),
(380,1540,l),
(94,1540,l),
(94,1484,l)
);
},
{
closed = 1;
nodes = (
(968,992,l),
(968,1048,l),
(646,1048,l),
(646,992,l)
);
},
{
closed = 1;
nodes = (
(984,1258,o),
(1020,1294,o),
(1020,1344,cs),
(1020,1394,o),
(984,1430,o),
(936,1430,cs),
(888,1430,o),
(852,1394,o),
(852,1344,cs),
(852,1294,o),
(888,1258,o),
(936,1258,cs)
);
}
);
width = 1152;
},
{
layerId = "2D8F7115-C311-411E-929D-56333CF7FFB2";
shapes = (
{
closed = 1;
nodes = (
(934,-436,o),
(1072,-288,o),
(1072,-56,cs),
(1072,1080,l),
(808,1080,l),
(808,-56,ls),
(808,-146,o),
(774,-168,o),
(722,-168,cs),
(662,-168,o),
(601,-140,o),
(544,-100,c),
(460,-352,l),
(534,-404,o),
(639,-436,o),
(726,-436,cs)
);
},
{
closed = 1;
nodes = (
(648,0,l),
(648,272,l),
(32,272,l),
(32,0,l)
);
},
{
closed = 1;
nodes = (
(468,0,l),
(468,1540,l),
(204,1540,l),
(204,0,l)
);
},
{
closed = 1;
nodes = (
(468,1268,l),
(468,1540,l),
(32,1540,l),
(32,1268,l)
);
},
{
closed = 1;
nodes = (
(1072,808,l),
(1072,1080,l),
(608,1080,l),
(608,808,l)
);
},
{
closed = 1;
nodes = (
(1034,1200,o),
(1104,1274,o),
(1104,1388,cs),
(1104,1502,o),
(1034,1576,o),
(924,1576,cs),
(816,1576,o),
(744,1502,o),
(744,1388,cs),
(744,1274,o),
(816,1200,o),
(924,1200,cs)
);
}
);
width = 1152;
},
{
layerId = "FD1CEFBD-BAB1-4C2A-A598-30E93F9A29F6";
shapes = (
{
closed = 1;
nodes = (
(894,-436,o),
(1008,-313,o),
(1008,-134,cs),
(1008,1058,l),
(868,1058,l),
(868,-120,ls),
(868,-222,o),
(807,-292,o),
(718,-292,cs),
(657,-292,o),
(578,-260,o),
(526,-214,c),
(474,-348,l),
(537,-400,o),
(641,-436,o),
(728,-436,cs)
);
},
{
closed = 1;
nodes = (
(582,0,l),
(582,148,l),
(52,148,l),
(52,0,l)
);
},
{
closed = 1;
nodes = (
(386,0,l),
(386,1540,l),
(246,1540,l),
(246,0,l)
);
},
{
closed = 1;
nodes = (
(386,1392,l),
(386,1540,l),
(52,1540,l),
(52,1392,l)
);
},
{
closed = 1;
nodes = (
(1008,912,l),
(1008,1060,l),
(626,1060,l),
(626,912,l)
);
},
{
closed = 1;
nodes = (
(1014,1242,o),
(1064,1296,o),
(1064,1366,cs),
(1064,1438,o),
(1012,1490,o),
(942,1490,cs),
(872,1490,o),
(818,1438,o),
(818,1366,cs),
(818,1296,o),
(870,1242,o),
(942,1242,cs)
);
}
);
width = 1152;
}
);
},
{
color = 6;
glyphname = lj.ss03;
kernLeft = LAT_L_LC;
kernRight = LAT_J_LC;
lastChange = "2023-11-23 10:09:39 +0000";
layers = (
{
layerId = "AB099EFE-E788-4EFC-8633-CF147CB782A6";
shapes = (
{
closed = 1;
nodes = (
(866,-436,o),
(968,-348,o),
(968,-164,cs),
(968,1048,l),
(908,1048,l),
(908,-170,ls),
(908,-314,o),
(838,-380,o),
(748,-380,cs),
(688,-380,o),
(610,-350,o),
(558,-304,c),
(534,-362,l),
(584,-404,o),
(674,-436,o),
(746,-436,cs)
);
},
{
closed = 1;
nodes = (
(564,-12,o),
(630,4,o),
(686,50,c),
(662,104,l),
(622,66,o),
(558,44,o),
(508,44,cs),
(402,44,o),
(340,142,o),
(340,280,cs),
(340,1540,l),
(278,1540,l),
(278,286,ls),
(278,90,o),
(372,-12,o),
(510,-12,cs)
);
},
{
closed = 1;
nodes = (
(340,1484,l),
(340,1540,l),
(56,1540,l),
(56,1484,l)
);
},
{
closed = 1;
nodes = (
(968,992,l),
(968,1048,l),
(646,1048,l),
(646,992,l)
);
},
{
closed = 1;
nodes = (
(984,1258,o),
(1020,1294,o),
(1020,1344,cs),
(1020,1394,o),
(984,1430,o),
(936,1430,cs),
(888,1430,o),
(852,1394,o),
(852,1344,cs),
(852,1294,o),
(888,1258,o),
(936,1258,cs)
);
}
);
width = 1152;
},
{
layerId = "2D8F7115-C311-411E-929D-56333CF7FFB2";
shapes = (
{
closed = 1;
nodes = (
(934,-436,o),
(1072,-288,o),
(1072,-56,cs),
(1072,1080,l),
(808,1080,l),
(808,-56,ls),
(808,-122,o),
(776,-168,o),
(718,-168,cs),
(672,-168,o),
(598,-138,o),
(544,-100,c),
(460,-352,l),
(538,-406,o),
(638,-436,o),
(730,-436,cs)
);
},
{
closed = 1;
nodes = (
(542,-16,o),
(600,-2,o),
(676,34,c),
(594,296,l),
(564,280,o),
(536,272,o),
(512,272,cs),
(468,272,o),
(436,300,o),
(436,342,cs),
(436,1540,l),
(172,1540,l),
(172,310,ls),
(172,112,o),
(302,-16,o),
(482,-16,cs)
);
},
{
closed = 1;
nodes = (
(436,1268,l),
(436,1540,l),
(0,1540,l),
(0,1268,l)
);
},
{
closed = 1;
nodes = (
(1072,808,l),
(1072,1080,l),
(608,1080,l),
(608,808,l)
);
},
{
closed = 1;
nodes = (
(1034,1200,o),
(1104,1274,o),
(1104,1388,cs),
(1104,1502,o),
(1034,1576,o),
(924,1576,cs),
(816,1576,o),
(744,1502,o),
(744,1388,cs),
(744,1274,o),
(816,1200,o),
(924,1200,cs)
);
}
);
width = 1152;
},
{
layerId = "FD1CEFBD-BAB1-4C2A-A598-30E93F9A29F6";
shapes = (
{
closed = 1;
nodes = (
(894,-436,o),
(1008,-313,o),
(1008,-134,cs),
(1008,1058,l),
(868,1058,l),
(868,-120,ls),
(868,-222,o),
(807,-292,o),
(718,-292,cs),
(657,-292,o),
(578,-260,o),
(526,-214,c),
(474,-348,l),
(537,-400,o),
(641,-436,o),
(728,-436,cs)
);
},
{
closed = 1;
nodes = (
(541,-16,o),
(620,17,o),
(664,50,c),
(614,178,l),
(564,144,o),
(517,124,o),
(468,124,cs),
(394,124,o),
(342,182,o),
(342,286,cs),
(342,1540,l),
(202,1540,l),
(202,308,ls),
(202,116,o),
(297,-16,o),
(460,-16,cs)
);
},
{
closed = 1;
nodes = (
(342,1392,l),
(342,1540,l),
(12,1540,l),
(12,1392,l)
);
},
{
closed = 1;
nodes = (
(1008,912,l),
(1008,1060,l),
(626,1060,l),
(626,912,l)
);
},
{
closed = 1;
nodes = (
(1014,1242,o),
(1064,1296,o),
(1064,1366,cs),
(1064,1438,o),
(1012,1490,o),
(942,1490,cs),
(872,1490,o),
(818,1438,o),
(818,1366,cs),
(818,1296,o),
(870,1242,o),
(942,1242,cs)
);
}
);
width = 1152;
}
);
},
{
color = 6;
glyphname = m;
lastChange = "2023-11-22 11:34:34 +0000";
layers = (
{
anchors = (
{
name = bottom;
pos = (574,0);
},
{
name = leghookleft;
pos = (1004,0);
},
{
name = top;
pos = (580,1048);
}
);
background = {
shapes = (
{
closed = 1;
nodes = (
(234,0,l),
(234,652,ls),
(233,815,o),
(360,1008,o),
(558,1008,cs),
(680,1008,o),
(811,930,o),
(812,680,cs),
(812,0,l),
(872,0,l),
(872,676,ls),
(872,819,o),
(995,1008,o),
(1192,1008,cs),
(1323,1008,o),
(1442,930,o),
(1442,668,cs),
(1442,0,l),
(1504,0,l),
(1504,688,ls),
(1503,954,o),
(1360,1065,o),
(1188,1064,cs),
(999,1065,o),
(889,934,o),
(852,828,c),
(876,840,l),
(832,840,l),
(860,820,l),
(823,971,o),
(700,1065,o),
(552,1064,cs),
(393,1065,o),
(283,958,o),
(222,824,c),
(246,856,l),
(234,856,l),
(234,1048,l),
(172,1048,l),
(172,0,l)
);
}
);
};
guides = (
{
angle = 60;
pos = (126,358);
}
);
layerId = "AB099EFE-E788-4EFC-8633-CF147CB782A6";
shapes = (
{
closed = 1;
nodes = (
(172,0,l),
(172,746,ls),
(172,902,o),
(248,1008,o),
(370,1008,cs),
(472,1008,o),
(544,916,o),
(544,776,cs),
(544,0,l),
(604,0,l),
(604,776,ls),
(604,916,o),
(684,1008,o),
(794,1008,cs),
(906,1008,o),
(976,916,o),
(976,776,cs),
(976,0,l),
(1036,0,l),
(1036,776,ls),
(1036,952,o),
(940,1064,o),
(802,1064,cs),
(678,1064,o),
(580,976,o),
(562,878,c),
(596,918,l),
(554,918,l),
(582,878,l),
(562,980,o),
(484,1064,o),
(372,1064,cs),
(272,1064,o),
(190,998,o),
(160,886,c),
(188,926,l),
(172,926,l),
(172,1048,l),
(112,1048,l),
(112,0,l)
);
}
);
width = 1152;
},
{
anchors = (
{
name = bottom;
pos = (588,0);
},
{
name = leghookleft;
pos = (960,0);
},
{
name = top;
pos = (582,1074);
}
);
layerId = "2D8F7115-C311-411E-929D-56333CF7FFB2";
shapes = (
{
closed = 1;
nodes = (
(358,0,l),
(358,760,ls),
(358,814,o),
(378,842,o),
(412,842,cs),
(448,842,o),
(462,814,o),
(462,762,cs),
(462,0,l),
(698,0,l),
(698,762,ls),
(698,812,o),
(718,842,o),
(752,842,cs),
(790,842,o),
(802,808,o),
(802,762,cs),
(802,0,l),
(1096,0,l),
(1096,804,ls),
(1096,870,o),
(1098,1096,o),
(892,1096,cs),
(778,1096,o),
(694,1028,o),
(664,930,c),
(698,968,l),
(660,968,l),
(686,930,l),
(672,1024,o),
(600,1096,o),
(506,1096,cs),
(409,1096,o),
(341,1029,o),
(302,908,c),
(352,954,l),
(318,954,l),
(318,1080,l),
(64,1080,l),
(64,0,l)
);
}
);
width = 1152;
},
{
anchors = (
{
name = bottom;
pos = (580,0);
},
{
name = leghookleft;
pos = (986,0);
},
{
name = top;
pos = (588,1060);
}
);
layerId = "FD1CEFBD-BAB1-4C2A-A598-30E93F9A29F6";
shapes = (
{
closed = 1;
nodes = (
(248,0,l),
(248,774,ls),
(248,866,o),
(308,914,o),
(376,914,cs),
(446,914,o),
(496,868,o),
(496,778,cs),
(496,0,l),
(656,0,l),
(656,778,ls),
(656,868,o),
(716,914,o),
(786,914,cs),
(858,914,o),
(904,866,o),
(904,778,cs),
(904,0,l),
(1068,0,l),
(1068,782,ls),
(1068,972,o),
(982,1076,o),
(836,1076,cs),
(731,1076,o),
(634,1004,o),
(606,904,c),
(646,944,l),
(592,944,l),
(630,904,l),
(608,1012,o),
(528,1076,o),
(436,1076,cs),
(332,1076,o),
(261,997,o),
(226,882,c),
(264,934,l),
(242,934,l),
(242,1060,l),
(84,1060,l),
(84,0,l)
);
}
);
width = 1152;
}
);
unicode = 109;
},
{
color = 6;
glyphname = n;
lastChange = "2023-11-23 10:09:39 +0000";
layers = (
{
anchors = (
{
name = bottom;
pos = (600,0);
},
{
name = leghookleft;
pos = (230,0);
},
{
name = leghookretroflex;
pos = (928,0);
},
{
name = top;
pos = (604,1048);
}
);
layerId = "AB099EFE-E788-4EFC-8633-CF147CB782A6";
shapes = (
{
closed = 1;
nodes = (
(260,0,l),
(260,668,ls),
(260,870,o),
(402,1008,o),
(592,1008,cs),
(780,1008,o),
(896,882,o),
(896,672,cs),
(896,0,l),
(956,0,l),
(956,676,ls),
(956,912,o),
(816,1064,o),
(600,1064,cs),
(422,1064,o),
(282,962,o),
(246,832,c),
(290,876,l),
(260,876,l),
(260,1048,l),
(200,1048,l),
(200,0,l)
);
}
);
width = 1152;
},
{
anchors = (
{
name = bottom;
pos = (574,0);
},
{
name = leghookleft;
pos = (272,0);
},
{
name = leghookretroflex;
pos = (884,0);
},
{
name = top;
pos = (606,1080);
}
);
layerId = "2D8F7115-C311-411E-929D-56333CF7FFB2";
shapes = (
{
closed = 1;
nodes = (
(452,0,l),
(452,660,ls),
(452,748,o),
(506,804,o),
(584,804,cs),
(658,804,o),
(708,750,o),
(708,664,cs),
(708,0,l),
(1064,0,l),
(1064,710,ls),
(1064,944,o),
(944,1096,o),
(742,1096,cs),
(560,1096,o),
(425,974,o),
(398,814,c),
(486,936,l),
(440,936,l),
(440,1080,l),
(96,1080,l),
(96,0,l)
);
}
);
width = 1152;
},
{
anchors = (
{
name = bottom;
pos = (584,0);
},
{
name = leghookleft;
pos = (242,0);
},
{
name = leghookretroflex;
pos = (910,0);
},
{
name = top;
pos = (610,1060);
}
);
layerId = "FD1CEFBD-BAB1-4C2A-A598-30E93F9A29F6";
shapes = (
{
closed = 1;
nodes = (
(328,0,l),
(328,644,ls),
(328,810,o),
(436,916,o),
(586,916,cs),
(736,916,o),
(828,808,o),
(828,644,cs),
(828,0,l),
(1000,0,l),
(1000,680,ls),
(1000,920,o),
(862,1076,o),
(644,1076,cs),
(474,1076,o),
(338,984,o),
(296,856,c),
(366,930,l),
(326,930,l),
(326,1060,l),
(156,1060,l),
(156,0,l)
);
}
);
width = 1152;
}
);
unicode = 110;
},
{
color = 6;
glyphname = nj;
kernLeft = LAT_N_LC;
kernRight = LAT_J_LC;
lastChange = "2023-11-23 10:09:39 +0000";
layers = (
{
layerId = "AB099EFE-E788-4EFC-8633-CF147CB782A6";
shapes = (
{
closed = 1;
nodes = (
(861,-436,o),
(948,-329,o),
(948,-164,cs),
(948,1048,l),
(888,1048,l),
(888,-170,ls),
(888,-297,o),
(825,-380,o),
(728,-380,cs),
(665,-380,o),
(590,-350,o),
(538,-304,c),
(514,-362,l),
(567,-407,o),
(651,-436,o),
(726,-436,cs)
);
},
{
closed = 1;
nodes = (
(212,0,l),
(212,778,ls),
(212,907,o),
(287,1008,o),
(404,1008,cs),
(511,1008,o),
(580,908,o),
(580,778,cs),
(580,0,l),
(640,0,l),
(640,778,ls),
(640,944,o),
(549,1064,o),
(414,1064,cs),
(312,1064,o),
(231,1000,o),
(198,902,c),
(232,936,l),
(212,936,l),
(212,1048,l),
(152,1048,l),
(152,0,l)
);
},
{
closed = 1;
nodes = (
(967,1258,o),
(1000,1292,o),
(1000,1344,cs),
(1000,1396,o),
(967,1430,o),
(916,1430,cs),
(865,1430,o),
(832,1396,o),
(832,1344,cs),
(832,1292,o),
(865,1258,o),
(916,1258,cs)
);
}
);
width = 1152;
},
{
layerId = "2D8F7115-C311-411E-929D-56333CF7FFB2";
shapes = (
{
closed = 1;
nodes = (
(941,-436,o),
(1072,-292,o),
(1072,-56,cs),
(1072,1080,l),
(808,1080,l),
(808,-56,ls),
(808,-126,o),
(775,-168,o),
(722,-168,cs),
(672,-168,o),
(604,-142,o),
(544,-100,c),
(460,-352,l),
(534,-404,o),
(635,-436,o),
(726,-436,cs)
);
},
{
closed = 1;
nodes = (
(312,0,l),
(312,760,ls),
(312,820,o),
(338,858,o),
(378,858,cs),
(414,858,o),
(428,821,o),
(428,762,cs),
(428,0,l),
(692,0,l),
(692,812,ls),
(692,981,o),
(630,1096,o),
(518,1096,cs),
(392,1096,o),
(301,1010,o),
(286,886,c),
(374,962,l),
(302,962,l),
(302,1080,l),
(48,1080,l),
(48,0,l)
);
},
{
closed = 1;
nodes = (
(1031,1200,o),
(1104,1277,o),
(1104,1388,cs),
(1104,1499,o),
(1031,1576,o),
(924,1576,cs),
(817,1576,o),
(744,1499,o),
(744,1388,cs),
(744,1277,o),
(817,1200,o),
(924,1200,cs)
);
}
);
width = 1152;
},
{
layerId = "FD1CEFBD-BAB1-4C2A-A598-30E93F9A29F6";
shapes = (
{
closed = 1;
nodes = (
(894,-436,o),
(1008,-313,o),
(1008,-134,cs),
(1008,1058,l),
(868,1058,l),
(868,-120,ls),
(868,-222,o),
(807,-292,o),
(718,-292,cs),
(657,-292,o),
(578,-260,o),
(526,-214,c),
(474,-348,l),
(537,-400,o),
(641,-436,o),
(728,-436,cs)
);
},
{
closed = 1;
nodes = (
(232,0,l),
(232,782,ls),
(232,876,o),
(302,936,o),
(380,936,cs),
(464,936,o),
(504,871,o),
(504,782,cs),
(504,0,l),
(644,0,l),
(644,766,ls),
(644,941,o),
(566,1076,o),
(432,1076,cs),
(316,1076,o),
(243,998,o),
(220,904,c),
(284,940,l),
(228,940,l),
(228,1060,l),
(92,1060,l),
(92,0,l)
);
},
{
closed = 1;
nodes = (
(1014,1242,o),
(1064,1296,o),
(1064,1366,cs),
(1064,1438,o),
(1012,1490,o),
(942,1490,cs),
(872,1490,o),
(818,1438,o),
(818,1366,cs),
(818,1296,o),
(870,1242,o),
(942,1242,cs)
);
}
);
width = 1152;
}
);
unicode = 460;
},
{
color = 6;
glyphname = eng;
lastChange = "2023-11-23 10:09:39 +0000";
layers = (
{
anchors = (
{
name = bottom;
pos = (604,0);
},
{
name = leghookleft;
pos = (224,0);
},
{
name = leghookretroflex;
pos = (936,0);
},
{
name = top;
pos = (606,1048);
}
);
layerId = "AB099EFE-E788-4EFC-8633-CF147CB782A6";
shapes = (
{
closed = 1;
nodes = (
(260,0,l),
(260,668,ls),
(260,870,o),
(402,1008,o),
(592,1008,cs),
(780,1008,o),
(896,882,o),
(896,672,cs),
(896,0,l),
(956,0,l),
(956,676,ls),
(956,912,o),
(816,1064,o),
(600,1064,cs),
(422,1064,o),
(282,962,o),
(246,832,c),
(290,876,l),
(260,876,l),
(260,1048,l),
(200,1048,l),
(200,0,l)
);
},
{
closed = 1;
nodes = (
(862,-438,o),
(956,-324,o),
(956,-140,cs),
(956,40,l),
(896,40,l),
(896,-152,ls),
(896,-272,o),
(842,-382,o),
(696,-378,cs),
(654,-376,o),
(614,-374,o),
(538,-338,c),
(538,-402,l),
(588,-424,o),
(654,-438,o),
(708,-438,cs)
);
}
);
width = 1152;
},
{
anchors = (
{
name = bottom;
pos = (572,0);
},
{
name = leghookleft;
pos = (272,0);
},
{
name = leghookretroflex;
pos = (884,0);
},
{
name = top;
pos = (608,1080);
}
);
layerId = "2D8F7115-C311-411E-929D-56333CF7FFB2";
shapes = (
{
closed = 1;
nodes = (
(452,0,l),
(452,660,ls),
(452,748,o),
(506,804,o),
(584,804,cs),
(658,804,o),
(708,750,o),
(708,664,cs),
(708,0,l),
(1064,0,l),
(1064,710,ls),
(1064,944,o),
(944,1096,o),
(742,1096,cs),
(560,1096,o),
(425,974,o),
(398,814,c),
(486,936,l),
(440,936,l),
(440,1080,l),
(96,1080,l),
(96,0,l)
);
},
{
closed = 1;
nodes = (
(924,-446,o),
(1064,-260,o),
(1064,-12,cs),
(1064,168,l),
(708,122,l),
(708,-32,ls),
(708,-98,o),
(656,-140,o),
(590,-140,cs),
(564,-140,o),
(508,-132,o),
(470,-114,c),
(470,-418,l),
(492,-434,o),
(572,-446,o),
(642,-446,cs)
);
}
);
width = 1152;
},
{
anchors = (
{
name = bottom;
pos = (586,0);
},
{
name = leghookleft;
pos = (240,0);
},
{
name = leghookretroflex;
pos = (914,0);
},
{
name = top;
pos = (610,1060);
}
);
layerId = "FD1CEFBD-BAB1-4C2A-A598-30E93F9A29F6";
shapes = (
{
closed = 1;
nodes = (
(328,0,l),
(328,644,ls),
(328,810,o),
(436,916,o),
(586,916,cs),
(736,916,o),
(828,808,o),
(828,644,cs),
(828,0,l),
(1000,0,l),
(1000,680,ls),
(1000,920,o),
(862,1076,o),
(644,1076,cs),
(474,1076,o),
(338,984,o),
(296,856,c),
(366,930,l),
(326,930,l),
(326,1060,l),
(156,1060,l),
(156,0,l)
);
},
{
closed = 1;
nodes = (
(888,-442,o),
(1000,-304,o),
(1000,-94,cs),
(1000,90,l),
(828,74,l),
(828,-106,ls),
(828,-202,o),
(774,-292,o),
(658,-288,cs),
(612,-286,o),
(554,-272,o),
(516,-254,c),
(516,-410,l),
(552,-428,o),
(624,-442,o),
(688,-442,cs)
);
}
);
width = 1152;
}
);
metricLeft = n;
metricRight = n;
unicode = 331;
},
{
color = 6;
glyphname = o;
lastChange = "2023-11-23 10:09:39 +0000";
layers = (
{
anchors = (
{
name = bottom;
pos = (574,0);
},
{
name = center;
pos = (576,524);
},
{
name = horn;
pos = (778,1012);
},
{
name = ogonek;
pos = (692,0);
},
{
name = top;
pos = (574,1048);
},
{
name = topright;
pos = (1096,1048);
}
);
layerId = "AB099EFE-E788-4EFC-8633-CF147CB782A6";
shapes = (
{
closed = 1;
nodes = (
(840,-16,o),
(1024,204,o),
(1024,524,cs),
(1024,844,o),
(840,1064,o),
(576,1064,cs),
(312,1064,o),
(128,844,o),
(128,524,cs),
(128,204,o),
(312,-16,o),
(576,-16,cs)
);
},
{
closed = 1;
nodes = (
(346,40,o),
(188,238,o),
(188,524,cs),
(188,810,o),
(346,1008,o),
(576,1008,cs),
(806,1008,o),
(964,810,o),
(964,524,cs),
(964,238,o),
(806,40,o),
(576,40,cs)
);
}
);
width = 1152;
},
{
anchors = (
{
name = bottom;
pos = (576,0);
},
{
name = center;
pos = (576,540);
},
{
name = horn;
pos = (856,1016);
},
{
name = ogonek;
pos = (702,0);
},
{
name = top;
pos = (576,1080);
},
{
name = topright;
pos = (1078,1080);
}
);
layerId = "2D8F7115-C311-411E-929D-56333CF7FFB2";
shapes = (
{
closed = 1;
nodes = (
(882,-16,o),
(1080,202,o),
(1080,540,cs),
(1080,879,o),
(882,1096,o),
(576,1096,cs),
(270,1096,o),
(72,879,o),
(72,540,cs),
(72,202,o),
(270,-16,o),
(576,-16,cs)
);
},
{
closed = 1;
nodes = (
(474,284,o),
(408,385,o),
(408,540,cs),
(408,697,o),
(474,796,o),
(576,796,cs),
(678,796,o),
(744,697,o),
(744,540,cs),
(744,385,o),
(678,284,o),
(576,284,cs)
);
}
);
width = 1152;
},
{
anchors = (
{
name = bottom;
pos = (576,0);
},
{
name = center;
pos = (576,532);
},
{
name = horn;
pos = (808,1014);
},
{
name = ogonek;
pos = (696,0);
},
{
name = top;
pos = (576,1060);
},
{
name = topright;
pos = (1094,1060);
}
);
layerId = "FD1CEFBD-BAB1-4C2A-A598-30E93F9A29F6";
shapes = (
{
closed = 1;
nodes = (
(856,-16,o),
(1044,206,o),
(1044,530,cs),
(1044,854,o),
(856,1078,o),
(576,1078,cs),
(296,1078,o),
(108,854,o),
(108,530,cs),
(108,206,o),
(296,-16,o),
(576,-16,cs)
);
},
{
closed = 1;
nodes = (
(392,144,o),
(280,294,o),
(280,530,cs),
(280,766,o),
(392,918,o),
(576,918,cs),
(760,918,o),
(872,766,o),
(872,530,cs),
(872,294,o),
(760,144,o),
(576,144,cs)
);
}
);
width = 1152;
}
);
unicode = 111;
},
{
color = 6;
glyphname = o.ss01;
lastChange = "2023-11-23 10:09:39 +0000";
layers = (
{
anchors = (
{
name = bottom;
pos = (576,0);
},
{
name = center;
pos = (576,524);
},
{
name = horn;
pos = (780,1012);
},
{
name = ogonek;
pos = (672,0);
},
{
name = top;
pos = (576,1048);
},
{
name = topright;
pos = (1120,1048);
}
);
layerId = "AB099EFE-E788-4EFC-8633-CF147CB782A6";
shapes = (
{
closed = 1;
nodes = (
(844,-16,o),
(1052,220,o),
(1052,526,cs),
(1052,830,o),
(844,1064,o),
(576,1064,cs),
(308,1064,o),
(100,830,o),
(100,526,cs),
(100,220,o),
(308,-16,o),
(576,-16,cs)
);
},
{
closed = 1;
nodes = (
(340,38,o),
(160,252,o),
(160,526,cs),
(160,798,o),
(342,1008,o),
(576,1008,cs),
(810,1008,o),
(992,798,o),
(992,526,cs),
(992,252,o),
(810,38,o),
(576,38,cs)
);
}
);
width = 1152;
},
{
anchors = (
{
name = bottom;
pos = (574,0);
},
{
name = center;
pos = (574,540);
},
{
name = horn;
pos = (860,1016);
},
{
name = ogonek;
pos = (690,0);
},
{
name = top;
pos = (578,1080);
},
{
name = topright;
pos = (1136,1080);
}
);
layerId = "2D8F7115-C311-411E-929D-56333CF7FFB2";
shapes = (
{
closed = 1;
nodes = (
(884,-16,o),
(1112,218,o),
(1112,540,cs),
(1112,862,o),
(884,1096,o),
(574,1096,cs),
(266,1096,o),
(40,862,o),
(40,540,cs),
(40,218,o),
(266,-16,o),
(574,-16,cs)
);
},
{
closed = 1;
nodes = (
(454,284,o),
(376,386,o),
(376,542,cs),
(376,694,o),
(454,796,o),
(574,796,cs),
(696,796,o),
(776,694,o),
(776,540,cs),
(776,386,o),
(696,284,o),
(574,284,cs)
);
}
);
width = 1152;
},
{
anchors = (
{
name = bottom;
pos = (576,0);
},
{
name = center;
pos = (576,532);
},
{
name = horn;
pos = (808,1016);
},
{
name = ogonek;
pos = (678,0);
},
{
name = top;
pos = (576,1060);
},
{
name = topright;
pos = (1128,1060);
}
);
layerId = "FD1CEFBD-BAB1-4C2A-A598-30E93F9A29F6";
shapes = (
{
closed = 1;
nodes = (
(858,-16,o),
(1076,226,o),
(1076,536,cs),
(1076,840,o),
(858,1076,o),
(576,1076,cs),
(294,1076,o),
(76,840,o),
(76,536,cs),
(76,226,o),
(294,-16,o),
(576,-16,cs)
);
},
{
closed = 1;
nodes = (
(390,144,o),
(246,314,o),
(246,536,cs),
(246,750,o),
(390,916,o),
(576,916,cs),
(762,916,o),
(906,752,o),
(906,540,cs),
(906,316,o),
(762,144,o),
(576,144,cs)
);
}
);
width = 1152;
}
);
},
{
color = 6;
glyphname = oe;
lastChange = "2023-11-23 10:09:39 +0000";
layers = (
{
anchors = (
{
name = bottom;
pos = (576,0);
},
{
name = top;
pos = (600,1048);
}
);
layerId = "AB099EFE-E788-4EFC-8633-CF147CB782A6";
shapes = (
{
closed = 1;
nodes = (
(502,-16,o),
(616,204,o),
(616,526,cs),
(616,846,o),
(502,1064,o),
(328,1064,cs),
(152,1064,o),
(24,846,o),
(24,524,cs),
(24,204,o),
(150,-16,o),
(326,-16,cs)
);
},
{
closed = 1;
nodes = (
(186,40,o),
(84,238,o),
(84,524,cs),
(84,812,o),
(188,1008,o),
(330,1008,cs),
(470,1008,o),
(560,812,o),
(560,526,cs),
(560,238,o),
(468,40,o),
(328,40,cs)
);
},
{
closed = 1;
nodes = (
(930,-16,o),
(1020,30,o),
(1084,94,c),
(1060,150,l),
(1006,88,o),
(926,40,o),
(856,40,cs),
(716,40,o),
(618,238,o),
(618,526,cs),
(618,810,o),
(712,1008,o),
(848,1008,cs),
(976,1008,o),
(1064,826,o),
(1064,562,c),
(606,562,l),
(608,506,l),
(1122,506,l),
(1123,524,o),
(1124,545,o),
(1124,560,cs),
(1124,848,o),
(1014,1064,o),
(848,1064,cs),
(682,1064,o),
(564,844,o),
(564,526,cs),
(564,204,o),
(686,-16,o),
(854,-16,cs)
);
}
);
width = 1152;
},
{
anchors = (
{
name = bottom;
pos = (576,0);
},
{
name = top;
pos = (594,1078);
}
);
layerId = "2D8F7115-C311-411E-929D-56333CF7FFB2";
shapes = (
{
closed = 1;
nodes = (
(572,-16,o),
(688,212,o),
(688,538,cs),
(688,866,o),
(572,1094,o),
(368,1094,cs),
(166,1094,o),
(24,870,o),
(24,542,cs),
(24,214,o),
(164,-16,o),
(370,-16,cs)
);
},
{
closed = 1;
nodes = (
(334,258,o),
(300,372,o),
(300,538,cs),
(300,702,o),
(334,820,o),
(382,820,cs),
(430,820,o),
(462,706,o),
(462,540,cs),
(462,370,o),
(428,258,o),
(382,258,cs)
);
},
{
closed = 1;
nodes = (
(948,-16,o),
(1068,28,o),
(1094,66,c),
(1006,318,l),
(954,266,o),
(894,244,o),
(854,244,cs),
(756,244,o),
(692,372,o),
(692,560,cs),
(692,728,o),
(744,820,o),
(802,820,cs),
(846,820,o),
(876,764,o),
(876,634,c),
(674,634,l),
(674,438,l),
(1118,438,l),
(1124,486,o),
(1128,552,o),
(1128,606,cs),
(1128,902,o),
(1008,1094,o),
(822,1094,cs),
(620,1094,o),
(468,864,o),
(468,538,cs),
(468,204,o),
(626,-16,o),
(848,-16,cs)
);
}
);
width = 1152;
},
{
anchors = (
{
name = bottom;
pos = (576,0);
},
{
name = top;
pos = (596,1060);
}
);
layerId = "FD1CEFBD-BAB1-4C2A-A598-30E93F9A29F6";
shapes = (
{
closed = 1;
nodes = (
(534,-16,o),
(660,208,o),
(660,532,cs),
(660,854,o),
(534,1076,o),
(346,1076,cs),
(160,1076,o),
(32,858,o),
(32,536,cs),
(32,212,o),
(162,-16,o),
(346,-16,cs)
);
},
{
closed = 1;
nodes = (
(254,144,o),
(188,304,o),
(188,532,cs),
(188,756,o),
(252,916,o),
(352,916,cs),
(456,916,o),
(518,752,o),
(518,528,cs),
(518,302,o),
(456,144,o),
(352,144,cs)
);
},
{
closed = 1;
nodes = (
(930,-16,o),
(1018,18,o),
(1084,72,c),
(1020,226,l),
(966,174,o),
(906,144,o),
(852,144,cs),
(746,144,o),
(658,302,o),
(658,540,cs),
(658,752,o),
(730,916,o),
(826,916,cs),
(916,916,o),
(974,784,o),
(974,602,c),
(636,602,l),
(636,462,l),
(1114,462,l),
(1118,494,o),
(1120,544,o),
(1120,582,cs),
(1120,876,o),
(1000,1076,o),
(832,1076,cs),
(656,1076,o),
(528,852,o),
(528,536,cs),
(528,212,o),
(662,-16,o),
(854,-16,cs)
);
}
);
width = 1152;
},
{
anchors = (
{
name = bottom;
pos = (576,0);
},
{
name = top;
pos = (594,1068);
}
);
associatedMasterId = "FD1CEFBD-BAB1-4C2A-A598-30E93F9A29F6";
attr = {
coordinates = (
120
);
};
layerId = "F1DA5F60-5759-4D9C-BDAC-A2D974FBE707";
name = "{120}";
shapes = (
{
closed = 1;
nodes = (
(552,-16,o),
(674,210,o),
(674,534,cs),
(674,858,o),
(552,1084,o),
(356,1084,cs),
(164,1084,o),
(28,864,o),
(28,538,cs),
(28,212,o),
(164,-16,o),
(358,-16,cs)
);
},
{
closed = 1;
nodes = (
(292,198,o),
(242,338,o),
(242,534,cs),
(242,730,o),
(292,870,o),
(366,870,cs),
(444,870,o),
(492,728,o),
(492,534,cs),
(492,334,o),
(442,198,o),
(366,198,cs)
);
},
{
closed = 1;
nodes = (
(936,-16,o),
(1042,22,o),
(1088,70,c),
(1014,270,l),
(960,218,o),
(900,192,o),
(854,192,cs),
(750,192,o),
(674,336,o),
(674,550,cs),
(674,738,o),
(736,870,o),
(814,870,cs),
(882,870,o),
(928,776,o),
(928,618,c),
(654,618,l),
(654,450,l),
(1116,450,l),
(1120,486,o),
(1124,538,o),
(1124,594,cs),
(1124,888,o),
(1004,1084,o),
(828,1084,cs),
(638,1084,o),
(500,856,o),
(500,538,cs),
(500,210,o),
(644,-16,o),
(852,-16,cs)
);
}
);
width = 1152;
}
);
unicode = 339;
},
{
color = 3;
glyphname = p;
lastChange = "2023-11-23 10:09:39 +0000";
layers = (
{
anchors = (
{
name = bottom;
pos = (230,-420);
},
{
name = top;
pos = (596,1048);
}
);
layerId = "AB099EFE-E788-4EFC-8633-CF147CB782A6";
shapes = (
{
closed = 1;
nodes = (
(260,-420,l),
(260,224,l),
(284,224,l),
(252,330,l),
(252,748,l),
(288,834,l),
(260,834,l),
(260,1048,l),
(200,1048,l),
(200,-420,l)
);
},
{
ref = _part.bowl;
}
);
width = 1152;
},
{
anchors = (
{
name = bottom;
pos = (270,-420);
},
{
name = top;
pos = (582,1080);
}
);
layerId = "2D8F7115-C311-411E-929D-56333CF7FFB2";
shapes = (
{
closed = 1;
nodes = (
(448,-420,l),
(448,90,l),
(500,90,l),
(424,212,l),
(424,862,l),
(470,982,l),
(428,982,l),
(428,1080,l),
(96,1080,l),
(96,-420,l)
);
},
{
ref = _part.bowl;
}
);
width = 1152;
},
{
anchors = (
{
name = bottom;
pos = (232,-420);
},
{
name = top;
pos = (582,1060);
}
);
layerId = "FD1CEFBD-BAB1-4C2A-A598-30E93F9A29F6";
shapes = (
{
closed = 1;
nodes = (
(328,-420,l),
(328,144,l),
(360,144,l),
(304,266,l),
(304,824,l),
(352,922,l),
(326,922,l),
(326,1060,l),
(156,1060,l),
(156,-420,l)
);
},
{
ref = _part.bowl;
}
);
width = 1152;
}
);
unicode = 112;
},
{
color = 6;
glyphname = p.ss01;
lastChange = "2023-11-23 10:09:39 +0000";
layers = (
{
anchors = (
{
name = bottom;
pos = (194,-420);
},
{
name = top;
pos = (556,1048);
}
);
layerId = "AB099EFE-E788-4EFC-8633-CF147CB782A6";
shapes = (
{
closed = 1;
nodes = (
(844,-16,o),
(1036,202,o),
(1036,524,cs),
(1036,848,o),
(844,1064,o),
(604,1064,cs),
(362,1064,o),
(168,848,o),
(168,524,cs),
(168,200,o),
(362,-16,o),
(604,-16,cs)
);
},
{
closed = 1;
nodes = (
(224,-420,l),
(224,244,l),
(236,244,l),
(220,304,l),
(220,778,l),
(244,810,l),
(224,810,l),
(224,1048,l),
(164,1048,l),
(164,-420,l)
);
},
{
closed = 1;
nodes = (
(388,40,o),
(222,238,o),
(222,524,cs),
(222,818,o),
(388,1008,o),
(600,1008,cs),
(810,1008,o),
(976,818,o),
(976,524,cs),
(976,236,o),
(810,40,o),
(600,40,cs)
);
}
);
width = 1152;
},
{
anchors = (
{
name = bottom;
pos = (256,-420);
},
{
name = top;
pos = (570,1080);
}
);
layerId = "2D8F7115-C311-411E-929D-56333CF7FFB2";
shapes = (
{
closed = 1;
nodes = (
(934,-16,o),
(1112,220,o),
(1112,540,cs),
(1112,860,o),
(928,1096,o),
(674,1096,cs),
(438,1096,o),
(310,868,o),
(310,540,cs),
(310,226,o),
(446,-16,o),
(688,-16,cs)
);
},
{
closed = 1;
nodes = (
(436,-420,l),
(436,96,l),
(458,96,l),
(414,212,l),
(414,866,l),
(458,964,l),
(416,964,l),
(416,1080,l),
(84,1080,l),
(84,-420,l)
);
},
{
closed = 1;
nodes = (
(498,286,o),
(422,394,o),
(422,540,cs),
(422,688,o),
(498,792,o),
(600,792,cs),
(704,792,o),
(780,688,o),
(780,540,cs),
(780,394,o),
(704,286,o),
(600,286,cs)
);
}
);
width = 1152;
},
{
anchors = (
{
name = bottom;
pos = (220,-420);
},
{
name = top;
pos = (572,1060);
}
);
layerId = "FD1CEFBD-BAB1-4C2A-A598-30E93F9A29F6";
shapes = (
{
closed = 1;
nodes = (
(882,-16,o),
(1076,210,o),
(1076,532,cs),
(1076,854,o),
(880,1076,o),
(628,1076,cs),
(374,1076,o),
(200,854,o),
(200,532,cs),
(200,236,o),
(364,-16,o),
(628,-16,cs)
);
},
{
closed = 1;
nodes = (
(300,-420,l),
(300,148,l),
(320,148,l),
(290,274,l),
(290,836,l),
(318,908,l),
(296,908,l),
(296,1060,l),
(128,1060,l),
(128,-420,l)
);
},
{
closed = 1;
nodes = (
(432,144,o),
(294,296,o),
(294,530,cs),
(294,760,o),
(428,916,o),
(598,916,cs),
(770,916,o),
(904,754,o),
(904,532,cs),
(904,318,o),
(778,144,o),
(600,144,cs)
);
}
);
width = 1152;
}
);
},
{
color = 6;
glyphname = thorn;
lastChange = "2023-11-23 10:09:39 +0000";
layers = (
{
anchors = (
{
name = bottom;
pos = (598,-4);
},
{
name = top;
pos = (204,1540);
}
);
layerId = "AB099EFE-E788-4EFC-8633-CF147CB782A6";
shapes = (
{
closed = 1;
nodes = (
(854,-16,o),
(1028,190,o),
(1028,524,cs),
(1028,864,o),
(856,1064,o),
(600,1064,cs),
(374,1064,o),
(178,898,o),
(178,528,cs),
(178,162,o),
(376,-16,o),
(600,-16,cs)
);
},
{
closed = 1;
nodes = (
(234,-420,l),
(234,224,l),
(262,224,l),
(226,330,l),
(226,750,l),
(258,834,l),
(234,834,l),
(234,1540,l),
(174,1540,l),
(174,-420,l)
);
},
{
closed = 1;
nodes = (
(386,38,o),
(236,250,o),
(236,524,cs),
(236,852,o),
(410,1010,o),
(602,1010,cs),
(814,1010,o),
(968,826,o),
(968,524,cs),
(968,230,o),
(810,38,o),
(602,38,cs)
);
}
);
width = 1152;
},
{
anchors = (
{
name = bottom;
pos = (676,0);
},
{
name = top;
pos = (254,1540);
}
);
layerId = "2D8F7115-C311-411E-929D-56333CF7FFB2";
shapes = (
{
closed = 1;
nodes = (
(890,-16,o),
(1118,152,o),
(1118,536,cs),
(1118,914,o),
(894,1098,o),
(684,1098,cs),
(430,1098,o),
(252,846,o),
(252,552,cs),
(252,246,o),
(446,-16,o),
(694,-16,cs)
);
},
{
closed = 1;
nodes = (
(436,-420,l),
(436,96,l),
(488,96,l),
(412,212,l),
(412,868,l),
(462,998,l),
(436,998,l),
(436,1540,l),
(84,1540,l),
(84,-420,l)
);
},
{
closed = 1;
nodes = (
(506,278,o),
(428,380,o),
(428,544,cs),
(428,706,o),
(500,802,o),
(600,802,cs),
(704,802,o),
(778,708,o),
(778,544,cs),
(778,384,o),
(710,278,o),
(608,278,cs)
);
}
);
width = 1152;
},
{
anchors = (
{
name = bottom;
pos = (634,0);
},
{
name = top;
pos = (226,1516);
}
);
layerId = "FD1CEFBD-BAB1-4C2A-A598-30E93F9A29F6";
shapes = (
{
closed = 1;
nodes = (
(864,-16,o),
(1070,200,o),
(1070,532,cs),
(1070,868,o),
(864,1078,o),
(626,1078,cs),
(382,1078,o),
(196,856,o),
(196,532,cs),
(196,214,o),
(384,-16,o),
(626,-16,cs)
);
},
{
closed = 1;
nodes = (
(312,-420,l),
(312,144,l),
(342,144,l),
(286,266,l),
(286,782,l),
(336,922,l),
(312,922,l),
(312,1540,l),
(140,1540,l),
(140,-420,l)
);
},
{
closed = 1;
nodes = (
(426,140,o),
(298,310,o),
(298,532,cs),
(298,774,o),
(436,922,o),
(594,922,cs),
(770,922,o),
(896,762,o),
(896,532,cs),
(896,308,o),
(768,140,o),
(596,140,cs)
);
}
);
width = 1152;
}
);
unicode = 254;
},
{
color = 6;
glyphname = thorn.ss01;
lastChange = "2023-11-23 10:09:39 +0000";
layers = (
{
anchors = (
{
name = bottom;
pos = (602,0);
},
{
name = top;
pos = (190,1540);
}
);
layerId = "AB099EFE-E788-4EFC-8633-CF147CB782A6";
shapes = (
{
closed = 1;
nodes = (
(844,-16,o),
(1036,202,o),
(1036,524,cs),
(1036,848,o),
(844,1064,o),
(604,1064,cs),
(362,1064,o),
(168,848,o),
(168,524,cs),
(168,200,o),
(362,-16,o),
(604,-16,cs)
);
},
{
closed = 1;
nodes = (
(224,-420,l),
(224,240,l),
(242,240,l),
(220,272,l),
(220,744,l),
(236,804,l),
(224,804,l),
(224,1540,l),
(164,1540,l),
(164,-420,l)
);
},
{
closed = 1;
nodes = (
(388,40,o),
(222,238,o),
(222,524,cs),
(222,818,o),
(388,1008,o),
(600,1008,cs),
(810,1008,o),
(976,818,o),
(976,524,cs),
(976,236,o),
(810,40,o),
(600,40,cs)
);
}
);
width = 1152;
},
{
anchors = (
{
name = bottom;
pos = (700,0);
},
{
name = top;
pos = (240,1540);
}
);
layerId = "2D8F7115-C311-411E-929D-56333CF7FFB2";
shapes = (
{
closed = 1;
nodes = (
(932,-16,o),
(1112,220,o),
(1112,540,cs),
(1112,860,o),
(926,1096,o),
(670,1096,cs),
(432,1096,o),
(302,868,o),
(302,540,cs),
(302,228,o),
(440,-16,o),
(684,-16,cs)
);
},
{
closed = 1;
nodes = (
(436,-420,l),
(436,90,l),
(460,90,l),
(406,226,l),
(406,816,l),
(458,1002,l),
(436,1002,l),
(436,1540,l),
(84,1540,l),
(84,-420,l)
);
},
{
closed = 1;
nodes = (
(490,286,o),
(414,396,o),
(414,540,cs),
(414,688,o),
(492,792,o),
(596,792,cs),
(704,792,o),
(778,686,o),
(778,540,cs),
(778,394,o),
(702,286,o),
(596,286,cs)
);
}
);
width = 1152;
},
{
anchors = (
{
name = bottom;
pos = (636,0);
},
{
name = top;
pos = (210,1516);
}
);
layerId = "FD1CEFBD-BAB1-4C2A-A598-30E93F9A29F6";
shapes = (
{
closed = 1;
nodes = (
(882,-16,o),
(1080,210,o),
(1080,532,cs),
(1080,856,o),
(878,1076,o),
(628,1076,cs),
(374,1076,o),
(198,854,o),
(198,532,cs),
(198,236,o),
(364,-16,o),
(628,-16,cs)
);
},
{
closed = 1;
nodes = (
(300,-420,l),
(300,156,l),
(322,156,l),
(294,212,l),
(294,806,l),
(318,910,l),
(300,910,l),
(300,1540,l),
(128,1540,l),
(128,-420,l)
);
},
{
closed = 1;
nodes = (
(430,144,o),
(294,296,o),
(294,530,cs),
(294,760,o),
(428,916,o),
(598,916,cs),
(770,916,o),
(906,754,o),
(906,532,cs),
(906,318,o),
(778,144,o),
(598,144,cs)
);
}
);
width = 1152;
}
);
},
{
color = 3;
glyphname = q;
lastChange = "2023-11-23 10:09:39 +0000";
layers = (
{
anchors = (
{
name = bottom;
pos = (942,-420);
},
{
name = top;
pos = (544,1048);
}
);
layerId = "AB099EFE-E788-4EFC-8633-CF147CB782A6";
shapes = (
{
closed = 1;
nodes = (
(1036,-382,l),
(986,-356,o),
(950,-280,o),
(950,-190,cs),
(950,1048,l),
(890,1048,l),
(890,834,l),
(866,834,l),
(896,782,l),
(896,296,l),
(876,224,l),
(890,224,l),
(890,-196,ls),
(890,-306,o),
(942,-398,o),
(1012,-438,c)
);
},
{
pos = (1152,0);
ref = _part.bowl;
scale = (-1,1);
}
);
width = 1152;
},
{
anchors = (
{
name = bottom;
pos = (886,-420);
},
{
name = top;
pos = (482,1080);
}
);
layerId = "2D8F7115-C311-411E-929D-56333CF7FFB2";
shapes = (
{
closed = 1;
nodes = (
(1132,-148,l),
(1082,-130,o),
(1054,-78,o),
(1054,-28,cs),
(1054,1080,l),
(724,1080,l),
(724,984,l),
(692,984,l),
(720,856,l),
(720,172,l),
(654,92,l),
(702,92,l),
(702,-62,ls),
(702,-210,o),
(824,-366,o),
(1010,-438,c)
);
},
{
pos = (1152,0);
ref = _part.bowl;
scale = (-1,1);
}
);
width = 1152;
},
{
anchors = (
{
name = bottom;
pos = (934,-420);
},
{
name = top;
pos = (526,1060);
}
);
layerId = "FD1CEFBD-BAB1-4C2A-A598-30E93F9A29F6";
shapes = (
{
closed = 1;
nodes = (
(1072,-286,l),
(1018,-260,o),
(994,-178,o),
(994,-98,cs),
(994,1060,l),
(826,1060,l),
(826,918,l),
(790,918,l),
(838,816,l),
(838,234,l),
(796,144,l),
(822,144,l),
(822,-152,ls),
(822,-272,o),
(894,-388,o),
(1010,-438,c)
);
},
{
pos = (1152,0);
ref = _part.bowl;
scale = (-1,1);
}
);
width = 1152;
}
);
unicode = 113;
},
{
color = 6;
glyphname = q.ss01;
lastChange = "2023-11-23 10:09:39 +0000";
layers = (
{
anchors = (
{
name = bottom;
pos = (954,-420);
},
{
name = top;
pos = (592,1048);
}
);
layerId = "AB099EFE-E788-4EFC-8633-CF147CB782A6";
shapes = (
{
closed = 1;
nodes = (
(786,-16,o),
(980,200,o),
(980,524,cs),
(980,848,o),
(786,1064,o),
(544,1064,cs),
(304,1064,o),
(112,848,o),
(112,524,cs),
(112,202,o),
(304,-16,o),
(544,-16,cs)
);
},
{
closed = 1;
nodes = (
(338,40,o),
(172,236,o),
(172,524,cs),
(172,818,o),
(338,1008,o),
(548,1008,cs),
(760,1008,o),
(926,818,o),
(926,524,cs),
(926,238,o),
(760,40,o),
(548,40,cs)
);
},
{
closed = 1;
nodes = (
(984,-420,l),
(984,1048,l),
(924,1048,l),
(924,810,l),
(904,810,l),
(928,778,l),
(928,304,l),
(912,244,l),
(924,244,l),
(924,-420,l)
);
}
);
width = 1152;
},
{
anchors = (
{
name = bottom;
pos = (896,-420);
},
{
name = top;
pos = (582,1080);
}
);
layerId = "2D8F7115-C311-411E-929D-56333CF7FFB2";
shapes = (
{
closed = 1;
nodes = (
(706,-16,o),
(842,226,o),
(842,540,cs),
(842,868,o),
(714,1096,o),
(478,1096,cs),
(224,1096,o),
(40,860,o),
(40,540,cs),
(40,220,o),
(218,-16,o),
(464,-16,cs)
);
},
{
closed = 1;
nodes = (
(448,286,o),
(372,394,o),
(372,540,cs),
(372,688,o),
(448,792,o),
(552,792,cs),
(654,792,o),
(730,688,o),
(730,540,cs),
(730,394,o),
(654,286,o),
(552,286,cs)
);
},
{
closed = 1;
nodes = (
(1068,-420,l),
(1068,1080,l),
(736,1080,l),
(736,964,l),
(694,964,l),
(738,866,l),
(738,212,l),
(694,96,l),
(716,96,l),
(716,-420,l)
);
}
);
width = 1152;
},
{
anchors = (
{
name = bottom;
pos = (932,-420);
},
{
name = top;
pos = (580,1060);
}
);
layerId = "FD1CEFBD-BAB1-4C2A-A598-30E93F9A29F6";
shapes = (
{
closed = 1;
nodes = (
(788,-16,o),
(952,236,o),
(952,532,cs),
(952,854,o),
(778,1076,o),
(524,1076,cs),
(272,1076,o),
(72,854,o),
(72,532,cs),
(72,210,o),
(270,-16,o),
(524,-16,cs)
);
},
{
closed = 1;
nodes = (
(374,144,o),
(246,318,o),
(246,532,cs),
(246,754,o),
(382,916,o),
(554,916,cs),
(724,916,o),
(856,760,o),
(856,530,cs),
(856,296,o),
(720,144,o),
(552,144,cs)
);
},
{
closed = 1;
nodes = (
(1024,-420,l),
(1024,1060,l),
(854,1060,l),
(854,908,l),
(832,908,l),
(860,836,l),
(860,274,l),
(830,148,l),
(850,148,l),
(850,-420,l)
);
}
);
width = 1152;
}
);
},
{
color = 6;
glyphname = r;
lastChange = "2023-11-23 10:09:18 +0000";
layers = (
{
anchors = (
{
name = bottom;
pos = (280,0);
},
{
name = top;
pos = (620,1048);
}
);
guides = (
{
angle = 22.5;
pos = (960,742);
}
);
layerId = "AB099EFE-E788-4EFC-8633-CF147CB782A6";
shapes = (
{
closed = 1;
nodes = (
(312,0,l),
(312,598,ls),
(312,842,o),
(460,1008,o),
(662,1008,cs),
(810,1008,o),
(896,918,o),
(942,834,c),
(996,856,l),
(954,954,o),
(842,1064,o),
(668,1064,cs),
(472,1064,o),
(334,922,o),
(302,796,c),
(348,842,l),
(312,842,l),
(312,1048,l),
(252,1048,l),
(252,0,l)
);
}
);
width = 1152;
},
{
anchors = (
{
name = bottom;
pos = (306,0);
},
{
name = top;
pos = (616,1080);
}
);
background = {
anchors = (
{
name = bottom;
pos = (698,-102);
},
{
name = cedilla;
pos = (710,-102);
},
{
name = top;
pos = (694,958);
}
);
};
guides = (
{
angle = 22.5;
pos = (822,648);
}
);
layerId = "2D8F7115-C311-411E-929D-56333CF7FFB2";
shapes = (
{
closed = 1;
nodes = (
(484,0,l),
(484,612,ls),
(484,722,o),
(562,790,o),
(656,790,cs),
(738,790,o),
(782,736,o),
(810,672,c),
(1124,800,l),
(1088,952,o),
(970,1096,o),
(796,1096,cs),
(612,1096,o),
(484,966,o),
(428,776,c),
(516,898,l),
(476,898,l),
(476,1080,l),
(128,1080,l),
(128,0,l)
);
}
);
width = 1152;
},
{
anchors = (
{
name = bottom;
pos = (310,0);
},
{
name = top;
pos = (638,1060);
}
);
guides = (
{
angle = 107.5;
pos = (1032,832);
},
{
angle = 22.5;
pos = (886,772);
}
);
layerId = "FD1CEFBD-BAB1-4C2A-A598-30E93F9A29F6";
shapes = (
{
closed = 1;
nodes = (
(396,0,l),
(396,602,ls),
(396,784,o),
(522,912,o),
(658,912,cs),
(770,912,o),
(852,860,o),
(892,766,c),
(1052,832,l),
(990,996,o),
(866,1076,o),
(700,1076,cs),
(546,1076,o),
(406,964,o),
(370,816,c),
(430,900,l),
(396,900,l),
(396,1060,l),
(224,1060,l),
(224,0,l)
);
}
);
width = 1152;
}
);
unicode = 114;
},
{
color = 6;
glyphname = s;
lastChange = "2023-11-23 10:09:39 +0000";
layers = (
{
anchors = (
{
name = bottom;
pos = (578,0);
},
{
name = cedilla;
pos = (586,0);
},
{
name = top;
pos = (572,1048);
}
);
background = {
shapes = (
{
closed = 1;
nodes = (
(830,-16,o),
(1010,96,o),
(1010,272,cs),
(1010,478,o),
(764,536,o),
(586,578,cs),
(466,606,o),
(276,662,o),
(270,802,cs),
(264,916,o),
(376,1008,o),
(568,1008,cs),
(722,1008,o),
(854,944,o),
(906,862,c),
(962,884,l),
(898,988,o),
(752,1064,o),
(576,1064,cs),
(364,1064,o),
(210,960,o),
(210,814,cs),
(210,638,o),
(448,554,o),
(592,522,cs),
(706,496,o),
(950,442,o),
(950,272,cs),
(950,138,o),
(802,40,o),
(608,40,cs),
(428,40,o),
(290,130,o),
(232,232,c),
(170,208,l),
(232,92,o),
(392,-16,o),
(608,-16,cs)
);
}
);
};
layerId = "AB099EFE-E788-4EFC-8633-CF147CB782A6";
shapes = (
{
closed = 1;
nodes = (
(790,-16,o),
(960,96,o),
(960,272,cs),
(960,641,o),
(301,496,o),
(288,804,cs),
(284,922,o),
(392,1008,o),
(558,1008,cs),
(692,1008,o),
(808,942,o),
(858,860,c),
(916,884,l),
(858,988,o),
(722,1064,o),
(562,1064,cs),
(370,1064,o),
(228,960,o),
(228,814,cs),
(228,438,o),
(900,597,o),
(900,272,cs),
(900,138,o),
(762,40,o),
(592,40,cs),
(432,40,o),
(304,128,o),
(254,232,c),
(192,206,l),
(244,92,o),
(392,-16,o),
(592,-16,cs)
);
}
);
width = 1152;
},
{
anchors = (
{
name = bottom;
pos = (586,0);
},
{
name = cedilla;
pos = (604,0);
},
{
name = top;
pos = (586,1080);
}
);
guides = (
{
angle = 22.5;
pos = (120,258);
}
);
layerId = "2D8F7115-C311-411E-929D-56333CF7FFB2";
shapes = (
{
closed = 1;
nodes = (
(842,-16,o),
(1048,124,o),
(1048,338,cs),
(1048,698,o),
(460,628,o),
(460,756,cs),
(460,800,o),
(514,826,o),
(584,826,cs),
(666,826,o),
(724,790,o),
(760,740,c),
(1038,856,l),
(968,1008,o),
(786,1096,o),
(588,1096,cs),
(326,1096,o),
(146,960,o),
(146,758,cs),
(146,394,o),
(732,448,o),
(732,324,cs),
(732,280,o),
(674,256,o),
(604,256,cs),
(492,256,o),
(422,322,o),
(384,374,c),
(104,258,l),
(182,84,o),
(380,-16,o),
(592,-16,cs)
);
}
);
width = 1152;
},
{
anchors = (
{
name = bottom;
pos = (576,0);
},
{
name = cedilla;
pos = (588,0);
},
{
name = top;
pos = (572,1060);
}
);
guides = (
{
angle = 22.5;
pos = (800,798);
},
{
angle = 22.5;
pos = (320,296);
}
);
layerId = "FD1CEFBD-BAB1-4C2A-A598-30E93F9A29F6";
shapes = (
{
closed = 1;
nodes = (
(802,-16,o),
(992,114,o),
(992,308,cs),
(992,662,o),
(364,558,o),
(364,784,cs),
(364,872,o),
(462,916,o),
(568,916,cs),
(692,916,o),
(766,856,o),
(800,798,c),
(958,864,l),
(894,988,o),
(750,1076,o),
(572,1076,cs),
(382,1076,o),
(196,978,o),
(196,782,cs),
(196,416,o),
(824,510,o),
(824,294,cs),
(824,202,o),
(710,144,o),
(588,144,cs),
(456,144,o),
(356,218,o),
(320,296,c),
(160,230,l),
(210,106,o),
(372,-16,o),
(582,-16,cs)
);
}
);
width = 1152;
}
);
unicode = 115;
userData = {
com.typemytype.robofont.layerData = {
background = {
anchors = (
);
components = (
);
contours = (
{
points = (
{
segmentType = curve;
smooth = 1;
x = 213;
y = -12;
},
{
smooth = 0;
x = 318;
y = -12;
},
{
smooth = 0;
x = 376;
y = 50;
},
{
segmentType = curve;
smooth = 1;
x = 376;
y = 120;
},
{
smooth = 0;
x = 376;
y = 214;
},
{
smooth = 0;
x = 288;
y = 237;
},
{
segmentType = curve;
smooth = 1;
x = 208;
y = 266;
},
{
smooth = 0;
x = 147;
y = 288;
},
{
smooth = 0;
x = 85;
y = 310;
},
{
segmentType = curve;
smooth = 1;
x = 85;
y = 368;
},
{
smooth = 0;
x = 85;
y = 415;
},
{
smooth = 0;
x = 124;
y = 462;
},
{
segmentType = curve;
smooth = 1;
x = 208;
y = 462;
},
{
smooth = 0;
x = 253;
y = 462;
},
{
smooth = 0;
x = 284;
y = 448;
},
{
segmentType = curve;
smooth = 1;
x = 314;
y = 429;
},
{
smooth = 0;
x = 325;
y = 422;
},
{
smooth = 0;
x = 336;
y = 423;
},
{
segmentType = curve;
smooth = 1;
x = 343;
y = 434;
},
{
segmentType = line;
smooth = 1;
x = 346;
y = 439;
},
{
smooth = 0;
x = 347;
y = 441;
},
{
smooth = 0;
x = 347;
y = 443;
},
{
segmentType = curve;
smooth = 1;
x = 345;
y = 444;
},
{
smooth = 0;
x = 311;
y = 468;
},
{
smooth = 0;
x = 257;
y = 490;
},
{
segmentType = curve;
smooth = 1;
x = 211;
y = 490;
},
{
smooth = 0;
x = 108;
y = 490;
},
{
smooth = 0;
x = 54;
y = 432;
},
{
segmentType = curve;
smooth = 1;
x = 54;
y = 366;
},
{
smooth = 0;
x = 54;
y = 284;
},
{
smooth = 0;
x = 141;
y = 256;
},
{
segmentType = curve;
smooth = 1;
x = 218;
y = 230;
},
{
smooth = 0;
x = 277;
y = 210;
},
{
smooth = 0;
x = 344;
y = 182;
},
{
segmentType = curve;
smooth = 1;
x = 344;
y = 118;
},
{
smooth = 0;
x = 344;
y = 64;
},
{
smooth = 0;
x = 300;
y = 16;
},
{
segmentType = curve;
smooth = 1;
x = 215;
y = 16;
},
{
smooth = 0;
x = 148;
y = 16;
},
{
smooth = 0;
x = 105;
y = 37;
},
{
segmentType = curve;
smooth = 1;
x = 66;
y = 65;
},
{
smooth = 0;
x = 55;
y = 73;
},
{
smooth = 0;
x = 45;
y = 74;
},
{
segmentType = curve;
smooth = 1;
x = 37;
y = 63;
},
{
segmentType = line;
smooth = 1;
x = 33;
y = 57;
},
{
smooth = 0;
x = 32;
y = 55;
},
{
smooth = 0;
x = 32;
y = 53;
},
{
segmentType = curve;
smooth = 1;
x = 34;
y = 51;
},
{
smooth = 0;
x = 73;
y = 12;
},
{
smooth = 0;
x = 139;
y = -12;
}
);
}
);
lib = {
};
name = s;
unicodes = (
);
width = 439;
};
};
};
},
{
color = 6;
glyphname = germandbls;
lastChange = "2023-11-23 10:09:39 +0000";
layers = (
{
layerId = "AB099EFE-E788-4EFC-8633-CF147CB782A6";
shapes = (
{
closed = 1;
nodes = (
(832,-16,o),
(1002,196,o),
(1002,418,cs),
(1002,670,o),
(806,864,o),
(544,852,c),
(544,824,l),
(746,812,o),
(896,976,o),
(896,1188,cs),
(896,1410,o),
(738,1556,o),
(538,1556,cs),
(332,1556,o),
(186,1398,o),
(186,1178,cs),
(186,0,l),
(246,0,l),
(246,1190,ls),
(246,1366,o),
(380,1500,o),
(544,1500,cs),
(710,1500,o),
(836,1362,o),
(836,1184,cs),
(836,1004,o),
(704,870,o),
(530,870,cs),
(464,870,l),
(464,814,l),
(492,814,ls),
(746,814,o),
(942,654,o),
(942,418,cs),
(942,220,o),
(794,40,o),
(580,40,cs),
(520,40,o),
(464,52,o),
(410,68,c),
(410,8,l),
(460,-8,o),
(536,-16,o),
(586,-16,cs)
);
}
);
width = 1152;
},
{
layerId = "2D8F7115-C311-411E-929D-56333CF7FFB2";
shapes = (
{
closed = 1;
nodes = (
(940,-16,o),
(1120,134,o),
(1120,398,cs),
(1120,660,o),
(942,804,o),
(702,802,c),
(702,746,l),
(828,746,o),
(1008,882,o),
(1008,1126,cs),
(1008,1356,o),
(846,1556,o),
(554,1556,cs),
(276,1556,o),
(72,1372,o),
(72,1056,cs),
(72,0,l),
(416,0,l),
(416,1078,ls),
(416,1206,o),
(488,1262,o),
(564,1262,cs),
(652,1262,o),
(708,1186,o),
(708,1092,cs),
(708,996,o),
(650,926,o),
(572,926,cs),
(524,926,l),
(524,610,l),
(618,610,ls),
(714,610,o),
(778,540,o),
(778,438,cs),
(778,342,o),
(720,278,o),
(628,278,cs),
(600,278,o),
(562,284,o),
(524,294,c),
(524,-12,l),
(528,-12,o),
(578,-16,o),
(628,-16,cs)
);
}
);
width = 1152;
},
{
layerId = "FD1CEFBD-BAB1-4C2A-A598-30E93F9A29F6";
shapes = (
{
closed = 1;
nodes = (
(856,-16,o),
(1042,176,o),
(1042,422,cs),
(1042,672,o),
(846,848,o),
(610,836,c),
(610,786,l),
(790,778,o),
(944,952,o),
(944,1168,cs),
(944,1398,o),
(780,1556,o),
(538,1556,cs),
(300,1556,o),
(138,1390,o),
(138,1114,cs),
(138,0,l),
(310,0,l),
(310,1098,ls),
(310,1258,o),
(396,1396,o),
(546,1396,cs),
(676,1396,o),
(776,1304,o),
(776,1150,cs),
(776,996,o),
(670,886,o),
(546,886,cs),
(486,886,l),
(486,730,l),
(538,730,ls),
(754,730,o),
(868,588,o),
(870,426,cs),
(874,250,o),
(762,144,o),
(582,144,cs),
(552,144,o),
(490,148,o),
(450,156,c),
(450,-4,l),
(492,-12,o),
(552,-16,o),
(588,-16,cs)
);
}
);
width = 1152;
}
);
unicode = 223;
},
{
color = 6;
glyphname = t;
lastChange = "2023-11-23 10:09:39 +0000";
layers = (
{
anchors = (
{
name = bottom;
pos = (696,0);
},
{
name = cedilla;
pos = (728,0);
},
{
name = center;
pos = (432,524);
},
{
name = top;
pos = (434,1414);
},
{
name = topright;
pos = (506,1582);
}
);
guides = (
{
angle = 112.5;
pos = (1028,64);
}
);
layerId = "AB099EFE-E788-4EFC-8633-CF147CB782A6";
shapes = (
{
closed = 1;
nodes = (
(832,-12,o),
(924,18,o),
(1012,66,c),
(988,120,l),
(914,76,o),
(814,44,o),
(730,44,cs),
(574,44,o),
(460,140,o),
(460,320,cs),
(460,1414,l),
(400,1414,l),
(400,326,ls),
(400,88,o),
(548,-12,o),
(738,-12,cs)
);
},
{
closed = 1;
nodes = (
(938,992,l),
(938,1048,l),
(124,1048,l),
(124,992,l)
);
}
);
width = 1152;
},
{
anchors = (
{
name = bottom;
pos = (684,0);
},
{
name = cedilla;
pos = (710,0);
},
{
name = center;
pos = (482,540);
},
{
name = top;
pos = (478,1380);
},
{
name = topright;
pos = (592,1732);
}
);
guides = (
{
angle = 149.6568;
pos = (422,-12);
}
);
layerId = "2D8F7115-C311-411E-929D-56333CF7FFB2";
shapes = (
{
closed = 1;
nodes = (
(840,-16,o),
(980,26,o),
(1072,82,c),
(956,362,l),
(912,318,o),
(848,286,o),
(786,286,cs),
(706,286,o),
(648,324,o),
(648,418,cs),
(648,1380,l),
(292,1380,l),
(292,430,ls),
(292,140,o),
(470,-16,o),
(722,-16,cs)
);
},
{
closed = 1;
nodes = (
(1016,780,l),
(1016,1080,l),
(52,1080,l),
(52,780,l)
);
}
);
width = 1152;
},
{
anchors = (
{
name = bottom;
pos = (690,0);
},
{
name = cedilla;
pos = (724,0);
},
{
name = center;
pos = (442,536);
},
{
name = top;
pos = (440,1400);
},
{
name = topright;
pos = (518,1640);
}
);
guides = (
{
angle = 112.5;
pos = (1060,76);
}
);
layerId = "FD1CEFBD-BAB1-4C2A-A598-30E93F9A29F6";
shapes = (
{
closed = 1;
nodes = (
(842,-16,o),
(952,20,o),
(1040,76,c),
(974,234,l),
(912,184,o),
(824,144,o),
(740,144,cs),
(618,144,o),
(524,230,o),
(524,352,cs),
(524,1400,l),
(352,1400,l),
(352,334,ls),
(352,128,o),
(514,-16,o),
(732,-16,cs)
);
},
{
closed = 1;
nodes = (
(974,904,l),
(974,1060,l),
(104,1060,l),
(104,904,l)
);
}
);
width = 1152;
}
);
unicode = 116;
},
